<svg width="358" height="226" viewBox="0 0 358 226" fill="none" xmlns="http://www.w3.org/2000/svg">
<path opacity="0.45" d="M234.18 223.291C272.397 223.291 303.378 218.649 303.378 212.922C303.378 207.195 272.397 202.553 234.18 202.553C195.963 202.553 164.982 207.195 164.982 212.922C164.982 218.649 195.963 223.291 234.18 223.291Z" fill="#E1E7F0"/>
<path opacity="0.45" d="M89.4157 217.307C130.926 212.592 163.825 202.163 162.9 194.012C161.974 185.862 127.573 183.077 86.0633 187.792C44.5535 192.507 11.6535 202.936 12.5793 211.086C13.505 219.236 47.9058 222.022 89.4157 217.307Z" fill="#E1E7F0"/>
<path d="M284.931 17.0969H195.741C190.912 17.0969 186.998 21.0113 186.998 25.84V201.029C186.998 205.858 190.912 209.772 195.741 209.772H284.931C289.76 209.772 293.674 205.858 293.674 201.029V25.84C293.674 21.0113 289.76 17.0969 284.931 17.0969Z" fill="#4D455A"/>
<path d="M274.932 17.0969H185.741C180.912 17.0969 176.998 21.0113 176.998 25.84V201.029C176.998 205.858 180.912 209.772 185.741 209.772H274.932C279.76 209.772 283.675 205.858 283.675 201.029V25.84C283.675 21.0113 279.76 17.0969 274.932 17.0969Z" fill="#65617C"/>
<path d="M273.027 30.5974H187.517C184.388 30.5974 181.851 33.1342 181.851 36.2635V195.162C181.851 198.292 184.388 200.828 187.517 200.828H273.027C276.156 200.828 278.693 198.292 278.693 195.162V36.2635C278.693 33.1342 276.156 30.5974 273.027 30.5974Z" fill="white"/>
<path d="M258.531 21.5942H202.141C200.926 21.5942 199.942 22.5786 199.942 23.7929C199.942 25.0072 200.926 25.9916 202.141 25.9916H258.531C259.745 25.9916 260.729 25.0072 260.729 23.7929C260.729 22.5786 259.745 21.5942 258.531 21.5942Z" fill="#A1C7EC"/>
<path d="M66.7945 61.7273C83.4318 61.7273 96.919 48.2401 96.919 31.6028C96.919 14.9655 83.4318 1.47827 66.7945 1.47827C50.1571 1.47827 36.6699 14.9655 36.6699 31.6028C36.6699 48.2401 50.1571 61.7273 66.7945 61.7273Z" fill="#FF556F"/>
<path d="M66.7948 56.9909C80.8165 56.9909 92.1833 45.6241 92.1833 31.6024C92.1833 17.5807 80.8165 6.21387 66.7948 6.21387C52.7731 6.21387 41.4062 17.5807 41.4062 31.6024C41.4062 45.6241 52.7731 56.9909 66.7948 56.9909Z" fill="#DD2447"/>
<path d="M93.5236 33.0816C93.5236 47.1027 82.1562 58.4701 68.1339 58.4701C64.7873 58.4745 61.473 57.8151 58.3829 56.5301C55.2929 55.2451 52.4883 53.36 50.1316 50.9839C49.6198 50.469 49.1302 49.9328 48.6631 49.3755C44.8326 44.8109 42.7368 39.0404 42.7454 33.0816C42.7454 19.0593 54.1116 7.69191 68.1339 7.69191C71.5118 7.68817 74.8563 8.36057 77.9702 9.66949C81.0842 10.9784 83.9047 12.8974 86.2655 15.3133C86.7358 15.7977 87.1909 16.3005 87.6306 16.8218C91.4455 21.3803 93.532 27.1374 93.5236 33.0816Z" fill="white"/>
<g opacity="0.21">
<path opacity="0.21" d="M87.3928 14.1047C87.2188 13.946 87.1235 13.8613 87.1235 13.8613L87.3128 13.491C87.3128 13.491 87.3458 13.7061 87.3928 14.1047Z" fill="#92AFE7"/>
<path opacity="0.21" d="M93.5233 33.0819C93.5233 47.103 82.1559 58.4704 68.1336 58.4704C64.787 58.4748 61.4728 57.8154 58.3827 56.5304C55.2926 55.2454 52.488 53.3603 50.1313 50.9842C50.2615 51.0219 50.392 51.0583 50.5229 51.0936C55.7927 52.5468 61.0167 52.8972 65.7915 52.1059C66.4186 52.0017 67.0402 51.877 67.6563 51.732C73.2918 50.4081 78.1912 47.3981 81.6409 42.6304C83.675 39.8191 85.0507 36.6551 85.9796 33.4758C86.1653 32.8408 86.3323 32.2059 86.4816 31.5722C87.8055 25.9778 87.8326 20.5434 87.648 17.1184C87.648 17.0161 87.6362 16.9161 87.6303 16.8174C91.4463 21.3771 93.5329 27.1361 93.5233 33.0819Z" fill="#92AFE7"/>
</g>
<path d="M67.8105 10.2268C67.8105 9.66506 67.3554 9.20972 66.794 9.20972C66.2327 9.20972 65.7776 9.66506 65.7776 10.2268V12.9052C65.7776 13.4669 66.2327 13.9222 66.794 13.9222C67.3554 13.9222 67.8105 13.4669 67.8105 12.9052V10.2268Z" fill="#92AFE7"/>
<path d="M67.8105 52.2717C67.8105 51.71 67.3554 51.2546 66.794 51.2546C66.2327 51.2546 65.7776 51.71 65.7776 52.2717V54.9501C65.7776 55.5118 66.2327 55.9671 66.794 55.9671C67.3554 55.9671 67.8105 55.5118 67.8105 54.9501V52.2717Z" fill="#92AFE7"/>
<path d="M89.1554 31.572H86.477C85.9153 31.572 85.46 32.0271 85.46 32.5885C85.46 33.1498 85.9153 33.6049 86.477 33.6049H89.1554C89.7171 33.6049 90.1725 33.1498 90.1725 32.5885C90.1725 32.0271 89.7171 31.572 89.1554 31.572Z" fill="#92AFE7"/>
<path d="M47.111 31.572H44.4326C43.8709 31.572 43.4155 32.0271 43.4155 32.5885C43.4155 33.1498 43.8709 33.6049 44.4326 33.6049H47.111C47.6727 33.6049 48.128 33.1498 48.128 32.5885C48.128 32.0271 47.6727 31.572 47.111 31.572Z" fill="#92AFE7"/>
<path d="M67.3107 14.5527C67.3107 14.256 67.0702 14.0154 66.7734 14.0154C66.4767 14.0154 66.2361 14.256 66.2361 14.5527V32.247C66.2361 32.5437 66.4767 32.7843 66.7734 32.7843C67.0702 32.7843 67.3107 32.5437 67.3107 32.247V14.5527Z" fill="#66649B"/>
<path d="M78.3714 33.3215C78.6681 33.3215 78.9087 33.0809 78.9087 32.7842C78.9087 32.4874 78.6681 32.2468 78.3714 32.2468H67.3097C67.0129 32.2468 66.7723 32.4874 66.7723 32.7842C66.7723 33.0809 67.0129 33.3215 67.3097 33.3215H78.3714Z" fill="#66649B"/>
<path d="M66.7945 34.1127C67.5342 34.1127 68.1337 33.5132 68.1337 32.7735C68.1337 32.0339 67.5342 31.4343 66.7945 31.4343C66.0549 31.4343 65.4553 32.0339 65.4553 32.7735C65.4553 33.5132 66.0549 34.1127 66.7945 34.1127Z" fill="#92AFE7"/>
<path opacity="0.53" d="M164.01 3.69678H114.664C109.969 3.69678 106.163 7.50274 106.163 12.1976V39.1805C106.163 43.8754 109.969 47.6813 114.664 47.6813H164.01C168.705 47.6813 172.511 43.8754 172.511 39.1805V12.1976C172.511 7.50274 168.705 3.69678 164.01 3.69678Z" stroke="white" stroke-width="7" stroke-linecap="round" stroke-linejoin="round"/>
<path d="M125.042 25.6897C127.084 25.6897 128.739 24.0346 128.739 21.993C128.739 19.9514 127.084 18.2964 125.042 18.2964C123.001 18.2964 121.346 19.9514 121.346 21.993C121.346 24.0346 123.001 25.6897 125.042 25.6897Z" fill="#73AEF2"/>
<path d="M143.033 25.6897C145.075 25.6897 146.73 24.0346 146.73 21.993C146.73 19.9514 145.075 18.2964 143.033 18.2964C140.991 18.2964 139.336 19.9514 139.336 21.993C139.336 24.0346 140.991 25.6897 143.033 25.6897Z" fill="#73AEF2"/>
<path d="M161.024 25.6897C163.065 25.6897 164.72 24.0346 164.72 21.993C164.72 19.9514 163.065 18.2964 161.024 18.2964C158.982 18.2964 157.327 19.9514 157.327 21.993C157.327 24.0346 158.982 25.6897 161.024 25.6897Z" fill="#73AEF2"/>
<mask id="path-23-inside-1_623_16704" fill="white">
<path fill-rule="evenodd" clip-rule="evenodd" d="M118.36 0H167.707C172.401 0 176.207 3.80596 176.207 8.50085V17.2026C178.611 18.0272 182.941 20.1019 186.122 24.9498C186.122 24.9498 181.244 22.6662 176.207 24.0487V35.4837C176.207 40.1786 172.401 43.9846 167.707 43.9846H118.36C113.666 43.9846 109.86 40.1786 109.86 35.4837V8.50085C109.86 3.80596 113.666 0 118.36 0Z"/>
</mask>
<path d="M176.207 17.2026H175.207V17.9168L175.883 18.1485L176.207 17.2026ZM186.122 24.9498L185.698 25.8554L188.894 27.3518L186.958 24.4012L186.122 24.9498ZM176.207 24.0487L175.943 23.0844L175.207 23.2862V24.0487H176.207ZM167.707 -1H118.36V1H167.707V-1ZM177.207 8.50085C177.207 3.25368 172.954 -1 167.707 -1V1C171.849 1 175.207 4.35824 175.207 8.50085H177.207ZM177.207 17.2026V8.50085H175.207V17.2026H177.207ZM175.883 18.1485C178.158 18.9292 182.267 20.8972 185.286 25.4984L186.958 24.4012C183.615 19.3066 179.064 17.1253 176.532 16.2568L175.883 18.1485ZM186.122 24.9498C186.546 24.0441 186.546 24.044 186.545 24.0438C186.545 24.0438 186.545 24.0436 186.544 24.0435C186.544 24.0433 186.543 24.043 186.543 24.0427C186.541 24.042 186.54 24.0413 186.538 24.0404C186.534 24.0386 186.529 24.0363 186.523 24.0334C186.51 24.0277 186.493 24.02 186.471 24.0103C186.428 23.9911 186.366 23.9643 186.287 23.9315C186.13 23.8658 185.904 23.7758 185.619 23.6734C185.049 23.4689 184.239 23.2132 183.264 23.0032C181.323 22.5854 178.67 22.3358 175.943 23.0844L176.472 25.0131C178.782 24.3791 181.086 24.5801 182.843 24.9584C183.717 25.1465 184.441 25.3753 184.943 25.5557C185.194 25.6458 185.388 25.7234 185.517 25.7773C185.582 25.8042 185.63 25.8251 185.66 25.8386C185.676 25.8454 185.686 25.8503 185.693 25.8531C185.696 25.8546 185.698 25.8555 185.699 25.8559C185.699 25.8561 185.699 25.8561 185.699 25.8561C185.699 25.856 185.699 25.856 185.699 25.8559C185.699 25.8558 185.698 25.8557 185.698 25.8557C185.698 25.8556 185.698 25.8554 186.122 24.9498ZM177.207 35.4837V24.0487H175.207V35.4837H177.207ZM167.707 44.9846C172.954 44.9846 177.207 40.7309 177.207 35.4837H175.207C175.207 39.6263 171.849 42.9846 167.707 42.9846V44.9846ZM118.36 44.9846H167.707V42.9846H118.36V44.9846ZM108.86 35.4837C108.86 40.7309 113.113 44.9846 118.36 44.9846V42.9846C114.218 42.9846 110.86 39.6263 110.86 35.4837H108.86ZM108.86 8.50085V35.4837H110.86V8.50085H108.86ZM118.36 -1C113.113 -1 108.86 3.25368 108.86 8.50085H110.86C110.86 4.35824 114.218 1 118.36 1V-1Z" fill="#E1E7F0" mask="url(#path-23-inside-1_623_16704)"/>
<path d="M274.096 149.411H273.567" stroke="#2959A5" stroke-width="2" stroke-linecap="round" stroke-linejoin="round"/>
<path d="M271.383 149.411H269.309" stroke="#2959A5" stroke-width="2" stroke-linecap="round" stroke-linejoin="round" stroke-dasharray="8.36 18.57"/>
<path d="M268.218 149.41H267.689V148.881" stroke="#2959A5" stroke-width="2" stroke-linecap="round" stroke-linejoin="round"/>
<path d="M267.689 146.534V59.2073" stroke="#2959A5" stroke-width="2" stroke-linecap="round" stroke-linejoin="round" stroke-dasharray="8.98 19.97"/>
<path d="M267.689 58.034V57.5049H268.218" stroke="#2959A5" stroke-width="2" stroke-linecap="round" stroke-linejoin="round"/>
<path d="M270.401 57.5049H272.474" stroke="#2959A5" stroke-width="2" stroke-linecap="round" stroke-linejoin="round" stroke-dasharray="8.36 18.57"/>
<path d="M273.567 57.5049H274.096" stroke="#2959A5" stroke-width="2" stroke-linecap="round" stroke-linejoin="round"/>
<path d="M354.453 45.0947H277.643C275.684 45.0947 274.096 46.6829 274.096 48.642V66.127C274.096 68.0861 275.684 69.6743 277.643 69.6743H354.453C356.412 69.6743 358 68.0861 358 66.127V48.642C358 46.6829 356.412 45.0947 354.453 45.0947Z" fill="#2F86EB"/>
<path d="M296.796 50.9946C294.974 48.9852 291.279 48.9699 289.868 51.9975C289.774 52.1986 289.691 52.4043 289.542 52.7453C289.378 52.4008 289.277 52.1892 289.177 51.9763C288.818 51.1584 288.198 50.483 287.413 50.0563C285.952 49.2744 284.279 49.5495 282.862 50.5395C281.654 51.3837 281.142 52.5242 280.938 53.8776C280.714 55.3673 281.157 56.7441 281.762 58.0774C282.857 60.5031 284.746 62.2467 286.803 63.8234C287.553 64.3984 288.388 64.8664 289.206 65.3449C289.307 65.3928 289.416 65.4185 289.528 65.4201C289.639 65.4217 289.749 65.3993 289.851 65.3543C291.36 64.5545 292.765 63.5703 294.032 62.4243C295.696 60.9052 297.045 59.1603 297.772 56.9981C298.499 54.8358 298.42 52.7841 296.796 50.9946Z" fill="#E83660"/>
<path opacity="0.8" d="M328.778 49.5896H304.261C303.504 49.5896 302.89 50.2031 302.89 50.96C302.89 51.7168 303.504 52.3303 304.261 52.3303H328.778C329.535 52.3303 330.149 51.7168 330.149 50.96C330.149 50.2031 329.535 49.5896 328.778 49.5896Z" fill="white"/>
<path opacity="0.4" d="M349.847 56.1338H304.261C303.504 56.1338 302.89 56.7473 302.89 57.5042C302.89 58.261 303.504 58.8745 304.261 58.8745H349.847C350.604 58.8745 351.218 58.261 351.218 57.5042C351.218 56.7473 350.604 56.1338 349.847 56.1338Z" fill="white"/>
<path opacity="0.4" d="M349.847 62.6794H304.261C303.504 62.6794 302.89 63.293 302.89 64.0498C302.89 64.8066 303.504 65.4202 304.261 65.4202H349.847C350.604 65.4202 351.218 64.8066 351.218 64.0498C351.218 63.293 350.604 62.6794 349.847 62.6794Z" fill="white"/>
<path d="M354.453 91.9634H277.643C275.684 91.9634 274.096 93.5516 274.096 95.5107V112.996C274.096 114.955 275.684 116.543 277.643 116.543H354.453C356.412 116.543 358 114.955 358 112.996V95.5107C358 93.5516 356.412 91.9634 354.453 91.9634Z" fill="#2F86EB"/>
<path opacity="0.8" d="M328.778 96.4585H304.261C303.504 96.4585 302.89 97.072 302.89 97.8289C302.89 98.5857 303.504 99.1992 304.261 99.1992H328.778C329.535 99.1992 330.149 98.5857 330.149 97.8289C330.149 97.072 329.535 96.4585 328.778 96.4585Z" fill="white"/>
<path opacity="0.4" d="M349.847 103.003H304.261C303.504 103.003 302.89 103.616 302.89 104.373C302.89 105.13 303.504 105.743 304.261 105.743H349.847C350.604 105.743 351.218 105.13 351.218 104.373C351.218 103.616 350.604 103.003 349.847 103.003Z" fill="white"/>
<path opacity="0.4" d="M349.847 109.548H304.261C303.504 109.548 302.89 110.162 302.89 110.919C302.89 111.676 303.504 112.289 304.261 112.289H349.847C350.604 112.289 351.218 111.676 351.218 110.919C351.218 110.162 350.604 109.548 349.847 109.548Z" fill="white"/>
<path d="M354.453 137.121H277.643C275.684 137.121 274.096 138.709 274.096 140.668V158.153C274.096 160.112 275.684 161.701 277.643 161.701H354.453C356.412 161.701 358 160.112 358 158.153V140.668C358 138.709 356.412 137.121 354.453 137.121Z" fill="#2F86EB"/>
<path opacity="0.8" d="M328.778 141.616H304.261C303.504 141.616 302.89 142.23 302.89 142.987C302.89 143.743 303.504 144.357 304.261 144.357H328.778C329.535 144.357 330.149 143.743 330.149 142.987C330.149 142.23 329.535 141.616 328.778 141.616Z" fill="white"/>
<path opacity="0.4" d="M349.847 148.161H304.261C303.504 148.161 302.89 148.774 302.89 149.531C302.89 150.288 303.504 150.902 304.261 150.902H349.847C350.604 150.902 351.218 150.288 351.218 149.531C351.218 148.774 350.604 148.161 349.847 148.161Z" fill="white"/>
<path opacity="0.4" d="M349.847 154.706H304.261C303.504 154.706 302.89 155.32 302.89 156.076C302.89 156.833 303.504 157.447 304.261 157.447H349.847C350.604 157.447 351.218 156.833 351.218 156.076C351.218 155.32 350.604 154.706 349.847 154.706Z" fill="white"/>
<path fill-rule="evenodd" clip-rule="evenodd" d="M282.589 99.2732C282.589 98.755 282.169 98.335 281.651 98.335C281.133 98.335 280.713 98.755 280.713 99.2732V100.776C280.707 100.263 280.289 99.8494 279.774 99.8494C279.256 99.8494 278.836 100.269 278.836 100.788V103.386H278.244C277.768 103.386 277.383 103.771 277.383 104.246C277.383 104.721 277.768 105.106 278.244 105.106H278.836V107.959C278.836 108.477 279.256 108.897 279.774 108.897C280.289 108.897 280.707 108.483 280.713 107.97V109.474C280.713 109.992 281.133 110.413 281.651 110.413C282.169 110.413 282.589 109.992 282.589 109.474V105.106H294.334V109.474C294.334 109.992 294.754 110.413 295.272 110.413C295.791 110.413 296.211 109.992 296.211 109.474V105.106H296.211V107.959C296.211 108.477 296.631 108.897 297.149 108.897C297.667 108.897 298.087 108.477 298.087 107.959V105.106H299.043C299.519 105.106 299.904 104.721 299.904 104.246C299.904 103.771 299.519 103.386 299.043 103.386H298.087V100.788C298.087 100.269 297.667 99.8494 297.149 99.8494C296.631 99.8494 296.211 100.269 296.211 100.788V103.386H296.211V99.2732C296.211 98.755 295.791 98.335 295.272 98.335C294.754 98.335 294.334 98.755 294.334 99.2732V103.386H282.589V99.2732Z" fill="white"/>
<path fill-rule="evenodd" clip-rule="evenodd" d="M293.524 148.594C294.028 148.681 294.482 148.951 294.799 149.352C295.364 150.036 295.235 150.843 294.475 151.321C294.02 151.607 293.507 151.692 292.982 151.706C292.719 151.713 292.456 151.703 292.193 151.694C292.078 151.689 291.964 151.685 291.849 151.682C291.288 151.616 290.782 151.393 290.287 151.146C289.131 150.551 288.027 149.858 286.987 149.077C286.15 148.461 285.242 147.948 284.283 147.548C283.676 147.287 283.087 146.986 282.519 146.648C282.22 146.466 281.949 146.241 281.715 145.981C281.277 145.512 281.235 144.958 281.538 144.408C281.693 144.133 281.892 143.885 282.126 143.674C282.554 143.301 282.912 142.855 283.185 142.357C283.384 142 283.636 141.675 283.931 141.392C284.373 140.958 284.793 140.973 285.24 141.402C285.506 141.658 285.754 141.934 285.981 142.226C286.379 142.732 286.94 142.889 287.536 142.967C287.622 142.963 287.704 142.931 287.771 142.877C287.906 142.793 288.038 142.703 288.17 142.613C288.397 142.459 288.624 142.305 288.866 142.178C289.629 141.785 289.982 141.935 290.217 142.758C290.322 143.119 290.41 143.485 290.497 143.85C290.571 144.159 290.645 144.468 290.729 144.773C291.068 145.996 291.742 147.04 292.527 148.017C292.773 148.33 293.13 148.536 293.524 148.594ZM292.194 154.682C292.693 154.571 293.215 154.647 293.662 154.897C294.443 155.312 294.629 156.108 294.12 156.824C293.807 157.261 293.365 157.535 292.886 157.748C292.645 157.855 292.398 157.946 292.151 158.037C292.043 158.077 291.935 158.117 291.827 158.158C291.284 158.31 290.733 158.297 290.181 158.257C288.885 158.147 287.6 157.928 286.34 157.601C285.33 157.351 284.295 157.224 283.255 157.221C282.593 157.211 281.934 157.157 281.279 157.06C280.937 157.006 280.605 156.902 280.293 156.751C279.71 156.484 279.459 155.988 279.53 155.363C279.568 155.051 279.657 154.747 279.792 154.463C280.042 153.954 280.201 153.406 280.262 152.843C280.311 152.437 280.42 152.041 280.585 151.667C280.828 151.097 281.222 150.951 281.798 151.178C282.143 151.314 282.477 151.475 282.799 151.66C283.362 151.981 283.938 151.908 284.519 151.753C284.588 151.735 284.647 151.653 284.693 151.588L284.696 151.583C284.783 151.462 284.865 151.337 284.948 151.213C285.104 150.977 285.261 150.741 285.443 150.525C285.993 149.873 286.38 149.878 286.913 150.546C287.148 150.841 287.37 151.147 287.591 151.453C287.776 151.709 287.961 151.965 288.154 152.214C288.936 153.215 289.954 153.924 291.053 154.529C291.399 154.724 291.808 154.779 292.194 154.682Z" fill="white"/>
<path d="M204.729 45.0946C204.729 45.0946 207.434 45.4226 209.042 43.5331C210.651 41.6437 211.511 38.5643 211.67 37.2498C211.829 35.9353 211.095 31.8695 209.739 31.4591C208.384 31.0488 201.321 29.8989 198.856 32.2398C196.392 34.5808 198.105 42.2598 197.701 43.9858C197.296 45.7119 194.934 54.5984 194.441 62.2597C193.949 69.9211 193.702 82.4266 199.062 84.6441C204.423 86.8616 213.354 80.2702 213.354 80.2702L208.866 71.225C208.866 71.225 204.887 73.5554 203.777 73.4319C202.667 73.3085 204.237 47.6201 204.729 45.0946Z" fill="#EBC3BC"/>
<path d="M211.227 200.714C208.912 201.293 204.492 202.403 201.854 203.107C199.05 203.855 192.395 204.851 189.342 205.288C188.935 205.348 188.519 205.263 188.167 205.048C187.816 204.833 187.551 204.502 187.418 204.112C187.398 204.057 187.382 204 187.368 203.943C187.171 203.106 186.961 202.114 186.898 201.448C186.78 200.094 186.59 197.753 188.623 196.582C190.656 195.41 197.987 191.9 199.65 191.222C199.893 191.115 200.087 190.923 200.197 190.682C200.986 189.153 200.08 185.282 200.08 185.124L210.368 184.199L210.244 190.051C210.244 190.051 210.291 190.105 210.368 190.202C210.72 190.645 211.746 191.978 211.847 192.917C211.922 193.622 212.244 196.281 212.479 198.217L212.55 198.787C212.603 199.215 212.497 199.646 212.254 200.001C212.01 200.356 211.645 200.61 211.227 200.714Z" fill="#FF5370"/>
<path d="M210.248 190.048C210.248 190.048 210.295 190.102 210.372 190.198C209.376 190.491 207.568 190.869 204.611 191.013C201.925 191.143 200.731 190.919 200.204 190.678C200.993 189.149 200.086 185.279 200.086 185.12L210.374 184.196L210.248 190.048Z" fill="#EBC3BC"/>
<path d="M211.227 200.714C208.912 201.293 204.492 202.403 201.853 203.107C199.049 203.855 192.394 204.851 189.342 205.288C188.934 205.348 188.519 205.263 188.167 205.048C187.816 204.833 187.55 204.502 187.417 204.112C189.688 203.688 196.392 202.416 200.264 201.479C204.103 200.551 210.314 198.825 212.484 198.217L212.554 198.787C212.607 199.215 212.501 199.648 212.256 200.003C212.011 200.358 211.645 200.611 211.227 200.714Z" fill="#4B4E6F"/>
<path d="M252.121 206.275C252.112 206.886 252.105 208.967 252.101 210.78C252.101 211.155 252.101 211.519 252.101 211.855C252.101 212.377 251.909 212.882 251.563 213.273C251.216 213.665 250.739 213.916 250.22 213.981C247.782 214.28 243.792 214.568 240.932 214.952C238.159 215.32 231.837 215.722 228.621 215.787C228.082 215.798 227.558 215.606 227.154 215.249C226.75 214.892 226.496 214.395 226.443 213.858C226.443 213.83 226.443 213.802 226.434 213.774C226.354 213.079 226.315 212.379 226.317 211.68C226.36 210.319 226.465 207.974 228.626 207.061C230.787 206.149 238.493 203.564 240.227 203.096C240.348 203.063 240.461 203.006 240.56 202.928C241.883 201.899 241.383 197.267 241.404 197.096L251.728 197.442L250.887 203.235C250.887 203.235 252.139 205.128 252.121 206.275Z" fill="#FF5370"/>
<path d="M251.724 197.441L250.883 203.234C250.883 203.234 249.865 203.374 244.361 203.579C242.204 203.659 241.1 203.344 240.557 202.927C241.879 201.898 241.38 197.265 241.401 197.095L251.724 197.441Z" fill="#EBC3BC"/>
<path d="M252.101 210.78C252.101 211.155 252.101 211.518 252.101 211.855C252.101 212.377 251.909 212.882 251.563 213.273C251.216 213.665 250.739 213.916 250.22 213.98C247.782 214.28 243.792 214.568 240.932 214.952C238.159 215.32 231.837 215.722 228.621 215.786C228.082 215.798 227.558 215.606 227.154 215.249C226.75 214.892 226.496 214.395 226.443 213.858C226.443 213.83 226.443 213.802 226.434 213.774C228.816 213.774 234.421 213.711 239.669 213.149C244.521 212.628 249.568 211.342 252.101 210.78Z" fill="#4B4E6F"/>
<path d="M253.852 100.688C253.405 102.113 253.188 103.299 253.328 104.263C253.383 104.691 253.533 105.102 253.766 105.466C254.15 106.054 254.573 106.771 255.007 107.606C256.545 110.573 257.643 113.749 258.268 117.032C258.68 119.187 258.823 121.386 258.695 123.576C258.203 131.219 254.383 153.146 254.137 164.235C253.891 175.323 253.521 196.885 253.521 196.885C253.521 196.885 252.658 199.842 247.36 199.718C247.229 199.718 247.101 199.711 246.976 199.704C241.99 199.469 240.584 197.008 240.584 197.008C240.584 197.008 238.488 167.561 237.997 160.538C237.563 154.349 235.789 137.635 235.374 133.754L235.287 132.94C234.972 133.153 214.828 146.766 214.098 150.433C213.36 154.129 213.981 157.825 213.236 165.095C212.492 172.365 211.384 187.029 211.384 187.029C211.384 187.029 209.774 188.337 206.887 188.412C204.919 188.464 202.358 187.942 199.31 186.044C199.31 186.044 197.586 163.867 197.708 154.01C197.83 144.154 198.29 143.099 203.869 136.268C209.905 128.876 220.872 118.649 222.473 113.598C223.391 110.703 224.354 108.131 225 106.023C225.401 104.73 225.684 103.606 225.771 102.691C225.79 102.498 225.799 102.315 225.799 102.141C225.799 101.823 225.79 101.137 225.775 100.188C225.769 99.828 225.762 99.4306 225.754 99.0014C225.736 97.9538 225.711 96.7157 225.685 95.3706C225.54 87.9844 225.307 77.3813 225.307 77.3813L211.63 83.7881C211.63 83.7881 209.333 82.0162 207.996 77.8951C207.425 76.0934 207.114 74.2196 207.072 72.3302C207.072 72.3302 218.961 65.0603 222.196 63.0274C225.43 60.9945 226.991 60.2973 230.03 59.8858C231.567 59.6788 233.491 59.3661 235.019 59.1074C236.514 58.8546 237.628 58.6535 237.628 58.6535L242.684 56.436L243.731 56.7723L246.347 57.2426C249.404 57.7929 254.526 58.7229 258.458 59.4519C264.433 60.5618 263.324 71.1567 260.122 83.2319C258.025 91.092 255.076 96.7875 253.852 100.688Z" fill="#2F86EB"/>
<path d="M260.911 71.2449C260.911 71.2449 257.308 80.2983 253.242 87.4153C249.176 94.5323 243.263 107.746 234.576 107.375C225.89 107.005 225.151 95.7351 225.151 95.7351L260.911 71.2449Z" fill="#146CD1"/>
<path d="M258.695 123.577C258.203 131.22 254.383 153.147 254.137 164.236C253.891 175.324 253.521 196.886 253.521 196.886C253.521 196.886 252.658 199.843 247.36 199.719C247.229 199.719 247.101 199.712 246.976 199.705C241.99 199.47 240.584 197.009 240.584 197.009C240.584 197.009 238.488 167.562 237.997 160.539C237.563 154.35 235.789 137.636 235.374 133.755L235.287 132.941C234.972 133.154 214.828 146.767 214.098 150.434C213.36 154.13 213.981 157.827 213.236 165.096C212.492 172.366 211.384 187.029 211.384 187.029C211.384 187.029 209.774 188.337 206.887 188.412C204.919 188.464 202.358 187.942 199.31 186.044C199.31 186.044 197.586 163.866 197.708 154.01C197.83 144.153 198.29 143.099 203.869 136.268C209.905 128.875 220.872 118.649 222.473 113.597C223.391 110.703 224.354 108.131 225 106.023C225.401 104.73 225.684 103.606 225.771 102.691L227.125 103.018C227.322 103.189 227.53 103.346 227.749 103.488C229.08 104.377 232.615 106.234 239.036 106.353C242.775 106.424 247.493 105.907 253.323 104.266C253.379 104.695 253.529 105.106 253.762 105.469C254.145 106.057 254.568 106.774 255.002 107.609C256.54 110.577 257.639 113.752 258.264 117.035C258.677 119.19 258.822 121.387 258.695 123.577Z" fill="#64617E"/>
<path d="M258.695 123.578C258.203 131.22 254.383 153.147 254.137 164.236C253.891 175.325 253.521 196.886 253.521 196.886C253.521 196.886 252.658 199.843 247.36 199.72C247.229 199.72 247.101 199.713 246.976 199.706C251.817 192.379 249.948 181.812 250.378 176.865C250.872 171.198 249.023 173.6 244.958 174.956C240.892 176.311 251.241 168.056 252.226 160.355C253.212 152.654 253.951 141.134 255.491 134.235C256.618 129.189 257.744 121.044 258.269 117.033C258.68 119.189 258.823 121.387 258.695 123.578Z" fill="#494763"/>
<path d="M235.282 132.944C234.967 133.156 214.823 146.77 214.093 150.437C213.355 154.132 213.976 157.829 213.231 165.099C212.487 172.369 211.384 187.029 211.384 187.029C211.384 187.029 209.773 188.337 206.887 188.412C211.077 184.312 211.199 166.825 211.691 163.067C212.184 159.309 210.515 150.746 213.169 147.296C215.797 143.872 234.982 133.112 235.282 132.944Z" fill="#494763"/>
<path d="M255.006 107.612C251.174 108.475 243.753 109.943 237.251 110.03C231.02 110.114 226.966 107.642 224.994 106.033C225.395 104.739 225.678 103.615 225.765 102.7C225.784 102.508 225.793 102.324 225.793 102.15C225.793 101.833 225.784 101.146 225.769 100.197L226.121 100.204C233.815 102.858 242.095 103.324 250.038 101.549L253.849 100.698C253.402 102.123 253.184 103.31 253.324 104.274C253.38 104.702 253.53 105.113 253.763 105.476C254.15 106.05 254.573 106.771 255.006 107.612Z" fill="white"/>
<path d="M225.306 77.3746L211.629 83.7814C211.629 83.7814 209.331 82.0095 207.995 77.8884C210.916 77.5357 214.608 76.9736 217.319 76.1623C222.533 74.6021 225.367 67.1489 225.367 67.3334C225.367 67.518 225.234 74.053 225.306 77.3746Z" fill="#146CD1"/>
<path d="M249.14 40.7158C248.999 41.0536 248.85 41.3871 248.694 41.7164C246.248 46.8898 245.049 51.3836 239.823 49.507C234.596 47.6305 227.14 39.1003 227.14 39.1003C227.14 39.1003 222.933 39.1003 219.313 33.794C219.195 33.6164 219.07 33.433 218.95 33.2437C215.255 27.386 218.154 19.3696 224.359 18.971C230.564 18.5724 229.193 21.1309 233.742 20.8522C238.291 20.5736 237.04 23.2967 238.405 23.8093C239.77 24.3219 242.214 24.1503 247.106 27.219C251.68 30.0915 251.224 35.7575 249.14 40.7158Z" fill="#505166"/>
<path d="M249.14 40.716C248.998 41.0538 248.85 41.3873 248.694 41.7166C246.248 46.89 245.049 51.3838 239.823 49.5073C234.596 47.6307 227.14 39.1005 227.14 39.1005C227.14 39.1005 222.933 39.1005 219.312 33.7942C221.311 34.9276 224.612 36.1116 229.534 35.9353C238.692 35.6072 240.786 36.4291 242.511 38.1128C244.091 39.6519 246.08 41.5331 249.14 40.716Z" fill="#2F3042"/>
<path d="M219.915 22.0846C221.494 19.2745 225.952 19.5931 228.601 21.3474C231.25 23.1016 230.326 25.1346 226.132 26.1822C221.938 27.2298 218.375 24.8265 219.915 22.0846Z" fill="#65677F"/>
<path d="M242.639 49.7426C242.639 49.966 243.724 56.7655 243.724 56.7655C243.724 56.7655 242.033 60.4104 239.479 60.4104C237.308 60.4104 237.053 57.538 237.053 57.538L236.7 53.1006L240.051 48.8855L242.639 49.7426Z" fill="#EBC3BC"/>
<path d="M245.819 86.4926C245.819 86.4926 245.392 86.8571 244.662 87.4649C241.08 90.4455 230.197 99.2638 226.661 99.3673C223.711 99.4531 220.14 96.4549 216.832 92.5478C215.351 90.7861 213.964 88.9478 212.676 87.0405C208.487 80.8806 206.886 76.9688 206.886 76.9688C206.886 76.9688 203.006 72.3174 202.08 68.8677C201.155 65.418 204.176 63.8119 206.332 63.3851C208.488 62.9583 210.582 64.4938 211.014 65.6026C211.445 66.7113 212.615 72.6866 213.169 74.5961C213.723 76.5055 223.704 89.258 227.03 88.2115C230.357 87.1651 241.753 78.2316 241.753 78.2316L245.819 86.4926Z" fill="#F9D8D1"/>
<path d="M244.659 87.4647C241.08 90.4453 230.197 99.2636 226.662 99.3671C223.712 99.4529 220.141 96.4547 216.832 92.5476C219.419 94.7816 222.593 97.2683 224.443 97.8209C227.955 98.8686 242.794 88.2772 242.925 84.8228L244.659 87.4647Z" fill="#EBC3BC"/>
<path d="M244.855 43.4509C244.883 47.318 242.04 47.7448 242.04 47.7448C242.04 49.2228 241.301 51.5544 239.424 53.7719C235.274 58.8277 229.36 56.6161 228.052 51.4979C227.978 51.2075 227.908 50.91 227.839 50.5937C227.513 49.097 227.252 47.378 227.053 45.6908C226.781 43.4168 226.612 41.1993 226.516 39.6579C226.434 38.3798 226.398 37.5662 226.398 37.5662C226.398 37.5662 227.848 37.9071 231.885 38.1058C235.923 38.3045 237.23 37.1111 238.908 38.0776C239.795 38.5879 240.229 39.7025 240.437 40.6396C240.55 41.142 240.617 41.6536 240.638 42.1681C240.875 40.1529 244.827 39.585 244.855 43.4509Z" fill="#F9D8D1"/>
<path d="M240.446 40.6396C240.079 40.4715 239.557 40.2387 238.818 39.9201C236.62 38.9794 235.29 39.8166 230.768 39.8378C229.349 39.8548 227.929 39.7947 226.516 39.6579C226.434 38.3798 226.398 37.5662 226.398 37.5662C226.398 37.5662 227.848 37.9071 231.885 38.1058C235.923 38.3045 237.23 37.1111 238.908 38.0776C239.799 38.5938 240.233 39.7025 240.446 40.6396Z" fill="#F1C3BC"/>
<path d="M259.865 76.3892C256.663 81.933 247.852 90.0646 247.852 90.0646C247.852 90.0646 241.571 87.4379 240.333 78.6678C240.286 78.328 240.245 77.98 240.216 77.6214C240.216 77.6214 250.252 63.8966 256.941 62.3928C258.267 62.0941 259.462 62.2752 260.42 63.1441C262.333 64.8736 263.069 70.8442 259.865 76.3892Z" fill="#73AEF2"/>
<path d="M256.939 62.3923C256.156 62.8802 255.412 63.4265 254.712 64.0267C252.083 66.2442 247.648 70.9261 245.188 73.3082C243.7 74.7474 241.694 77.0613 240.338 78.6674C240.291 78.3276 240.25 77.9796 240.22 77.621C240.213 77.621 250.25 63.8962 256.939 62.3923Z" fill="white"/>
<path d="M130.826 74.1302C130.749 75.4718 131.179 76.9121 130.865 79.099C130.403 82.303 127.384 82.1796 127.384 82.1796C127.384 82.1796 115.279 81.1625 111.393 82.4876C107.507 83.8127 103.662 80.9474 102.243 77.6211C101.821 76.6311 101.754 75.8374 101.876 75.1696C102.167 73.5882 103.522 72.7005 103.758 71.5529C104.096 69.9209 102.347 69.52 102.248 66.9674C102.149 64.4148 105.821 63.7928 107.084 62.9933C108.347 62.1937 106.378 59.2978 108.902 57.7575C110.966 56.4983 114.247 57.4424 116.317 57.4906C116.714 57.5164 117.112 57.471 117.493 57.3566C119.218 56.7405 119.773 54.7382 124.054 55.5083C128.335 56.2784 128.489 60.1291 128.489 60.1291C128.489 60.1291 133.074 60.3442 134.095 64.2255C134.095 64.2466 134.106 64.2666 134.11 64.2866C135.085 68.1291 132.582 70.2407 131.385 72.2631C131.046 72.8293 130.854 73.4711 130.826 74.1302Z" fill="#505166"/>
<path d="M130.865 79.0989C130.403 82.3029 127.384 82.1794 127.384 82.1794C127.384 82.1794 115.279 81.1624 111.393 82.4875C107.507 83.8126 103.662 80.9472 102.243 77.621C101.821 76.631 101.754 75.8373 101.876 75.1695C102.112 76.2277 102.638 77.3188 103.724 78.0313C106.475 79.8385 108.529 78.0313 109.802 75.5622C111.076 73.0931 113.58 72.5193 115.346 70.1395C117.112 67.7597 117.933 68.2935 121.425 68.5804C124.917 68.8673 129.89 69.2377 130.665 69.4846C131.404 69.7198 128.826 73.0119 130.822 74.1254C130.749 75.4717 131.18 76.912 130.865 79.0989Z" fill="#2F3042"/>
<path d="M134.114 64.2833C133.408 63.0793 132.285 61.9082 130.854 61.2345C129.108 60.4115 128.082 60.8818 128.082 60.8818C128.082 60.8818 128.041 60.1011 127.548 58.3351C127.055 56.5691 124.767 55.8177 123.4 55.7484C120.508 55.6026 119.683 56.836 118.081 57.699C117.164 58.1928 116.618 57.8589 116.317 57.4838C116.714 57.5095 117.112 57.4641 117.493 57.3498C119.218 56.7337 119.773 54.7313 124.054 55.5014C128.335 56.2716 128.489 60.1222 128.489 60.1222C128.489 60.1222 133.074 60.3374 134.095 64.2186C134.104 64.2433 134.109 64.2633 134.114 64.2833Z" fill="white"/>
<path d="M118.079 59.3448C119.968 59.0567 121.346 56.7369 123.912 57.8257C126.479 58.9144 127.732 62.9179 124.446 63.3906C121.16 63.8633 121.613 64.2524 117.794 64.2936C113.975 64.3348 110.894 62.6475 112.927 60.6381C114.96 58.6287 114.711 59.8586 118.079 59.3448Z" fill="#65677F"/>
<path d="M99.1682 152.748L99.662 156.104C99.662 156.104 100.838 158.846 107.305 157.829C113.771 156.812 121.259 154.655 120.238 147.6L113.677 143.783L101.018 146.37L99.1682 152.748Z" fill="#A8113D"/>
<path d="M124.752 203.402C124.752 203.447 124.752 203.49 124.752 203.535C124.681 205.564 120.989 206.467 118.958 206.424C113.379 206.306 101.98 205.704 96.959 202.875C96.9622 202.069 97.0113 201.264 97.106 200.464C97.3561 198.229 97.8235 196.024 98.5016 193.88C98.745 193.101 99.0284 192.293 99.3576 191.466C99.3576 191.466 99.6445 189.074 100.063 185.704C100.651 180.958 101.486 174.269 102.134 169.568C103.242 161.529 105.46 154.229 105.46 154.229L101.58 151.087C101.58 151.087 103.428 143.327 116.643 145.173L120.246 147.607C120.246 147.607 120.687 148.261 120.952 149.451C121.201 150.57 121.292 152.164 120.71 154.136C119.769 157.311 113.834 176.788 111.175 185.882C110.437 188.411 109.951 190.136 109.897 190.485C109.813 191.038 111.321 192.106 113.39 193.366C117.321 195.758 123.275 198.84 124.163 200.373C124.64 201.21 124.778 202.323 124.752 203.402Z" fill="#F9D8D1"/>
<path d="M113.381 193.36C112.883 193.939 111.815 194.3 109.75 194.237C104.107 194.078 100.048 194.645 98.4983 193.884C98.7417 193.106 99.025 192.298 99.3543 191.47C99.3543 191.47 99.6411 189.079 100.06 185.709C100.949 186.283 102.456 186.914 104.779 186.914C106.951 186.912 109.108 186.564 111.17 185.884C110.431 188.413 109.946 190.138 109.892 190.487C109.803 191.032 111.312 192.101 113.381 193.36Z" fill="#FB8500"/>
<path d="M124.752 203.402C124.752 203.447 124.752 203.49 124.752 203.535C124.681 205.564 120.989 206.467 118.958 206.424C113.379 206.306 101.98 205.704 96.959 202.875C96.9622 202.069 97.0113 201.264 97.106 200.464C97.3561 198.229 97.8235 196.024 98.5016 193.879C98.745 193.101 99.0284 192.293 99.3576 191.466C99.3576 191.466 106.072 195.531 109.891 190.48C109.807 191.033 111.315 192.102 113.385 193.361C117.315 195.754 123.269 198.835 124.157 200.368C124.64 201.21 124.778 202.323 124.752 203.402Z" fill="#53647A"/>
<path d="M124.752 203.402C124.752 203.447 124.752 203.49 124.752 203.535C124.681 205.564 120.989 206.467 118.958 206.424C113.379 206.306 101.98 205.704 96.959 202.875C96.9622 202.069 97.0113 201.264 97.106 200.464C97.5857 201.334 98.5169 202.064 100.163 202.431C106.242 203.785 115.298 204.746 119.958 204.443C123.058 204.24 124.157 203.943 124.752 203.402Z" fill="#1E3247"/>
<path opacity="0.49" d="M120.942 149.447C117.405 149.232 112.863 149.846 110.176 150.919C106.603 152.347 105.453 154.225 105.453 154.225L101.573 151.084C101.573 151.084 103.421 143.324 116.636 145.17L120.239 147.603C120.239 147.603 120.679 148.257 120.942 149.447Z" fill="#EBC3BC"/>
<path d="M66.7349 151.821C67.1969 152.097 67.0123 156.102 67.0123 156.102C67.0123 156.102 68.3974 160.229 75.7907 160.784C83.184 161.339 90.7806 157.95 90.0517 154.746C89.3227 151.542 85.4932 148.397 85.4932 148.397L70.5267 148.773L66.7349 151.821Z" fill="#A8113D"/>
<path d="M88.8688 214.997C88.8523 215.568 88.8265 215.859 88.8265 215.859C88.8265 215.859 87.9634 217.831 83.1581 217.831C78.3527 217.831 75.2733 215.49 75.2733 215.49C75.2733 215.49 68.127 209.33 68.127 206.497C68.127 206.13 68.1481 205.744 68.1881 205.344C68.3574 203.581 68.8606 201.582 69.2992 200.042C69.5344 199.237 69.7436 198.561 69.8871 198.119C70.0423 197.624 70.1857 195.361 70.3068 192.457C70.542 186.682 70.689 178.376 70.6266 176.37C70.5338 173.354 71.2545 163.098 72.7524 157.923L70.0564 152.377C71.2029 151.955 72.3705 151.593 73.5543 151.292C76.6795 150.479 81.3274 149.669 85.0499 150.683C85.0499 150.683 88.1998 152.285 87.3368 157.705C86.8382 160.845 83.9564 173.277 81.8576 183.595C81.0863 187.388 80.4208 190.895 80.0176 193.55C79.6895 195.719 79.5355 197.32 79.6448 198.04C79.6563 198.152 79.6882 198.261 79.7389 198.361C80.1163 199.002 81.1004 200.278 82.2892 201.815C84.9852 205.297 88.7301 210.119 88.8159 211.915C88.8864 213.304 88.8817 214.338 88.8688 214.997Z" fill="#F9D8D1"/>
<path d="M82.2935 201.817L69.293 200.04C69.5281 199.236 69.7374 198.56 69.8809 198.118C70.0361 197.623 70.1795 195.36 70.3006 192.456C71.1742 192.926 72.9085 193.631 75.7092 193.866C77.1578 194.002 78.6188 193.895 80.0325 193.551C79.7045 195.721 79.5504 197.321 79.6598 198.042C79.6712 198.154 79.7031 198.262 79.7538 198.363C80.1207 199.005 81.1083 200.28 82.2935 201.817Z" fill="#FB8500"/>
<path d="M88.8688 214.997C88.8523 215.568 88.8265 215.859 88.8265 215.859C88.8265 215.859 87.9634 217.831 83.1581 217.831C78.3527 217.831 75.2733 215.49 75.2733 215.49C75.2733 215.49 68.127 209.33 68.127 206.497C68.127 206.13 68.1481 205.744 68.1881 205.344C68.3574 203.581 68.8606 201.582 69.2992 200.042C69.5344 199.237 69.7436 198.561 69.8871 198.119C69.8871 198.119 77.8824 201.635 79.6601 198.044C79.6716 198.156 79.7035 198.265 79.7542 198.365C80.1316 199.006 81.1157 200.281 82.3044 201.818C85.0005 205.301 88.7453 210.123 88.8312 211.918C88.8864 213.304 88.8817 214.338 88.8688 214.997Z" fill="#53647A"/>
<path d="M88.8688 214.998C88.8523 215.568 88.8265 215.859 88.8265 215.859C88.8265 215.859 87.9635 217.831 83.1581 217.831C78.3527 217.831 75.2733 215.49 75.2733 215.49C75.2733 215.49 68.127 209.33 68.127 206.497C68.127 206.13 68.1481 205.744 68.1881 205.344C69.084 206.999 71.4803 211.212 75.0676 213.56C79.5849 216.517 83.1581 216.805 86.2797 216.065C87.5037 215.775 88.3221 215.374 88.8688 214.998Z" fill="#1E3247"/>
<path opacity="0.49" d="M87.3399 157.706C86.8414 160.845 83.9596 173.278 81.8608 183.595L81.3564 185.541C81.3564 185.541 83.7256 168.217 85.053 164.439C86.3805 160.662 86.6004 156.43 83.5245 155.158C80.4487 153.886 73.7656 154.623 73.7656 154.623L73.5669 151.289C76.6921 150.477 81.3399 149.667 85.0624 150.68C85.0542 150.683 88.2041 152.291 87.3399 157.706Z" fill="#EBC3BC"/>
<path d="M120.236 147.602C120.13 147.533 115.726 144.663 109.453 146.371C107.792 146.823 106.362 147.729 105.15 148.817C101.729 151.883 100.026 156.377 99.6623 156.107C99.1697 155.737 89.3237 151.548 89.3237 151.548L90.0515 154.751C90.0515 154.751 85.6165 152.041 77.4848 152.41C69.3532 152.779 67.0122 156.107 67.0122 156.107C67.0122 156.107 66.7547 155.808 66.3067 155.276C63.3673 151.808 52.1974 138.424 50.3832 133.19C48.288 127.153 53.3391 121.608 53.3391 121.608L84.0363 127.712L94.8534 129.863C94.8534 129.863 95.6882 130.364 98.4442 131.928C99.7869 132.69 101.588 133.705 103.97 135.038C111.175 139.064 120.07 147.445 120.236 147.602Z" fill="#E83660"/>
<path d="M105.15 148.817C101.729 151.883 100.026 156.377 99.6623 156.106C99.1696 155.737 89.3237 151.548 89.3237 151.548L90.0515 154.751C90.0515 154.751 85.6165 152.041 77.4848 152.41C69.3532 152.779 67.0122 156.106 67.0122 156.106C67.0122 156.106 66.7547 155.808 66.3067 155.276C67.0992 153.176 67.6506 149.624 66.7382 143.785C64.8899 131.958 60.2715 129.648 60.2715 129.648C60.2715 129.648 80.3584 127.808 84.0374 127.711L94.8545 129.863C94.8545 129.863 95.6894 130.364 98.4454 131.928C96.757 134.108 94.4771 138.221 97.6882 141.753C100.288 144.607 103.213 146.804 105.15 148.817Z" fill="#CC1B4E"/>
<path d="M151.838 197.926C164.423 197.926 174.625 186.053 174.625 171.406C174.625 156.759 164.423 144.885 151.838 144.885C139.254 144.885 129.052 156.759 129.052 171.406C129.052 186.053 139.254 197.926 151.838 197.926Z" fill="#4B4E6F"/>
<path d="M170.329 171.406C170.329 186.052 160.128 197.927 147.542 197.927C139.39 197.927 132.238 192.944 128.21 185.452C126.021 181.379 124.756 176.565 124.756 171.406C124.756 156.759 134.959 144.884 147.54 144.884C149.678 144.884 151.803 145.229 153.831 145.908C163.359 149.086 170.329 159.299 170.329 171.406Z" fill="#625F7E"/>
<path opacity="0.21" d="M170.329 171.406C170.329 186.052 160.128 197.927 147.542 197.927C139.39 197.927 132.238 192.944 128.21 185.452C137.727 186.502 150.644 185.249 155.536 173.353C160.785 160.592 157.105 151.064 153.834 145.909C163.359 149.086 170.329 159.299 170.329 171.406Z" fill="#45445E"/>
<path d="M149.5 175.201L27.6472 188.304L27.1463 185.657L26.4773 182.13L148.533 169.314C148.533 169.314 150.639 168.771 151.238 171.603C151.256 171.691 151.274 171.783 151.289 171.878C151.778 174.893 149.5 175.201 149.5 175.201Z" fill="#424669"/>
<path d="M149.5 175.201L27.6471 188.304L27.1462 185.657L151.234 171.6C151.253 171.688 151.27 171.78 151.286 171.875C151.778 174.893 149.5 175.201 149.5 175.201Z" fill="#292E4F"/>
<path d="M27.0827 210.871C39.6673 210.871 49.8692 198.997 49.8692 184.35C49.8692 169.703 39.6673 157.829 27.0827 157.829C14.498 157.829 4.29614 169.703 4.29614 184.35C4.29614 198.997 14.498 210.871 27.0827 210.871Z" fill="#4B4E6F"/>
<path d="M45.5742 184.35C45.5742 198.996 35.372 210.871 22.7877 210.871C15.1475 210.871 8.39151 206.494 4.25631 199.792C1.57671 195.442 0 190.114 0 184.356C0 169.709 10.2022 157.835 22.7877 157.835C25.8098 157.837 28.792 158.526 31.5096 159.848C39.7671 163.827 45.5742 173.299 45.5742 184.35Z" fill="#625F7E"/>
<path opacity="0.21" d="M45.5743 184.35C45.5743 198.997 35.3721 210.871 22.7877 210.871C15.1476 210.871 8.39155 206.494 4.25635 199.793C13.2522 199.952 28.9782 197.641 32.8277 186.106C36.1775 176.054 33.7824 165.984 31.5155 159.848C39.7671 163.827 45.5743 173.299 45.5743 184.35Z" fill="#45445E"/>
<path d="M21.8717 188.103L10.4667 189.285C10.3138 189.3 10.1621 189.308 10.0128 189.308C9.88818 189.308 9.76473 189.308 9.64245 189.292C9.00736 189.241 8.39275 189.043 7.84704 188.714C7.1751 188.323 6.6692 187.699 6.42435 186.961C6.38509 186.851 6.35327 186.738 6.32911 186.624C6.01636 184.86 7.49548 183.214 9.58954 183.019L21.071 181.919C22.2703 181.802 23.3485 182.546 23.4649 183.566L23.6283 184.976L23.7576 186.103C23.8764 187.094 23.0369 187.983 21.8717 188.103Z" fill="#424669"/>
<path d="M21.8716 188.103L10.4666 189.284C10.3138 189.3 10.1621 189.308 10.0128 189.308C9.88815 189.308 9.76469 189.308 9.64241 189.291C9.07804 189.117 8.46664 188.918 7.847 188.714C7.17506 188.323 6.66917 187.699 6.42432 186.961L23.633 184.978L23.7623 186.104C23.8763 187.094 23.0368 187.983 21.8716 188.103Z" fill="#292E4F"/>
<path d="M124.765 117.522C124.765 117.522 128.057 136.404 128.245 138.53C128.433 140.656 127.507 164.897 127.753 165.882C127.998 166.867 131.515 176.036 130.283 177.268C129.051 178.501 121.962 180.194 120.237 179.013C118.512 177.833 117.157 175.122 116.911 174.014C116.665 172.905 119.873 168.223 120.237 166.371C120.602 164.519 118.328 141.357 118.328 139.005C118.328 136.653 114.188 118.257 114.188 118.257L124.765 117.522Z" fill="#F9D8D1"/>
<path d="M126.244 123.177C126.244 123.177 124.59 125.672 119.503 125.763C116.839 125.812 115.14 125.302 114.125 124.806C113.201 124.356 112.845 123.915 112.845 123.915L111.552 116.338L110.505 117.279L107.638 119.866L95.7528 130.565C95.7528 130.565 87.0662 138.973 76.1632 137.218C71.1744 136.415 65.8364 134.161 61.4872 131.606C56.3314 128.577 52.5642 125.127 52.4149 123.172C52.1374 119.568 58.0516 113.1 65.5365 106.17C73.0215 99.2402 89.0685 84.3008 103.175 88.3972L113.546 93.1403L115.004 93.5106C116.164 93.9259 117.283 94.4495 118.345 95.0744C119.482 95.7458 120.675 96.6276 121.508 97.7034C121.875 98.1657 122.164 98.6843 122.365 99.239C122.906 100.786 123.675 105.235 124.385 109.88C125.274 115.696 126.072 121.828 126.222 122.979C126.236 123.111 126.244 123.177 126.244 123.177Z" fill="#FB8500"/>
<path d="M124.383 109.885C122.636 112.139 121.038 114.731 119.273 117.474C117.745 119.845 116.099 122.329 114.126 124.808C113.201 124.357 112.845 123.916 112.845 123.916L111.552 116.34L110.505 117.28L107.638 119.867L95.7529 130.566C95.7529 130.566 87.0663 138.974 76.1633 137.219C71.1745 136.416 65.8365 134.162 61.4873 131.607C63.8612 130.12 66.4949 128.147 68.7701 125.668C74.6419 119.272 81.245 105.432 81.245 105.432C81.245 105.432 90.3937 112.362 90.8558 116.983C91.3179 121.604 99.9093 119.94 107.581 113.286C108.23 112.723 108.855 112.144 109.454 111.549C112.124 108.906 114.275 106.014 115.803 103.264C117.513 100.168 118.42 97.252 118.35 95.0757C119.487 95.7471 120.679 96.6289 121.513 97.7047C121.88 98.167 122.169 98.6856 122.37 99.2403C122.904 100.792 123.672 105.238 124.383 109.885Z" fill="#D16F00"/>
<path d="M126.244 123.177C126.244 123.177 124.59 125.672 119.503 125.763C116.839 125.812 115.14 125.302 114.125 124.806C113.201 124.356 112.845 123.915 112.845 123.915L111.552 116.338L110.505 117.279C113.763 113.499 115.291 111.939 117.246 109.596C118.102 108.572 119.039 107.399 120.238 105.825C122.463 102.904 122.177 99.8281 121.506 97.7117C121.872 98.174 122.162 98.6925 122.363 99.2472C122.904 100.795 123.673 105.244 124.383 109.888C125.272 115.705 126.07 121.836 126.219 122.987C126.236 123.111 126.244 123.177 126.244 123.177Z" fill="#FFAB4C"/>
<path d="M126.244 123.177C126.244 123.177 124.59 125.672 119.503 125.763C116.839 125.812 115.14 125.302 114.125 124.806C113.201 124.356 112.845 123.915 112.845 123.915L111.552 116.338L110.505 117.279C113.763 113.499 115.291 111.939 117.246 109.596C117.363 112.086 117.848 114.929 119.152 117.26C119.192 117.332 119.232 117.402 119.269 117.472C121.523 121.324 124.66 121.81 126.216 122.981C126.236 123.111 126.244 123.177 126.244 123.177Z" fill="#D16F00"/>
<path d="M89.8666 115.082C89.8666 115.082 89.3963 115.898 88.6473 117.221C85.7079 122.395 78.4028 135.313 77.4233 137.761C76.1911 140.835 73.7267 169.795 73.8502 170.533C73.9736 171.272 74.9589 177.434 74.4663 179.281C73.9736 181.128 71.1388 185.566 69.7843 185.683C69.4422 185.714 68.7261 185.784 67.8349 185.858C65.2012 186.078 61.0671 186.329 60.7897 185.683C60.4205 184.821 63.0072 182.85 63.2588 179.769C63.5104 176.689 61.775 175.219 61.8984 172.75C62.0219 170.281 65.4704 167.823 65.4704 167.823C65.4704 167.823 66.5192 137.788 67.5656 134.314C68.6121 130.839 79.5174 109.669 79.5174 109.669L89.8666 115.082Z" fill="#F9D8D1"/>
<path d="M77.4234 137.761C76.1912 140.835 73.7268 169.795 73.8502 170.533C73.9737 171.272 74.959 177.434 74.4663 179.281C73.9737 181.128 71.1389 185.566 69.7844 185.683C69.4422 185.714 68.7262 185.784 67.835 185.859C70.4299 181.633 72.3711 172.258 72.3711 169.837C72.3711 167.251 73.7573 147.38 74.2194 141.654C74.6815 135.928 78.0995 130.657 80.9648 125.205C83.8302 119.753 80.5957 116.335 80.5957 116.335L88.6474 117.217C85.7079 122.391 78.404 135.313 77.4234 137.761Z" fill="#EBC3BC"/>
<path d="M95.6095 106.861C93.2991 113.976 91.6354 118.874 91.6354 118.874C91.6354 118.874 87.0499 120.442 82.7854 118.882C80.2751 117.966 77.8741 115.967 76.5737 111.934C76.5737 111.934 84.7971 93.3698 91.6354 92.1681C94.1187 91.7319 95.6225 92.943 96.3703 95.0159C97.4367 97.9706 96.9664 102.674 95.6095 106.861Z" fill="#FFAB4C"/>
<path d="M95.6093 106.86C93.2989 113.976 91.6352 118.873 91.6352 118.873C91.6352 118.873 87.0497 120.442 82.7852 118.881C86.4079 115.308 89.5169 111.25 92.0232 106.821C94.0795 103.137 95.5473 99.1533 96.3736 95.0154C97.4365 97.9701 96.9662 102.673 95.6093 106.86Z" fill="#D16F00"/>
<path opacity="0.69" d="M127.678 87.7589C127.678 87.7589 129.795 88.2468 134.467 87.3474C134.467 87.3474 133.843 85.104 135.74 84.6678C137.636 84.2316 137.687 85.4908 137.687 85.4908C137.687 85.4908 138.586 84.1669 140.217 85.3497C141.848 86.5326 140.406 88.0858 139.444 88.0352C139.444 88.0352 140.326 88.6972 139.722 89.7765C139.118 90.8559 138.293 91.0816 137.45 90.5514C137.45 90.5514 135.687 91.1145 134.616 89.4426C134.616 89.4449 130.74 90.1257 127.678 87.7589Z" fill="white"/>
<path d="M115.002 93.5155C114.941 93.7001 112.781 98.9052 109.453 97.3038C106.126 95.7024 103.173 88.4021 103.173 88.4021H105.76C107.084 88.4021 108.112 86.4667 108.799 84.5773C109.215 83.4119 109.55 82.2196 109.804 81.0088L112.536 80.7019L115.74 86.5537C115.74 86.5537 114.261 89.7565 113.707 90.6196C113.693 90.6414 113.68 90.6642 113.669 90.6878C113.25 91.5755 115.062 93.3344 115.002 93.5155Z" fill="#F9D8D1"/>
<path d="M115.741 86.5537C115.741 86.5537 114.262 89.7565 113.708 90.6196C113.694 90.6414 113.681 90.6642 113.67 90.6878C112.654 89.7366 111.843 88.5884 111.285 87.3133C110.772 86.1584 109.9 85.1992 108.8 84.5773C109.215 83.4119 109.551 82.2196 109.804 81.0088L112.537 80.7019L115.741 86.5537Z" fill="#EBC3BC"/>
<path d="M128.845 71.3062C128.845 71.3062 128.833 71.8658 128.799 72.7935C128.736 74.616 128.592 77.8576 128.309 81.0839C128.181 82.5548 128.022 84.0233 127.829 85.3508C127.78 85.6859 127.729 86.0081 127.674 86.3161C126.791 91.2673 125.047 92.7111 120.436 92.1891C115.539 91.6341 113.321 86.3678 112.766 83.1356C112.766 83.1356 109.368 82.6324 109.451 78.5666C109.533 74.5007 113.475 75.7741 113.475 75.7741C113.475 75.7741 113.872 75.1004 114.432 74.2233C115.201 73.0228 116.283 71.4402 117.09 70.6818C118.485 69.3673 117.828 71.0099 120.128 70.2703C122.428 69.5307 125.656 72.3385 128.845 71.3062Z" fill="#F9D8D1"/>
<path d="M128.845 71.3063C128.845 71.3063 128.833 71.866 128.799 72.7937C128.289 72.8313 127.573 72.8454 126.576 72.816C122.305 72.6984 121.99 70.8854 119.147 71.7073C117.355 72.2258 115.533 73.4157 114.432 74.2222C115.201 73.0218 116.283 71.4392 117.089 70.6808C118.485 69.3663 117.828 71.0088 120.128 70.2693C122.427 69.5297 125.656 72.3386 128.845 71.3063Z" fill="#EBC3BC"/>
<path d="M274.096 103.386H267.689" stroke="#2959A5" stroke-width="2" stroke-linecap="round" stroke-linejoin="round" stroke-dasharray="9 20"/>
</svg>
