<svg width="390" height="312" viewBox="0 0 390 312" fill="none" xmlns="http://www.w3.org/2000/svg">
<g filter="url(#filter0_d_601_16374)">
<circle cx="195" cy="89" r="53" fill="#E1E7F0"/>
</g>
<g clip-path="url(#clip0_601_16374)" filter="url(#filter1_d_601_16374)">
<path d="M95.6783 297.507C144.031 297.507 183.229 258.432 183.229 210.232C183.229 162.032 144.031 122.958 95.6783 122.958C47.3256 122.958 8.12793 162.032 8.12793 210.232C8.12793 258.432 47.3256 297.507 95.6783 297.507Z" fill="#CCE3FF"/>
<path d="M102.509 172.398C102.509 172.398 102.532 172.486 102.577 172.649C102.623 172.811 102.678 173.051 102.783 173.347C102.887 173.643 103.014 173.997 103.187 174.4C103.36 174.802 103.578 175.238 103.839 175.699C104.45 176.756 105.122 177.777 105.853 178.756C106.638 179.844 107.505 180.998 108.3 182.222C108.701 182.83 109.072 183.467 109.415 184.107C109.751 184.739 110.05 185.389 110.311 186.056C110.556 186.692 110.759 187.343 110.92 188.005C111.064 188.597 111.173 189.197 111.246 189.801C111.308 190.367 111.347 190.886 111.354 191.348C111.36 191.809 111.354 192.209 111.354 192.54C111.308 193.19 111.275 193.576 111.275 193.576C111.265 193.698 111.23 193.817 111.173 193.926C111.116 194.034 111.038 194.13 110.944 194.209C110.849 194.288 110.741 194.347 110.623 194.384C110.506 194.42 110.383 194.433 110.26 194.423C110.138 194.412 110.019 194.377 109.91 194.32C109.801 194.263 109.704 194.186 109.626 194.092C109.547 193.998 109.487 193.889 109.45 193.772C109.414 193.656 109.4 193.533 109.411 193.411C109.411 193.391 109.411 193.372 109.411 193.352V193.313L109.558 192.387C109.581 192.092 109.646 191.738 109.656 191.322C109.666 190.906 109.688 190.441 109.675 189.931C109.651 189.387 109.596 188.845 109.509 188.307C109.412 187.697 109.274 187.093 109.098 186.501C108.907 185.86 108.678 185.23 108.411 184.617C108.137 183.983 107.831 183.35 107.492 182.729C106.821 181.482 106.055 180.267 105.354 179.113C104.7 178.065 104.105 176.98 103.575 175.865C103.347 175.371 103.167 174.906 103.021 174.491C102.874 174.075 102.77 173.708 102.695 173.399C102.62 173.09 102.574 172.85 102.545 172.684L102.509 172.398Z" fill="#6F8137"/>
<path d="M172.36 252.37L172.099 252.045L169.818 249.219C169.069 248.277 168.254 247.338 167.472 246.399L166.285 244.986L164.946 243.482L160.204 238.2L160.159 238.151C154.898 232.292 147.517 228.757 139.641 228.322C131.765 227.888 124.039 230.59 118.161 235.835C112.284 241.079 108.737 248.436 108.302 256.287C107.866 264.139 110.577 271.841 115.838 277.7C117.283 279.293 118.889 280.732 120.632 281.994C120.632 281.994 123.812 285.522 128.841 291.029C147.338 283.456 162.691 269.819 172.36 252.37Z" fill="white"/>
<path d="M19.2278 252.779C25.5281 264.027 34.2482 273.745 44.762 281.236C55.2759 288.727 67.3229 293.804 80.0384 296.105C92.7539 298.405 105.823 297.871 118.306 294.54C130.79 291.21 142.38 285.166 152.243 276.842L150.884 245.98C150.884 245.98 126.863 200.548 38.7616 224.952C29.6497 229.889 23.3959 239.856 19.2278 252.779Z" fill="white"/>
<path d="M21.7665 220.504L17.5299 222.544C16.1775 223.194 14.5741 224.039 12.7198 224.981C11.791 225.445 10.8296 225.988 9.80309 226.534L9.69556 226.595C13.1693 244.771 22.3578 261.372 35.9297 273.993C36.9074 273.668 37.8068 273.343 38.5792 273.122L41.9717 272.07L42.2226 271.995C43.4965 271.593 44.7401 271.101 45.9443 270.524C52.5995 267.326 57.708 261.624 60.1459 254.672C62.5838 247.72 62.1515 240.088 58.9441 233.453C55.7366 226.819 50.0167 221.727 43.0427 219.296C36.0688 216.866 28.4119 217.297 21.7567 220.495L21.7665 220.504Z" fill="white"/>
<path d="M88.3556 122.178C88.2593 122.178 88.1639 122.159 88.0749 122.122C87.986 122.086 87.9053 122.032 87.8374 121.963C82.5483 116.691 75.7209 113.952 68.6099 114.254C62.8417 114.498 57.5753 116.798 54.5217 120.411C54.3952 120.555 54.217 120.644 54.0253 120.658C53.8337 120.673 53.6439 120.612 53.497 120.488C53.35 120.365 53.2576 120.189 53.2396 119.998C53.2215 119.807 53.2794 119.617 53.4007 119.468C56.7117 115.551 62.3757 113.052 68.548 112.792C76.0696 112.468 83.2815 115.365 88.864 120.914C88.9664 121.016 89.0361 121.146 89.0644 121.288C89.0926 121.43 89.0781 121.577 89.0227 121.71C88.9672 121.844 88.8733 121.958 88.7529 122.038C88.6324 122.118 88.4908 122.161 88.3458 122.162L88.3556 122.178Z" fill="#84B8FF"/>
<path d="M106.664 193.047L112.729 174.351C112.279 176.664 132.452 202.289 115.251 214.65L106.664 193.047Z" fill="#2E353D"/>
<path d="M49.3953 203.855C49.5321 202.932 52.5955 201.74 54.88 202.084C57.1645 202.429 54.2608 209.378 54.2608 209.378L49.5973 207.207L49.3953 203.855Z" fill="#84B8FF"/>
<path d="M110.434 161.564C118.399 137.385 122.251 121.762 107.456 117.526C107.088 105.889 100.469 100.009 91.2754 101.127C73.0255 103.349 75.46 116.996 42.9329 125.462C38.2726 124.078 35.5124 127.255 36.1935 131.281C37.3341 138.018 44.7285 148.557 44.1126 154.424L110.434 161.564Z" fill="#2E353D"/>
<path d="M85.5952 206.529C85.5952 206.529 100.332 208.822 104.617 212.272C99.061 215.443 104.943 239.736 89.7177 266.199L87.6744 240.1L85.5952 206.529Z" fill="white"/>
<path d="M45.9997 163.124C46.9415 165.528 53.0291 188.823 45.8628 195.363C65.5172 198.18 63.3337 168.698 63.3337 168.698L45.9997 163.124Z" fill="#2E353D"/>
<path d="M47.1858 225.072C50.0764 216.486 55.4634 195.613 51.0476 168.939L93.2438 205.973C91.2885 215.752 95.2285 226.709 99.7616 236.79L89.7177 266.193C89.7177 266.193 81.0295 249.687 66.3123 238.986L47.1858 225.072Z" fill="#FFAD94"/>
<path d="M93.2307 205.97L63.2488 181.111L53.1462 178.837C59.3936 208.348 72.6996 221.069 96.2517 228.259C93.7 221.014 91.8848 212.698 93.2307 205.97Z" fill="#CE5F49"/>
<path d="M50.9206 166.515C50.8554 170.466 53.4788 182.047 58.3639 187.687C64.1843 194.405 79.2372 207.042 93.1951 205.931C97.4316 205.606 112.504 194.382 113.263 187.248C115.176 169.361 112.455 129.747 110.526 126.69L59.4263 122.954C59.4263 122.954 51.5561 129.273 50.9206 166.515Z" fill="#FFAD94"/>
<path d="M113.593 156.776C113.192 140.809 110.728 127.538 109.682 125.881L63.236 122.958L57.9729 136.55C82.4179 141.231 86.6186 157.575 113.593 156.776Z" fill="#CE5F49"/>
<path d="M112.722 142.215C99.175 149.687 74.6876 124.091 63.9202 129.546C51.3767 135.894 58.9993 158.53 60.0096 163.039C60.0096 163.039 54.1892 152.803 49.1965 151.344L55.1668 125.891L75.1765 112.182C75.1765 112.182 102.007 112.676 107.844 115.431C122.584 115.947 126.403 134.672 112.722 142.215Z" fill="#2E353D"/>
<path d="M74.6388 215.816C91.4873 238.443 89.7177 266.206 89.7177 266.206C78.6766 249.232 65.1782 239.934 65.1782 239.934L74.6388 215.816Z" fill="white"/>
<path d="M71.2202 232.082C76.9233 243.074 90.4477 271.651 91.7513 285.685C93.7066 277.888 108.372 237.93 106.905 221.362" stroke="#FFB342" stroke-width="2"/>
<path d="M100.228 234.857C98.8948 243.907 96.2453 254.849 89.7178 266.19C93.0353 257.899 94.6974 244.245 94.4464 233.703L100.228 234.857Z" fill="white"/>
<path d="M50.2655 171.135L50.347 172.022C50.3698 172.324 50.3992 172.694 50.4317 173.116C50.4643 173.539 50.4806 174.006 50.4839 174.526C50.4839 174.783 50.4839 175.053 50.4839 175.329C50.4839 175.605 50.4839 175.897 50.4578 176.193C50.4317 176.488 50.4252 176.791 50.4057 177.099C50.3861 177.408 50.3666 177.726 50.3242 178.045C50.2818 178.363 50.2525 178.694 50.2036 179.019C50.1547 179.344 50.0961 179.669 50.0407 179.994C49.9853 180.319 49.9071 180.643 49.8386 180.968L49.7311 181.462L49.5975 181.953C49.5095 182.278 49.428 182.602 49.3302 182.927C49.2325 183.252 49.1217 183.561 49.0043 183.873C48.887 184.184 48.7827 184.49 48.6785 184.792C48.5742 185.094 48.4536 185.386 48.333 185.672C48.0723 186.241 47.8507 186.793 47.59 187.297C47.3293 187.8 47.1044 188.271 46.86 188.707L46.2082 189.866C46.0029 190.207 45.8106 190.493 45.6607 190.734L45.1816 191.484L45.488 190.649C45.5825 190.383 45.7063 190.064 45.8334 189.694C45.9605 189.324 46.0811 188.898 46.2245 188.437C46.3679 187.976 46.482 187.462 46.6254 186.946C46.7687 186.429 46.86 185.844 46.9838 185.269C47.0392 184.977 47.0783 184.678 47.124 184.379C47.1696 184.08 47.225 183.778 47.2478 183.47C47.2706 183.161 47.3064 182.856 47.339 182.547C47.3716 182.239 47.3716 181.927 47.3879 181.618L47.4075 181.153V180.692C47.4075 180.384 47.4075 180.078 47.4075 179.776L47.3586 178.883C47.339 178.59 47.2999 178.298 47.2739 178.015C47.2478 177.733 47.2054 177.453 47.1663 177.184C47.1272 176.914 47.0914 176.648 47.0392 176.391C46.9871 176.134 46.9414 175.887 46.8958 175.647L46.7361 174.955C46.6384 174.513 46.5145 174.11 46.4103 173.756C46.306 173.402 46.2147 173.107 46.1365 172.853L45.866 172.005C45.7644 171.721 45.7213 171.419 45.7393 171.117C45.7573 170.816 45.8359 170.521 45.9705 170.25C46.1051 169.98 46.293 169.739 46.523 169.542C46.7529 169.345 47.0202 169.197 47.309 169.105C47.5977 169.014 47.902 168.981 48.2037 169.009C48.5054 169.037 48.7983 169.125 49.0651 169.269C49.3318 169.412 49.5669 169.607 49.7564 169.843C49.9458 170.079 50.0857 170.35 50.1678 170.641C50.2167 170.792 50.2484 170.948 50.2623 171.105L50.2655 171.135Z" fill="#2E353D"/>
<path d="M96.1931 227.362C130.001 217.564 111.08 195.675 108.293 194.09C104.969 196.11 98.9762 197.663 94.0064 195.064L83.4182 202.016C86.7553 209.43 101.143 218.99 96.1931 227.362Z" fill="#2E353D"/>
<path d="M98.3733 177.174C92.8332 178.668 73.723 182.167 80.9448 190.669L84.3373 194.408C86.0775 185.552 98.6569 187.911 101.179 185.409C102.809 186.059 116.291 188.521 112.686 193.667C116.011 192.368 118.432 189.515 116.271 184.925C115.01 182.222 108.127 176.833 98.3733 177.174Z" fill="#2E353D"/>
<path d="M35.6689 217.311C35.6689 217.311 44.468 210.164 49.3955 203.855C50.7707 208.806 74.6389 215.816 74.6389 215.816C74.6389 215.816 70.6663 245.99 66.3319 256.869L35.6689 217.311Z" fill="white"/>
<path d="M59.9966 163.033C59.9966 163.033 54.8671 150.987 48.3037 152.004C32.5469 154.447 44.2333 177.905 53.2474 179.789C56.1316 180.393 58.1749 178.188 58.1749 178.188L59.9966 163.033Z" fill="#E27960"/>
<path d="M53.2473 179.789C49.5712 179.022 45.4553 174.669 42.9329 169.614C48.2481 179.864 56.4475 176.112 58.6831 174.351L59.4262 177.976C59.4262 177.976 56.1314 180.406 53.2473 179.789Z" fill="#FFAD94"/>
<path d="M58.09 155.272C58.8754 159.784 59.2176 168.939 65.2596 174.764C67.7168 177.122 71.6959 179.734 75.4404 181.553C74.2835 190.292 80.0908 199.317 93.9933 195.084C95.525 198.355 102.594 215.287 92.5333 224.344C91.8261 214.056 57.9597 210.164 52.4489 197.205C47.1857 184.857 55.7599 155.684 55.7599 155.684L58.09 155.272Z" fill="#2E353D"/>
<path d="M49.2553 155.551C46.4233 154.45 42.4116 155.652 40.981 157.637C41.8511 154.804 44.0476 151.942 48.522 151.659C55.1506 151.24 59.9966 163.029 59.9966 163.029L58.5692 173.87C57.2885 168.52 54.9779 157.77 49.2553 155.551Z" fill="#FFAD94"/>
<path d="M107.3 142.722L106.788 143.008L106.169 143.352C105.924 143.486 105.654 143.654 105.325 143.797L104.239 144.301C104.034 144.4 103.823 144.487 103.607 144.561L102.92 144.817C102.415 145.007 101.9 145.168 101.378 145.302C100.798 145.465 100.21 145.596 99.615 145.695C99.4586 145.721 99.2891 145.76 99.1425 145.779L98.6569 145.831L97.6499 145.935L96.6038 145.958C96.4246 145.958 96.2453 145.974 96.0628 145.958L95.5186 145.929C95.1569 145.899 94.7788 145.903 94.4073 145.847L93.2732 145.701C92.8919 145.643 92.5139 145.558 92.1261 145.483C91.7383 145.409 91.3537 145.315 90.9659 145.214C89.3859 144.8 87.8363 144.278 86.3285 143.651C84.7968 143.031 83.2782 142.352 81.7888 141.644C80.2995 140.935 78.8298 140.253 77.3861 139.603C75.9424 138.954 74.5313 138.366 73.1495 137.865C71.8495 137.384 70.5244 136.971 69.1802 136.631L68.2481 136.397L67.3389 136.218C66.7458 136.085 66.1657 136.02 65.6149 135.936C65.0642 135.851 64.533 135.822 64.0311 135.77C63.5292 135.718 63.0534 135.712 62.6037 135.699C61.714 135.65 60.9319 135.718 60.2964 135.728C59.6609 135.738 59.1591 135.832 58.8201 135.858L58.2987 135.906L58.1325 135.923C57.2018 135.993 56.2805 135.696 55.5669 135.097C54.8534 134.497 54.4045 133.642 54.317 132.715C54.2294 131.789 54.5102 130.865 55.0988 130.143C55.6874 129.421 56.5369 128.958 57.4644 128.854C57.6218 128.844 57.7796 128.844 57.937 128.854L58.5887 128.88C59.0157 128.902 59.6381 128.906 60.4268 128.971C61.2154 129.036 62.1735 129.12 63.2587 129.325C63.7997 129.416 64.3766 129.5 64.9762 129.65C65.5758 129.799 66.2081 129.91 66.8468 130.108C67.4855 130.306 68.1504 130.472 68.838 130.718L69.8678 131.076L70.9041 131.488C72.3508 132.073 73.765 132.735 75.1407 133.47C76.5616 134.22 77.9629 135.055 79.3773 135.916C80.7916 136.777 82.1441 137.68 83.5128 138.561C84.8815 139.441 86.2372 140.295 87.5929 141.075C88.9039 141.844 90.2673 142.52 91.6731 143.099C91.999 143.239 92.3509 143.382 92.6931 143.489C93.0353 143.596 93.3677 143.729 93.7066 143.83L94.7137 144.103C95.0395 144.197 95.385 144.239 95.7141 144.311L96.2062 144.405C96.3692 144.437 96.5321 144.447 96.6951 144.467L97.6727 144.577L98.6113 144.606H99.0708C99.2207 144.606 99.3706 144.606 99.5205 144.587C100.091 144.572 100.66 144.524 101.225 144.444C101.741 144.387 102.254 144.299 102.76 144.181L103.457 144.025C103.677 143.982 103.895 143.927 104.109 143.859L105.23 143.512C105.533 143.418 105.831 143.31 106.123 143.187L106.775 142.93L107.3 142.722Z" fill="#2E353D"/>
<path d="M43.601 123.695L44.7742 123.523L45.9278 123.305C46.3873 123.201 46.9316 123.068 47.5117 122.912C48.0917 122.756 48.7305 122.568 49.3921 122.327C49.7179 122.21 50.0732 122.103 50.4186 121.97L51.481 121.557C51.846 121.424 52.2012 121.255 52.5727 121.099C52.9443 120.943 53.3158 120.775 53.6808 120.606L54.7986 120.066C55.1701 119.884 55.5318 119.68 55.9033 119.485C56.6529 119.105 57.3535 118.653 58.0737 118.241L59.1036 117.571L59.612 117.247L60.0943 116.899L61.0394 116.217C61.3424 115.986 61.6292 115.746 61.9127 115.521C62.4928 115.076 62.9947 114.609 63.4672 114.18C63.9398 113.751 64.3439 113.329 64.7121 112.958L65.2205 112.435L65.6214 111.961L66.3872 111.058L65.8104 112.094L65.5073 112.643C65.3835 112.835 65.2466 113.043 65.1065 113.264C64.8132 113.705 64.5036 114.222 64.0995 114.739C63.6954 115.255 63.2945 115.84 62.7959 116.408C62.5515 116.694 62.3071 117 62.0463 117.295L61.2186 118.185L60.7917 118.64L60.3387 119.085L59.4164 119.982C58.7647 120.55 58.1129 121.168 57.4252 121.717C57.0798 121.996 56.7409 122.285 56.3889 122.555L55.333 123.351C54.9876 123.62 54.6226 123.857 54.2674 124.108C53.9121 124.358 53.5667 124.601 53.2082 124.822L52.1589 125.472C51.8134 125.686 51.4647 125.881 51.129 126.076C50.4773 126.479 49.7961 126.807 49.1737 127.129C48.5512 127.45 47.9875 127.701 47.4563 127.938C46.9251 128.175 46.4004 128.37 46.0191 128.516L44.9045 128.932C44.2321 129.149 43.5012 129.097 42.8667 128.786C42.2322 128.475 41.7439 127.931 41.505 127.268C41.2662 126.605 41.2956 125.875 41.587 125.233C41.8785 124.591 42.4091 124.087 43.0665 123.828C43.23 123.768 43.3993 123.724 43.5716 123.698L43.601 123.695Z" fill="#2E353D"/>
<path d="M92.5464 175.488C93.137 175.693 93.74 175.861 94.3518 175.991C94.8993 176.112 95.5413 176.232 96.2289 176.316C96.5744 176.368 96.9329 176.381 97.2881 176.417C97.6433 176.453 98.0148 176.449 98.3766 176.443C98.7383 176.436 99.1 176.443 99.452 176.391C99.793 176.368 100.132 176.325 100.469 176.264C100.78 176.219 101.088 176.154 101.391 176.069C101.661 176.006 101.926 175.927 102.186 175.832L102.838 175.589C103.024 175.501 103.164 175.416 103.307 175.355L103.711 175.15L103.809 175.101C104.106 175.005 104.428 175.017 104.716 175.137C105.004 175.256 105.239 175.475 105.379 175.753C105.52 176.031 105.555 176.35 105.479 176.652C105.403 176.954 105.221 177.219 104.966 177.398C104.886 177.438 104.802 177.469 104.715 177.492L104.151 177.642C103.969 177.687 103.754 177.746 103.5 177.804L102.656 177.931C102.326 177.973 101.994 177.998 101.662 178.006C101.296 178.028 100.929 178.028 100.563 178.006C100.178 177.993 99.7943 177.959 99.4129 177.905C99.0218 177.872 98.6373 177.778 98.2495 177.713C97.8617 177.648 97.4869 177.531 97.1154 177.44C96.7439 177.349 96.3886 177.232 96.0497 177.115C95.3653 176.882 94.7461 176.622 94.228 176.385C93.6491 176.121 93.0875 175.822 92.5464 175.488Z" fill="#E27960"/>
<path d="M99.1131 153.491H116.079C116.079 153.491 113.192 146.458 106.886 146.458C97.9888 146.458 99.1131 153.491 99.1131 153.491Z" fill="#2E353D"/>
<path d="M90.891 153.504H67.4856C67.4856 153.504 70.3437 145.935 83.1283 146.471C92.0121 146.841 90.891 153.504 90.891 153.504Z" fill="#2E353D"/>
<path d="M90.8909 153.504C90.8909 153.504 90.8746 153.345 90.8485 153.079C90.8224 152.812 90.7866 152.455 90.741 152.013C90.7149 151.799 90.6888 151.565 90.6627 151.321C90.6367 151.078 90.6041 150.821 90.565 150.561C90.5259 150.301 90.4802 150.032 90.4477 149.759C90.4151 149.486 90.3629 149.216 90.2977 148.947C90.2326 148.677 90.1837 148.407 90.125 148.141C90.0664 147.875 89.9816 147.624 89.9262 147.368C89.8708 147.111 89.7763 146.877 89.7046 146.647L89.483 145.997C89.4048 145.799 89.3331 145.61 89.2745 145.438C89.2158 145.266 89.1474 145.113 89.1017 145C89.0007 144.753 88.9551 144.597 88.9551 144.597C88.9551 144.597 89.092 144.675 89.3136 144.831C89.4519 144.922 89.5836 145.023 89.7079 145.133C89.848 145.263 90.0012 145.415 90.1674 145.588C90.3336 145.76 90.4705 145.971 90.6334 146.192C90.7964 146.413 90.9235 146.666 91.0636 146.929C91.1255 147.062 91.1842 147.202 91.2428 147.342C91.3087 147.481 91.3632 147.626 91.4058 147.774C91.5075 148.071 91.5881 148.375 91.6469 148.683C91.77 149.286 91.8149 149.902 91.7806 150.516C91.7683 150.796 91.74 151.076 91.6958 151.354C91.654 151.601 91.5985 151.847 91.5296 152.088C91.4303 152.454 91.2915 152.808 91.1157 153.144C91.069 153.237 91.0157 153.328 90.956 153.413L90.8909 153.504Z" fill="#2E353D"/>
<path d="M92.566 297.253C91.5651 297.849 90.3948 298.192 89.1441 298.192C85.4545 298.192 82.4634 295.21 82.4634 291.532C82.4634 287.908 85.3668 284.961 88.9812 284.875V284.873H92.8919C96.4916 284.873 99.4097 287.781 99.4097 291.37V302.415H92.566V297.253Z" fill="#FA6142"/>
<ellipse cx="89.1442" cy="291.532" rx="4.07362" ry="4.06079" fill="#D83A21"/>
</g>
<g filter="url(#filter2_d_601_16374)">
<path d="M294.033 303.923C343.723 303.923 384.005 263.756 384.005 214.209C384.005 164.662 343.723 124.496 294.033 124.496C244.343 124.496 204.061 164.662 204.061 214.209C204.061 263.756 244.343 303.923 294.033 303.923Z" fill="#FFAB4C" fill-opacity="0.4"/>
<path d="M380.321 239.689C369.571 232.97 343.565 227.897 343.565 227.897L295.503 236.179L292.543 227.897C258.607 227.897 246.072 244.154 242.481 249.203C240.084 252.579 233.844 262.247 226.614 273.604C237.403 285.772 251.3 294.794 266.825 299.71C282.35 304.626 298.921 305.252 314.774 301.522L314.867 301.498C315.423 301.368 315.979 301.231 316.542 301.091H316.586C317.235 300.92 317.882 300.757 318.528 300.57C333.137 296.433 346.461 288.683 357.263 278.04C368.066 267.397 375.997 254.205 380.321 239.689Z" fill="#FA6142"/>
<path d="M343.565 227.897L295.503 236.179L292.543 227.897C291.141 227.852 289.738 227.881 288.34 227.984C287.841 234.493 263.517 273.4 294.033 275.254C327.564 277.301 351.181 229.574 351.181 229.574C346.687 228.505 343.565 227.897 343.565 227.897Z" fill="white"/>
<path d="M337.058 168.369C338.984 171.528 352.547 187.223 352.045 190.409C351.543 193.595 347.189 210.612 319.392 206.772C291.595 202.932 312.024 164.081 312.024 164.081L337.058 168.369Z" fill="#FA6142"/>
<path d="M331.341 162.805C331.425 165.457 335.062 189.935 344.476 193.248C326.257 206.549 313.531 179.189 313.531 179.189L331.341 162.805Z" fill="#2E353D"/>
<path d="M335.059 171.171C335.059 171.171 335.089 171.505 335.146 172.082C335.173 172.349 335.209 172.673 335.25 173.044C335.29 173.415 335.353 173.849 335.441 174.306C335.481 174.533 335.524 174.774 335.568 175.024C335.611 175.275 335.675 175.522 335.732 175.786C335.789 176.05 335.862 176.31 335.929 176.584C335.996 176.858 336.07 177.138 336.164 177.415C336.258 177.693 336.335 177.983 336.435 178.27C336.536 178.557 336.643 178.845 336.75 179.135C336.857 179.426 336.988 179.71 337.105 180.003L337.289 180.441L337.497 180.872C337.637 181.159 337.771 181.449 337.919 181.733L338.378 182.568C338.525 182.852 338.713 183.112 338.86 183.38C339.007 183.647 339.195 183.911 339.352 184.164C339.704 184.662 340.022 185.166 340.357 185.607C340.692 186.048 341.027 186.485 341.338 186.859L342.216 187.888C342.484 188.192 342.731 188.442 342.929 188.656L343.555 189.324L342.798 188.806C342.561 188.639 342.263 188.442 341.931 188.202L340.836 187.374C340.431 187.07 340.025 186.706 339.573 186.332C339.121 185.958 338.692 185.527 338.234 185.093C338.006 184.872 337.781 184.632 337.564 184.398C337.346 184.164 337.095 183.924 336.894 183.663C336.693 183.403 336.445 183.153 336.224 182.892C336.003 182.632 335.792 182.354 335.578 182.081L335.243 181.67L334.942 181.246C334.744 180.962 334.53 180.685 334.349 180.394L333.796 179.526C333.622 179.239 333.461 178.945 333.294 178.658C333.126 178.37 332.979 178.08 332.835 177.796C332.691 177.512 332.54 177.238 332.42 176.961L332.048 176.153L331.713 175.388C331.505 174.897 331.351 174.44 331.194 174.053L330.832 172.981C330.651 172.426 330.551 172.109 330.551 172.109C330.446 171.817 330.4 171.506 330.418 171.196C330.435 170.886 330.515 170.582 330.653 170.304C330.791 170.025 330.983 169.777 331.219 169.574C331.455 169.371 331.73 169.218 332.026 169.123C332.323 169.028 332.636 168.994 332.946 169.022C333.256 169.05 333.558 169.14 333.832 169.287C334.107 169.434 334.349 169.634 334.544 169.877C334.739 170.119 334.883 170.398 334.968 170.696C335.013 170.851 335.044 171.01 335.059 171.171Z" fill="#2E353D"/>
<path d="M287.626 209.333C288.916 213.117 290.868 219.572 286.404 238.72C284.569 246.585 274.237 270.244 300.359 267.252C324.774 264.457 343.562 227.897 343.562 227.897C333.381 217.639 324.606 204.605 325.762 177.028C327.43 137.312 287.626 209.333 287.626 209.333Z" fill="#FFAD94"/>
<path d="M287.626 209.334C289.92 214.62 289.167 229.841 285.376 242.434C313.21 225.583 320.731 195.528 323.354 176.607L312.861 171.475C301.776 183.73 287.626 209.334 287.626 209.334Z" fill="#CE5F49"/>
<path d="M321.809 116.154C323.97 111.334 321.404 105.501 316.077 103.126C310.749 100.751 304.678 102.733 302.517 107.553C300.355 112.374 302.922 118.207 308.249 120.582C313.577 122.957 319.647 120.975 321.809 116.154Z" fill="#D83A21"/>
<path d="M259.277 137.563C259.277 138.147 260.392 140.595 261.899 141.82C263.406 143.046 271.25 127.21 271.25 127.21L258.691 131.051L259.277 137.563Z" fill="#2E353D"/>
<path d="M261.621 134.641C273.678 105.755 317.55 99.243 332.882 133.265C344.637 159.349 323.652 176.531 323.652 176.531C323.652 176.531 321.214 191.147 318.89 194.083C316.378 197.255 293.548 213.227 281.046 208.666C268.544 204.104 255.288 149.815 261.621 134.641Z" fill="#FFAD94"/>
<path d="M323.354 157.786C322.296 145.661 315.457 141.653 317.326 131.405L334.295 145.327V163.193L323.354 157.786Z" fill="#2E353D"/>
<path d="M269.106 123.096C265.938 126.467 263.403 130.377 261.621 134.641C260.959 136.35 260.524 138.139 260.328 139.96C272.338 153.509 297.047 128.91 313.015 135.462C313.015 121.407 288.433 121.153 269.106 123.096Z" fill="#CE5F49"/>
<path d="M263.945 132.123L263.784 132.54C263.775 132.559 263.768 132.579 263.764 132.6V132.637C263.756 132.665 263.745 132.692 263.731 132.717C263.731 132.777 263.711 132.841 263.697 132.911C263.677 132.987 263.666 133.066 263.664 133.145C263.62 133.581 263.654 134.022 263.764 134.447C263.908 135.037 264.165 135.594 264.521 136.087C264.981 136.71 265.564 137.234 266.233 137.626C267.063 138.108 267.969 138.447 268.912 138.628C269.991 138.839 271.091 138.934 272.191 138.912C272.479 138.912 272.77 138.882 273.061 138.872C273.353 138.862 273.647 138.852 273.942 138.805C274.532 138.728 275.128 138.682 275.717 138.561L276.611 138.404C276.906 138.351 277.201 138.271 277.495 138.207L278.38 138.004C278.674 137.93 278.962 137.84 279.254 137.763C279.833 137.6 280.409 137.429 280.972 137.249C281.534 137.069 282.097 136.895 282.646 136.685L284.244 136.09C284.766 135.886 285.268 135.669 285.761 135.469C286.765 135.075 287.656 134.631 288.51 134.253C289.364 133.876 290.118 133.472 290.801 133.141C291.484 132.811 292.067 132.494 292.553 132.24L294.07 131.438L292.646 132.4C292.194 132.704 291.642 133.088 291.002 133.489C290.362 133.889 289.639 134.374 288.832 134.851C288.025 135.329 287.157 135.853 286.203 136.374C285.727 136.631 285.242 136.905 284.739 137.169L283.182 137.95C282.656 138.224 282.097 138.454 281.544 138.712C280.992 138.969 280.412 139.202 279.83 139.433C279.538 139.55 279.247 139.673 278.952 139.784L278.051 140.097C277.747 140.198 277.448 140.314 277.14 140.405L276.209 140.678C275.597 140.872 274.953 141.012 274.321 141.149C274.009 141.233 273.681 141.27 273.359 141.33C273.038 141.39 272.72 141.45 272.391 141.48C271.094 141.646 269.783 141.674 268.48 141.563C267.185 141.445 265.919 141.114 264.732 140.585C263.591 140.077 262.566 139.343 261.718 138.428C260.978 137.618 260.401 136.674 260.02 135.646C259.708 134.828 259.537 133.963 259.514 133.088C259.503 132.909 259.503 132.729 259.514 132.55C259.514 132.38 259.514 132.216 259.548 132.069C259.581 131.923 259.605 131.735 259.632 131.575L259.675 131.358C259.675 131.291 259.705 131.218 259.715 131.195L259.829 130.764C259.903 130.488 260.031 130.229 260.205 130.003C260.379 129.776 260.596 129.586 260.844 129.443C261.092 129.3 261.366 129.207 261.649 129.169C261.933 129.132 262.222 129.151 262.498 129.224C262.775 129.298 263.034 129.425 263.262 129.599C263.489 129.772 263.68 129.989 263.823 130.236C263.967 130.483 264.06 130.756 264.097 131.039C264.135 131.322 264.116 131.61 264.042 131.886C264.023 131.962 263.998 132.037 263.969 132.11L263.945 132.123Z" fill="#2E353D"/>
<path d="M309.047 128.686L309.643 129.478L310.249 130.206C310.537 130.513 310.838 130.874 311.22 131.251L312.443 132.543C312.878 133.034 313.34 133.545 313.782 134.12C313.896 134.26 314.013 134.4 314.117 134.547L314.452 135.008C314.679 135.312 314.888 135.629 315.078 135.956C315.273 136.29 315.477 136.624 315.654 136.958C315.832 137.292 315.989 137.659 316.15 138.01C316.311 138.361 316.418 138.731 316.555 139.089L316.743 139.623C316.803 139.803 316.84 139.99 316.887 140.171C316.977 140.531 317.064 140.889 317.151 141.243C317.238 141.597 317.262 141.954 317.315 142.301C317.369 142.649 317.433 142.969 317.449 143.303C317.466 143.637 317.483 143.971 317.503 144.278C317.523 144.585 317.543 144.899 317.543 145.193C317.543 145.487 317.543 145.778 317.52 146.051C317.493 146.596 317.52 147.093 317.456 147.534L317.336 148.67C317.269 149.297 317.232 149.671 317.232 149.671L317.148 148.67C317.121 148.356 317.091 147.978 317.054 147.541C317.017 147.103 316.917 146.626 316.84 146.098C316.796 145.834 316.753 145.561 316.709 145.28C316.666 144.999 316.572 144.712 316.502 144.418C316.431 144.125 316.354 143.827 316.277 143.52C316.2 143.213 316.076 142.912 315.976 142.605C315.875 142.298 315.772 141.984 315.641 141.677L315.222 140.765C315.149 140.615 315.088 140.458 315.005 140.314L314.75 139.877C314.573 139.593 314.415 139.289 314.228 139.022L313.642 138.214C313.437 137.957 313.206 137.716 312.999 137.469C312.791 137.222 312.546 137.002 312.329 136.775L311.994 136.441C311.877 136.334 311.753 136.234 311.632 136.133C311.167 135.719 310.671 135.349 310.205 134.991L308.816 133.989C308.38 133.682 307.955 133.358 307.59 133.088C307.225 132.817 306.84 132.477 306.562 132.243L305.828 131.575C305.401 131.185 305.147 130.642 305.121 130.065C305.095 129.488 305.3 128.925 305.69 128.498C306.08 128.072 306.624 127.817 307.203 127.789C307.781 127.762 308.347 127.965 308.775 128.353C308.875 128.443 308.965 128.543 309.047 128.65V128.686Z" fill="#2E353D"/>
<path d="M302.546 131.412C290.088 131.412 263.363 142.665 263.363 130.56C271.112 121.45 302.546 131.412 302.546 131.412Z" fill="#2E353D"/>
<path d="M259.277 137.563C256.43 122.238 259.987 100.495 275.352 96.2374C300.942 89.1278 336.388 118.945 336.458 122.285C336.529 125.624 338.954 143.447 336.458 154.737C319.392 126.222 257.659 119.166 259.277 137.563Z" fill="#FA6142"/>
<path d="M321.602 160.585C321.602 160.585 327.57 149.712 333.659 151.284C348.274 155.061 335.052 176.073 326.388 176.998C323.612 177.295 321.894 175.028 321.894 175.028L321.602 160.585Z" fill="#E27960"/>
<path d="M325.166 162.358C328.099 158.708 331.402 159.643 331.777 162.388C332.256 165.911 326.197 173.074 322.198 169.735L325.166 162.358Z" fill="#CE5F49"/>
<path d="M332.426 154.537C335.196 153.766 338.877 155.275 340.022 157.279C339.473 154.527 337.678 151.625 333.485 150.934C327.279 149.932 321.602 160.578 321.602 160.578L321.773 171.364C324.67 174.036 324.928 168.559 323.334 166.973C325.253 161.897 328.197 155.712 332.426 154.537Z" fill="#FFAD94"/>
<path d="M326.385 177.005C329.914 176.624 334.205 172.907 337.058 168.382C331.083 177.542 323.715 173.238 321.773 171.388L320.731 174.727C320.731 174.727 323.608 177.302 326.385 177.005Z" fill="#FFAD94"/>
<path d="M305.272 122.569H305.205C305.107 122.56 305.01 122.532 304.922 122.487C304.834 122.441 304.756 122.379 304.692 122.303C304.629 122.228 304.581 122.14 304.551 122.046C304.521 121.952 304.51 121.852 304.519 121.754C305.446 111.281 301.461 103.257 293.859 100.285C285.587 97.0521 275.53 100.665 268.835 109.278C268.775 109.359 268.7 109.427 268.614 109.479C268.528 109.53 268.432 109.564 268.332 109.578C268.233 109.592 268.131 109.586 268.034 109.561C267.937 109.535 267.846 109.49 267.766 109.429C267.686 109.367 267.62 109.291 267.57 109.203C267.521 109.116 267.49 109.02 267.478 108.92C267.467 108.82 267.475 108.719 267.503 108.623C267.532 108.527 267.579 108.437 267.643 108.359C274.753 99.2127 285.51 95.4058 294.408 98.8855C302.667 102.115 307.01 110.714 306.019 121.884C306.003 122.071 305.918 122.245 305.779 122.371C305.641 122.498 305.46 122.568 305.272 122.569Z" fill="#D83A21"/>
<path d="M270.188 106.219C266.035 105.775 261.906 105.795 260.559 108.937C258.677 113.339 261.564 119.68 268.433 120.495C275.302 121.31 270.188 106.219 270.188 106.219Z" fill="#2E353D"/>
<path d="M285.111 103.11C282.281 100.081 275.506 96.2607 271.3 99.9107C267.83 102.916 268.955 115.763 273.038 120.171C277.12 124.579 288.108 112.901 288.108 112.901L285.111 103.11Z" fill="#2E353D"/>
<path d="M303.079 121.58C305.611 111.642 298.035 101.727 293.239 100.208C286.876 98.2043 278.212 100.776 282.797 116.792L292.138 119.059L303.079 121.58Z" fill="#2E353D"/>
<path d="M264.803 122.853L263.845 130.126C272.713 125.35 292.837 126.9 310.279 134.25H310.852C319.559 133.886 320.899 124.729 316.602 120.391C302.62 124.829 279.82 112.664 264.803 122.853Z" fill="#D83A21"/>
<path d="M262.961 120.755C277.978 110.567 300.778 122.729 314.76 118.278C319.057 122.619 317.724 131.772 309.01 132.136C300.741 132.47 289.143 127.795 278.031 127.738C265.851 127.688 261.51 131.772 261.51 131.772L262.961 120.755Z" fill="#FA6142"/>
<path d="M270.202 124.506C270.522 123.157 269.684 121.807 268.332 121.489C266.98 121.17 265.626 122.005 265.307 123.353C264.988 124.701 265.825 126.052 267.177 126.37C268.529 126.688 269.883 125.854 270.202 124.506Z" fill="#D83A21"/>
<path d="M266.182 124.325C266.182 124.738 266.285 125.145 266.48 125.509C266.676 125.874 266.959 126.184 267.304 126.412C267.461 126.443 267.62 126.459 267.78 126.459C268.32 126.459 268.845 126.285 269.278 125.965C269.712 125.644 270.03 125.192 270.186 124.677C270.342 124.162 270.328 123.61 270.146 123.104C269.963 122.597 269.622 122.163 269.173 121.864C269.018 121.833 268.859 121.818 268.701 121.817C268.033 121.817 267.393 122.082 266.921 122.552C266.449 123.022 266.183 123.66 266.182 124.325Z" fill="#2E353D"/>
<path d="M278.279 124.496C279.668 124.496 280.794 123.373 280.794 121.988C280.794 120.603 279.668 119.48 278.279 119.48C276.89 119.48 275.764 120.603 275.764 121.988C275.764 123.373 276.89 124.496 278.279 124.496Z" fill="#D83A21"/>
<path d="M276.692 122.362C276.691 122.775 276.793 123.181 276.988 123.545C277.183 123.91 277.465 124.22 277.81 124.449C277.967 124.48 278.126 124.495 278.286 124.496C278.826 124.495 279.351 124.322 279.784 124.001C280.218 123.68 280.536 123.229 280.692 122.713C280.848 122.198 280.834 121.647 280.652 121.14C280.469 120.634 280.128 120.199 279.679 119.901C279.523 119.87 279.365 119.854 279.207 119.854C278.54 119.854 277.9 120.118 277.428 120.588C276.957 121.059 276.692 121.697 276.692 122.362Z" fill="#2E353D"/>
<path d="M290.423 124.714C291.405 123.734 291.405 122.146 290.423 121.167C289.441 120.187 287.849 120.187 286.866 121.167C285.884 122.146 285.884 123.734 286.866 124.714C287.849 125.693 289.441 125.693 290.423 124.714Z" fill="#D83A21"/>
<path d="M287.05 123.317C287.05 123.73 287.153 124.137 287.349 124.501C287.544 124.865 287.827 125.175 288.172 125.404C288.329 125.432 288.488 125.447 288.648 125.447C289.188 125.447 289.713 125.274 290.146 124.953C290.58 124.632 290.898 124.18 291.054 123.665C291.21 123.15 291.196 122.598 291.014 122.092C290.831 121.585 290.49 121.151 290.041 120.852C289.885 120.824 289.727 120.81 289.569 120.809C288.901 120.809 288.261 121.073 287.789 121.543C287.317 122.013 287.051 122.651 287.05 123.317Z" fill="#2E353D"/>
<path d="M299.76 126.716C300.742 125.736 300.742 124.148 299.76 123.169C298.778 122.19 297.185 122.19 296.203 123.169C295.221 124.148 295.221 125.736 296.203 126.716C297.185 127.695 298.778 127.695 299.76 126.716Z" fill="#D83A21"/>
<path d="M296.387 125.317C296.388 125.73 296.49 126.136 296.685 126.5C296.88 126.864 297.162 127.175 297.506 127.404C297.663 127.435 297.822 127.451 297.982 127.451C298.522 127.451 299.047 127.278 299.481 126.958C299.915 126.637 300.234 126.186 300.391 125.67C300.547 125.155 300.533 124.603 300.351 124.096C300.169 123.589 299.828 123.154 299.378 122.856C299.221 122.825 299.062 122.809 298.903 122.809C298.235 122.809 297.596 123.073 297.124 123.544C296.652 124.014 296.387 124.652 296.387 125.317Z" fill="#2E353D"/>
<path d="M325.963 139.93H325.922C325.824 139.923 325.728 139.897 325.639 139.852C325.551 139.808 325.472 139.747 325.408 139.672C325.344 139.597 325.295 139.51 325.264 139.417C325.233 139.323 325.221 139.224 325.229 139.126C326.375 124.118 323.96 111.612 319.074 107.264C319 107.199 318.94 107.119 318.897 107.03C318.854 106.941 318.829 106.844 318.823 106.746C318.817 106.647 318.831 106.548 318.864 106.455C318.897 106.362 318.947 106.276 319.013 106.202C319.079 106.129 319.159 106.069 319.248 106.026C319.338 105.983 319.435 105.958 319.533 105.952C319.632 105.947 319.731 105.961 319.825 105.993C319.918 106.026 320.005 106.076 320.078 106.142C325.3 110.794 327.912 123.784 326.73 139.239C326.714 139.43 326.626 139.608 326.484 139.737C326.341 139.865 326.155 139.934 325.963 139.93Z" fill="#D83A21"/>
<path d="M289.03 173.852C288.473 174.188 287.897 174.49 287.305 174.757C286.769 175.001 286.133 175.268 285.429 175.509C285.094 175.636 284.709 175.732 284.334 175.843C283.959 175.953 283.564 176.043 283.169 176.123C282.774 176.203 282.375 176.287 281.977 176.32C281.583 176.376 281.188 176.41 280.791 176.424C280.416 176.447 280.04 176.447 279.666 176.424C279.324 176.417 278.983 176.39 278.644 176.343L277.773 176.217C277.519 176.156 277.295 176.096 277.104 176.05L276.521 175.896C276.227 175.769 275.989 175.542 275.849 175.255C275.708 174.968 275.676 174.641 275.757 174.332C275.838 174.023 276.027 173.754 276.29 173.572C276.553 173.39 276.872 173.308 277.191 173.341C277.277 173.365 277.361 173.397 277.442 173.435L277.546 173.488L277.961 173.695C278.095 173.762 278.256 173.849 278.443 173.939L279.113 174.19C279.381 174.286 279.654 174.367 279.93 174.433C280.242 174.519 280.558 174.586 280.878 174.634C281.224 174.695 281.573 174.739 281.923 174.764C282.281 174.811 282.653 174.797 283.025 174.817C283.397 174.837 283.772 174.817 284.143 174.791C284.515 174.764 284.88 174.737 285.232 174.687C285.938 174.604 286.598 174.48 287.161 174.353C287.793 174.224 288.417 174.056 289.03 173.852Z" fill="#E27960"/>
<path d="M278.169 153.896H257.334C257.334 153.896 261.038 145.253 268.785 145.253C279.706 145.253 278.169 153.896 278.169 153.896Z" fill="#2E353D"/>
<path d="M285.794 153.912H314.536C314.536 153.912 309.512 144.502 295.523 144.502C284.602 144.502 285.794 153.912 285.794 153.912Z" fill="#2E353D"/>
<path d="M285.794 153.912L285.717 153.796C285.645 153.689 285.579 153.577 285.52 153.462C285.426 153.282 285.341 153.098 285.265 152.911C285.166 152.669 285.081 152.421 285.011 152.169C284.928 151.871 284.861 151.569 284.81 151.264C284.752 150.924 284.717 150.58 284.703 150.236C284.689 150.053 284.689 149.87 284.703 149.688C284.703 149.504 284.703 149.314 284.703 149.127C284.734 148.744 284.786 148.362 284.86 147.985C284.9 147.795 284.937 147.604 284.987 147.421C285.038 147.237 285.098 147.05 285.155 146.866C285.21 146.685 285.277 146.508 285.356 146.335C285.429 146.165 285.5 146.001 285.577 145.828C285.751 145.494 285.912 145.2 286.106 144.919C286.3 144.639 286.488 144.398 286.679 144.178C286.869 143.958 287.07 143.781 287.241 143.624C287.394 143.49 287.555 143.366 287.723 143.253C287.866 143.148 288.015 143.052 288.169 142.966C288.169 142.966 288.109 143.156 287.988 143.46C287.931 143.614 287.847 143.794 287.774 143.998C287.7 144.201 287.616 144.438 287.519 144.686C287.422 144.933 287.348 145.21 287.248 145.484L286.977 146.372C286.906 146.686 286.803 146.996 286.732 147.324C286.695 147.484 286.662 147.658 286.618 147.811C286.575 147.965 286.551 148.145 286.518 148.312C286.437 148.646 286.401 148.98 286.33 149.314C286.26 149.648 286.223 149.982 286.19 150.296C286.156 150.61 286.106 150.93 286.069 151.231C286.032 151.531 286.005 151.819 285.975 152.082C285.918 152.623 285.871 153.084 285.841 153.391C285.811 153.699 285.794 153.912 285.794 153.912Z" fill="#2E353D"/>
<path d="M298.936 115.66C298.936 115.66 298.936 115.529 298.966 115.286C298.996 115.042 299.023 114.664 299.046 114.244C299.07 113.823 299.103 113.372 299.087 112.774C299.07 112.177 299.056 111.525 299.003 110.801C298.963 110.44 298.936 110.063 298.882 109.672C298.829 109.281 298.775 108.881 298.691 108.473C298.608 108.066 298.534 107.642 298.417 107.221C298.367 107.007 298.31 106.793 298.256 106.573L298.058 105.928C297.935 105.488 297.757 105.064 297.603 104.619L297.328 103.952C297.241 103.731 297.137 103.517 297.03 103.307C296.619 102.443 296.119 101.623 295.537 100.863C294.976 100.102 294.307 99.4267 293.551 98.8589C292.827 98.3204 292.004 97.929 291.129 97.7068C290.295 97.5049 289.428 97.4822 288.584 97.64C288.38 97.6734 288.182 97.7402 287.981 97.787L287.687 97.8638L287.405 97.974L286.849 98.1877L286.337 98.4548C286.013 98.6215 285.699 98.8089 285.399 99.0159C285.12 99.1956 284.853 99.393 284.599 99.607L284.237 99.8875C284.127 99.9843 284.026 100.081 283.926 100.175C283.721 100.358 283.537 100.532 283.37 100.686C283.035 101.02 282.814 101.277 282.643 101.454L282.385 101.727L282.603 101.42C282.747 101.223 282.938 100.923 283.222 100.555L283.708 99.9643C283.795 99.8574 283.885 99.7438 283.986 99.6303L284.321 99.2964C284.554 99.0411 284.802 98.8002 285.064 98.5751C285.348 98.3131 285.649 98.0699 285.965 97.8471L286.478 97.4898L287.047 97.1558L287.342 96.9922L287.676 96.8586C287.894 96.7751 288.109 96.6716 288.346 96.5981C289.328 96.2726 290.368 96.1588 291.397 96.2642C292.513 96.387 293.594 96.7274 294.579 97.266C295.579 97.8181 296.493 98.5109 297.295 99.3231C298.095 100.114 298.81 100.986 299.428 101.925C299.588 102.148 299.737 102.38 299.874 102.619L300.296 103.32C300.54 103.798 300.811 104.265 301.022 104.743L301.357 105.451L301.645 106.159C301.846 106.626 301.98 107.094 302.154 107.548C302.328 108.002 302.432 108.456 302.566 108.884C302.7 109.311 302.784 109.745 302.901 110.156C303.079 110.978 303.236 111.739 303.313 112.417C303.39 113.095 303.46 113.729 303.514 114.234C303.568 114.738 303.564 115.058 303.581 115.312C303.598 115.566 303.601 115.686 303.601 115.686C303.635 116.296 303.425 116.895 303.016 117.351C302.608 117.806 302.035 118.082 301.423 118.116C300.811 118.15 300.21 117.94 299.753 117.533C299.296 117.125 299.02 116.554 298.986 115.943C298.964 115.85 298.947 115.755 298.936 115.66Z" fill="#2E353D"/>
<path d="M284.371 107.852C284.371 107.852 284.351 107.518 284.321 106.91C284.321 106.643 284.274 106.286 284.23 105.892C284.187 105.498 284.123 105.047 284.033 104.556C283.842 103.46 283.54 102.386 283.132 101.35C282.899 100.775 282.626 100.217 282.315 99.6804C281.993 99.1247 281.619 98.6004 281.199 98.1142C280.365 97.1384 279.339 96.3429 278.185 95.7766C277.634 95.5062 277.06 95.2827 276.471 95.1087C275.93 94.9535 275.381 94.8309 274.826 94.7414L274.073 94.6412L273.383 94.5877C272.951 94.5577 272.569 94.561 272.254 94.551L271.25 94.5811L272.217 94.3573C272.529 94.3039 272.911 94.2237 273.349 94.1636L274.056 94.0768L274.846 94.0234C275.448 93.9998 276.051 94.012 276.652 94.0601C277.33 94.1228 278.002 94.2423 278.661 94.4174C280.151 94.8116 281.546 95.5035 282.76 96.4511C283.388 96.9345 283.969 97.4756 284.495 98.0674C285.005 98.6405 285.474 99.2487 285.898 99.8874C286.634 101.018 287.254 102.22 287.75 103.474C287.971 104.018 288.149 104.529 288.296 104.98C288.443 105.431 288.564 105.825 288.654 106.176C288.822 106.813 288.916 107.177 288.916 107.177C288.992 107.471 289.01 107.777 288.968 108.078C288.926 108.378 288.825 108.668 288.671 108.93C288.516 109.191 288.312 109.42 288.069 109.603C287.826 109.786 287.549 109.92 287.255 109.996C286.96 110.072 286.653 110.09 286.352 110.048C286.05 110.006 285.76 109.905 285.497 109.751C285.235 109.598 285.005 109.394 284.822 109.151C284.638 108.909 284.504 108.633 284.428 108.339C284.392 108.194 284.368 108.045 284.358 107.895L284.371 107.852Z" fill="#2E353D"/>
<path d="M314.633 131.969L314.161 131.749C314.072 131.691 313.972 131.653 313.867 131.637C313.762 131.621 313.655 131.627 313.553 131.654C313.45 131.682 313.355 131.731 313.273 131.798C313.191 131.865 313.124 131.949 313.077 132.043C313.029 132.138 313.003 132.241 312.998 132.347C312.993 132.453 313.011 132.558 313.05 132.656C313.089 132.754 313.149 132.843 313.225 132.917C313.301 132.991 313.391 133.048 313.491 133.085L313.997 133.322C324.151 137.997 331.974 143.797 336.619 150.109C336.682 150.193 336.762 150.263 336.854 150.314C336.945 150.365 337.047 150.397 337.152 150.406C337.219 149.802 337.279 149.184 337.329 148.563C332.493 142.321 324.67 136.578 314.633 131.969Z" fill="#D83A21"/>
</g>
<mask id="mask0_601_16374" style="mask-type:alpha" maskUnits="userSpaceOnUse" x="142" y="3" width="106" height="139">
<path d="M248 89C248 118.271 224.271 142 195 142C165.729 142 142 118.271 142 89C142 59.7289 165.729 3 195 3C224.271 3 248 59.7289 248 89Z" fill="#2F86EB"/>
</mask>
<g mask="url(#mask0_601_16374)">
</g>
<rect x="165" y="25" width="61" height="118" rx="7" fill="white" stroke="#2F86EB" stroke-width="2"/>
<g filter="url(#filter3_d_601_16374)">
<path d="M171.981 68.809C172.291 68.809 172.475 68.6213 172.475 68.2956V66.4869H174.426C174.686 66.4869 174.859 66.3336 174.859 66.0845C174.859 65.8354 174.686 65.6822 174.426 65.6822H172.475V64.0497H174.625C174.893 64.0497 175.077 63.8888 175.077 63.6321C175.077 63.3753 174.897 63.2144 174.625 63.2144H171.981C171.674 63.2144 171.487 63.406 171.487 63.7279V68.2956C171.487 68.6213 171.674 68.809 171.981 68.809ZM176.135 64.111C176.434 64.111 176.667 63.8811 176.667 63.5937C176.667 63.3025 176.434 63.0764 176.135 63.0764C175.84 63.0764 175.606 63.3025 175.606 63.5937C175.606 63.8811 175.84 64.111 176.135 64.111ZM176.135 68.8205C176.426 68.8205 176.614 68.6289 176.614 68.3185V65.1074C176.614 64.797 176.426 64.6015 176.135 64.6015C175.844 64.6015 175.66 64.797 175.66 65.1035V68.3185C175.66 68.6289 175.844 68.8205 176.135 68.8205ZM179.166 70.2729C180.419 70.2805 181.166 69.6367 181.166 68.6136V65.0882C181.166 64.774 180.967 64.6015 180.691 64.6015C180.419 64.6015 180.212 64.774 180.212 65.0882V65.3718H180.197C179.963 64.9119 179.515 64.613 178.936 64.613C177.89 64.613 177.246 65.3909 177.246 66.6631C177.246 67.9124 177.898 68.7017 178.917 68.7017C179.499 68.7017 179.978 68.4067 180.189 67.9698H180.208V68.6174C180.208 69.1577 179.821 69.5218 179.174 69.5141C178.787 69.5103 178.503 69.357 178.185 69.039C178.066 68.924 177.97 68.878 177.836 68.878C177.595 68.878 177.438 69.0351 177.438 69.2459C177.438 69.3455 177.461 69.4375 177.518 69.5333C177.79 69.9701 178.388 70.269 179.166 70.2729ZM179.208 67.9583C178.606 67.9583 178.223 67.4755 178.223 66.6708C178.223 65.8738 178.606 65.3679 179.208 65.3679C179.817 65.3679 180.216 65.8814 180.216 66.6708C180.216 67.464 179.817 67.9583 179.208 67.9583ZM183.695 70.2729C184.948 70.2805 185.696 69.6367 185.696 68.6136V65.0882C185.696 64.774 185.496 64.6015 185.22 64.6015C184.948 64.6015 184.741 64.774 184.741 65.0882V65.3718H184.726C184.492 64.9119 184.044 64.613 183.465 64.613C182.419 64.613 181.775 65.3909 181.775 66.6631C181.775 67.9124 182.427 68.7017 183.446 68.7017C184.029 68.7017 184.508 68.4067 184.718 67.9698H184.738V68.6174C184.738 69.1577 184.351 69.5218 183.703 69.5141C183.316 69.5103 183.032 69.357 182.714 69.039C182.596 68.924 182.5 68.878 182.366 68.878C182.124 68.878 181.967 69.0351 181.967 69.2459C181.967 69.3455 181.99 69.4375 182.048 69.5333C182.32 69.9701 182.917 70.269 183.695 70.2729ZM183.737 67.9583C183.136 67.9583 182.753 67.4755 182.753 66.6708C182.753 65.8738 183.136 65.3679 183.737 65.3679C184.347 65.3679 184.745 65.8814 184.745 66.6708C184.745 67.464 184.347 67.9583 183.737 67.9583ZM188.041 68.8244C189.075 68.8244 189.773 68.3147 189.773 67.5368C189.773 66.9352 189.432 66.6248 188.573 66.4294L187.926 66.2876C187.504 66.1918 187.328 66.0309 187.328 65.7933C187.328 65.5021 187.615 65.299 188.033 65.299C188.435 65.299 188.669 65.4752 188.857 65.755C188.945 65.8814 189.083 65.9312 189.221 65.9312C189.462 65.9312 189.589 65.7895 189.589 65.5902C189.589 65.5442 189.581 65.4982 189.57 65.4484C189.443 64.9809 188.838 64.5977 188.056 64.5977C187.052 64.5977 186.401 65.092 186.401 65.8469C186.401 66.4371 186.792 66.8279 187.585 67.008L188.244 67.1575C188.662 67.2533 188.815 67.3874 188.815 67.6326C188.815 67.9392 188.52 68.1269 188.075 68.1269C187.619 68.1269 187.374 67.989 187.159 67.6786C187.037 67.5177 186.903 67.4449 186.746 67.4449C186.516 67.4449 186.347 67.5905 186.347 67.8204C186.347 67.8779 186.359 67.9392 186.385 68.0082C186.581 68.4948 187.182 68.8244 188.041 68.8244ZM191.041 68.786C191.348 68.786 191.589 68.5446 191.589 68.2342C191.589 67.9277 191.348 67.6824 191.041 67.6824C190.731 67.6824 190.489 67.9277 190.489 68.2342C190.489 68.5446 190.731 68.786 191.041 68.786ZM194.084 68.8244C194.85 68.8244 195.525 68.4297 195.751 67.874C195.789 67.7821 195.808 67.7016 195.808 67.6288C195.808 67.3912 195.632 67.2379 195.406 67.2379C195.199 67.2379 195.095 67.3184 194.965 67.533C194.781 67.8587 194.521 68.0541 194.099 68.0541C193.494 68.0541 193.099 67.556 193.099 66.713C193.099 65.8814 193.49 65.3718 194.103 65.3718C194.498 65.3718 194.766 65.548 194.969 65.9197C195.08 66.1113 195.195 66.1918 195.387 66.1918C195.617 66.1918 195.797 66.0462 195.797 65.8086C195.797 65.7396 195.777 65.6592 195.747 65.5787C195.551 65.0077 194.873 64.5977 194.076 64.5977C192.892 64.5977 192.129 65.4216 192.129 66.7168C192.129 68.0197 192.896 68.8244 194.084 68.8244ZM198.249 68.8244C199.441 68.8244 200.215 68.0312 200.215 66.713C200.215 65.3986 199.433 64.5977 198.249 64.5977C197.065 64.5977 196.283 65.4024 196.283 66.713C196.283 68.0312 197.057 68.8244 198.249 68.8244ZM198.249 68.0695C197.644 68.0695 197.253 67.579 197.253 66.713C197.253 65.8508 197.647 65.3564 198.249 65.3564C198.855 65.3564 199.245 65.8508 199.245 66.713C199.245 67.579 198.855 68.0695 198.249 68.0695Z" fill="#2B4057"/>
</g>
<path d="M202.391 65.9759C202.391 63.3559 204.515 61.2319 207.135 61.2319H213.623C216.243 61.2319 218.367 63.3559 218.367 65.9759V65.9759C218.367 68.5959 216.243 70.7199 213.623 70.7199H207.135C204.515 70.7199 202.391 68.5959 202.391 65.9759V65.9759Z" fill="#8BBBF4" fill-opacity="0.4"/>
<path d="M206.369 66.9758H207.338C207.991 66.9758 208.379 66.6544 208.379 66.1136C208.379 65.7049 208.11 65.4111 207.693 65.3579V65.3409C207.989 65.2876 208.223 64.9896 208.223 64.6703C208.223 64.2104 207.868 63.9039 207.342 63.9039H206.369C206.252 63.9039 206.177 63.9805 206.177 64.1019V66.7778C206.177 66.8992 206.252 66.9758 206.369 66.9758ZM206.561 65.228V64.2424H207.255C207.627 64.2424 207.836 64.4105 207.836 64.715C207.836 65.0471 207.589 65.228 207.135 65.228H206.561ZM206.561 66.6373V65.558H207.244C207.734 65.558 207.985 65.739 207.985 66.0945C207.985 66.45 207.742 66.6373 207.28 66.6373H206.561ZM209.684 67.0141C210.088 67.0141 210.399 66.8438 210.542 66.5437C210.559 66.5032 210.569 66.4649 210.569 66.4351C210.569 66.3372 210.503 66.2733 210.405 66.2733C210.348 66.2733 210.305 66.2946 210.267 66.3478C210.095 66.599 209.933 66.6927 209.669 66.6927C209.273 66.6927 209.028 66.4159 209.028 65.9689H210.412C210.539 65.9689 210.616 65.888 210.616 65.7539C210.616 65.1471 210.218 64.7235 209.652 64.7235C209.041 64.7235 208.647 65.1791 208.647 65.8773C208.647 66.5926 209.03 67.0141 209.684 67.0141ZM209.03 65.6793C209.054 65.2983 209.3 65.0449 209.645 65.0449C209.988 65.0449 210.224 65.2962 210.233 65.6793H209.03ZM211.11 66.4649C211.11 66.8183 211.289 66.9929 211.647 66.9929H211.67C211.876 66.9929 211.94 66.9333 211.94 66.8204C211.94 66.7331 211.885 66.6842 211.764 66.6757L211.732 66.6735C211.546 66.6608 211.48 66.5713 211.48 66.384V65.0662H211.766C211.872 65.0662 211.932 65.0109 211.932 64.913C211.932 64.8172 211.872 64.7618 211.766 64.7618H211.48V64.3829C211.48 64.2658 211.404 64.1849 211.295 64.1849C211.187 64.1849 211.11 64.2658 211.11 64.3829V64.7618H210.925C210.818 64.7618 210.759 64.8172 210.759 64.913C210.759 65.0109 210.818 65.0662 210.925 65.0662H211.11V66.4649ZM212.909 67.0141C213.207 67.0141 213.49 66.8481 213.622 66.5948H213.631V66.8268C213.631 66.9375 213.703 67.0141 213.807 67.0141C213.909 67.0141 213.982 66.9375 213.982 66.8268V65.4452C213.982 65.0045 213.654 64.7235 213.135 64.7235C212.775 64.7235 212.451 64.8832 212.326 65.1258C212.296 65.1791 212.281 65.2323 212.281 65.2791C212.281 65.3792 212.349 65.4452 212.445 65.4452C212.515 65.4452 212.564 65.4175 212.598 65.3558C212.722 65.1365 212.886 65.0492 213.126 65.0492C213.433 65.0492 213.611 65.211 213.611 65.4814V65.6666L212.975 65.7028C212.464 65.7326 212.172 65.971 212.172 66.3499C212.172 66.748 212.468 67.0141 212.909 67.0141ZM212.992 66.6991C212.726 66.6991 212.549 66.5607 212.549 66.3499C212.549 66.1413 212.719 66.0093 213.017 65.9902L213.611 65.954V66.1349C213.611 66.4543 213.341 66.6991 212.992 66.6991Z" fill="#2F86EB"/>
<defs>
<filter id="filter0_d_601_16374" x="77" y="0" width="236" height="236" filterUnits="userSpaceOnUse" color-interpolation-filters="sRGB">
<feFlood flood-opacity="0" result="BackgroundImageFix"/>
<feColorMatrix in="SourceAlpha" type="matrix" values="0 0 0 0 0 0 0 0 0 0 0 0 0 0 0 0 0 0 127 0" result="hardAlpha"/>
<feOffset dy="29"/>
<feGaussianBlur stdDeviation="32.5"/>
<feComposite in2="hardAlpha" operator="out"/>
<feColorMatrix type="matrix" values="0 0 0 0 0.54386 0 0 0 0 0.734649 0 0 0 0 0.95614 0 0 0 0.4 0"/>
<feBlend mode="normal" in2="BackgroundImageFix" result="effect1_dropShadow_601_16374"/>
<feBlend mode="normal" in="SourceGraphic" in2="effect1_dropShadow_601_16374" result="shape"/>
</filter>
<filter id="filter1_d_601_16374" x="-18" y="101" width="231" height="210" filterUnits="userSpaceOnUse" color-interpolation-filters="sRGB">
<feFlood flood-opacity="0" result="BackgroundImageFix"/>
<feColorMatrix in="SourceAlpha" type="matrix" values="0 0 0 0 0 0 0 0 0 0 0 0 0 0 0 0 0 0 127 0" result="hardAlpha"/>
<feOffset dy="4"/>
<feGaussianBlur stdDeviation="2"/>
<feComposite in2="hardAlpha" operator="out"/>
<feColorMatrix type="matrix" values="0 0 0 0 0 0 0 0 0 0 0 0 0 0 0 0 0 0 0.25 0"/>
<feBlend mode="normal" in2="BackgroundImageFix" result="effect1_dropShadow_601_16374"/>
<feBlend mode="normal" in="SourceGraphic" in2="effect1_dropShadow_601_16374" result="shape"/>
</filter>
<filter id="filter2_d_601_16374" x="187" y="94" width="232" height="222" filterUnits="userSpaceOnUse" color-interpolation-filters="sRGB">
<feFlood flood-opacity="0" result="BackgroundImageFix"/>
<feColorMatrix in="SourceAlpha" type="matrix" values="0 0 0 0 0 0 0 0 0 0 0 0 0 0 0 0 0 0 127 0" result="hardAlpha"/>
<feOffset dy="4"/>
<feGaussianBlur stdDeviation="2"/>
<feComposite in2="hardAlpha" operator="out"/>
<feColorMatrix type="matrix" values="0 0 0 0 0 0 0 0 0 0 0 0 0 0 0 0 0 0 0.25 0"/>
<feBlend mode="normal" in2="BackgroundImageFix" result="effect1_dropShadow_601_16374"/>
<feBlend mode="normal" in="SourceGraphic" in2="effect1_dropShadow_601_16374" result="shape"/>
</filter>
<filter id="filter3_d_601_16374" x="167.487" y="63.0764" width="36.7283" height="15.2041" filterUnits="userSpaceOnUse" color-interpolation-filters="sRGB">
<feFlood flood-opacity="0" result="BackgroundImageFix"/>
<feColorMatrix in="SourceAlpha" type="matrix" values="0 0 0 0 0 0 0 0 0 0 0 0 0 0 0 0 0 0 127 0" result="hardAlpha"/>
<feOffset dy="4"/>
<feGaussianBlur stdDeviation="2"/>
<feComposite in2="hardAlpha" operator="out"/>
<feColorMatrix type="matrix" values="0 0 0 0 0 0 0 0 0 0 0 0 0 0 0 0 0 0 0.25 0"/>
<feBlend mode="normal" in2="BackgroundImageFix" result="effect1_dropShadow_601_16374"/>
<feBlend mode="normal" in="SourceGraphic" in2="effect1_dropShadow_601_16374" result="shape"/>
</filter>
<clipPath id="clip0_601_16374">
<rect width="223" height="202" fill="white" transform="translate(-14 101)"/>
</clipPath>
</defs>
</svg>
