<svg width="271" height="337" viewBox="0 0 271 337" fill="none" xmlns="http://www.w3.org/2000/svg">
<g clip-path="url(#clip0_628_16410)">
<path d="M271 200.99C271.002 206.348 270.687 211.702 270.057 217.023C270.062 217.044 270.062 217.067 270.057 217.088C268.424 231.011 264.619 244.592 258.781 257.337C258.576 257.773 258.345 258.249 258.148 258.698C257.191 260.735 256.184 262.739 255.128 264.712C255.032 264.899 254.932 265.087 254.832 265.27C249.413 275.3 242.753 284.609 235.011 292.977C234.566 293.463 234.116 293.943 233.662 294.417C232.999 295.115 232.327 295.809 231.646 296.49C223.594 304.592 214.555 311.65 204.742 317.498L203.891 317.995L203.486 318.231H203.464C203.435 318.252 203.405 318.269 203.372 318.283C182.628 330.267 159.079 336.543 135.122 336.472C111.165 336.4 87.6546 329.985 66.9819 317.877C66.2314 317.441 65.4895 317.005 64.7476 316.533L64.5381 316.407C52.4063 308.928 41.524 299.59 32.2887 288.735C31.5992 287.923 30.9184 287.104 30.2464 286.278C28.9459 284.678 27.6819 283.047 26.4541 281.386C22.508 276.04 18.9594 270.411 15.8367 264.546C7.41828 248.741 2.23196 231.419 0.580403 213.588C0.580403 213.475 0.558583 213.357 0.549855 213.244C0.183285 209.208 0 205.124 0 200.99C0 149.059 29.2078 103.962 72.0877 81.2128C82.6121 75.6357 93.8269 71.4729 105.441 68.8324C122.993 64.8872 141.15 64.4423 158.873 67.5232C170.844 69.6128 182.477 73.3105 193.457 78.5159C239.309 100.218 271 146.903 271 200.99Z" fill="#F1F4F8"/>
<path d="M26.4279 281.404C22.4818 276.057 18.9331 270.429 15.8105 264.563C7.39894 248.751 2.22149 231.423 0.580352 213.588C0.580352 213.475 0.558533 213.357 0.549805 213.243L5.17557 210.477C5.54605 210.375 5.92195 210.295 6.30146 210.237C22.8538 207.483 26.5283 245.803 26.4279 281.404Z" fill="#FFCFB8"/>
<path d="M270.057 217.022C270.062 217.044 270.062 217.066 270.057 217.088C268.424 231.011 264.619 244.592 258.781 257.336C258.576 257.773 258.345 258.249 258.148 258.698C257.191 260.734 256.184 262.739 255.128 264.712C255.032 264.899 254.932 265.087 254.832 265.27C249.413 275.3 242.753 284.609 235.011 292.977C234.107 259.239 235.748 217.407 248.678 209.556C248.678 209.556 248.7 209.556 248.709 209.556C249.998 208.755 251.478 208.315 252.994 208.282C254.026 208.245 255.056 208.368 256.049 208.648L270.057 217.022Z" fill="#FFCFB8"/>
<path fill-rule="evenodd" clip-rule="evenodd" d="M258.148 258.698C257.311 260.48 256.435 262.238 255.522 263.971C255.392 264.218 255.26 264.465 255.128 264.712C255.032 264.899 254.932 265.087 254.832 265.27C250.09 274.047 244.399 282.271 237.863 289.795C236.929 290.87 235.979 291.931 235.011 292.977C234.566 293.463 234.116 293.943 233.662 294.417C233.082 295.028 232.495 295.635 231.901 296.234C231.86 296.275 231.82 296.316 231.779 296.356C231.735 296.401 231.691 296.445 231.646 296.49C223.594 304.592 214.555 311.65 204.742 317.498L203.892 317.995L203.486 318.231H203.464C203.435 318.252 203.405 318.269 203.372 318.283C182.628 330.267 159.079 336.543 135.122 336.472C111.165 336.4 87.6546 329.985 66.982 317.877C66.2314 317.441 65.4895 317.005 64.7476 316.533L64.5382 316.407C52.4063 308.928 41.524 299.59 32.2887 288.735C32.2818 288.727 32.2749 288.719 32.2679 288.711C32.2662 288.725 32.2644 288.739 32.2626 288.753C31.5731 287.941 30.8923 287.122 30.2202 286.296C28.9198 284.696 27.6557 283.065 26.428 281.404C22.4819 276.057 18.9332 270.429 15.8106 264.563C10.5196 254.618 6.50819 244.071 3.85162 233.177C3.84638 233.155 3.84115 233.134 3.83592 233.112C3.83592 233.112 3.83592 233.112 3.83592 233.112C2.2775 226.708 1.18724 220.182 0.580444 213.588L5.11455 210.931C5.11455 210.931 5.11455 210.931 5.11455 210.931C5.11455 210.822 5.13554 210.711 5.15535 210.607L5.15536 210.607C5.16265 210.568 5.16978 210.531 5.17564 210.494C6.261 209.911 7.37777 209.389 8.52082 208.929L8.64935 208.853H8.6799L10.0851 208.033C10.1342 208.066 10.1859 208.095 10.2381 208.124C10.2832 208.149 10.3286 208.175 10.3731 208.203C10.3815 208.208 10.3899 208.213 10.3983 208.218C28.5999 201.503 69.7432 195.565 92.0615 192.698L92.6113 192.628C96.7775 192.087 100.252 191.673 102.755 191.375C103.907 191.238 104.854 191.125 105.568 191.035L107.1 190.861L124.9 190.246H138.28L153.458 190.774L156.076 190.861C156.076 190.861 163.058 191.638 173.396 192.991L174.012 193.073C196.914 196.08 235.63 201.823 252.999 208.299L253.991 208.672L254.051 208.679C255.392 208.836 256.686 209.27 257.852 209.953L270.049 217.088C268.418 231.01 264.616 244.591 258.781 257.337C258.731 257.444 258.679 257.554 258.626 257.665L258.622 257.673C258.462 258.011 258.295 258.362 258.148 258.698Z" fill="#2F86EB"/>
<path d="M100.807 200.382V167.138H163.211V200.382C143.937 211.656 120.081 211.656 100.807 200.382Z" fill="#F9D8D1"/>
<path d="M100.807 176.816V143.573H163.211V176.816C143.937 188.09 120.081 188.09 100.807 176.816Z" fill="#EBC3BC"/>
<path d="M73.6281 110.407C72.7073 109.024 71.324 55.614 71.324 55.614L196.106 51.7781C196.106 51.7781 192.423 107.636 184.136 113.632C175.849 119.628 73.6281 110.407 73.6281 110.407Z" fill="#092E5E"/>
<path d="M85.4065 58.3718H177.808V161.71C177.809 163.397 177.477 165.069 176.831 166.628C176.185 168.187 175.239 169.604 174.045 170.797C172.852 171.99 171.435 172.936 169.875 173.582C168.316 174.227 166.644 174.558 164.957 174.557L160.627 175.917C141.733 181.85 121.474 181.85 102.579 175.917L98.2495 174.557C94.8433 174.557 91.5767 173.204 89.1681 170.795C86.7596 168.387 85.4065 165.12 85.4065 161.714V58.3718Z" fill="#F9D8D1"/>
<path d="M84.143 134.308C90.1577 132.839 93.1652 124 90.8605 114.567C88.5558 105.134 81.8115 98.6789 75.7968 100.148C69.7821 101.618 66.7746 110.456 69.0793 119.889C71.3841 129.322 78.1283 135.778 84.143 134.308Z" fill="#F9D8D1"/>
<path d="M192.264 119.887C194.569 110.454 191.561 101.616 185.547 100.146C179.532 98.6766 172.788 105.132 170.483 114.565C168.178 123.998 171.186 132.836 177.201 134.306C183.215 135.775 189.959 129.32 192.264 119.887Z" fill="#F9D8D1"/>
<path d="M76.8488 44.5601C76.8488 44.5601 61.6536 51.01 71.3241 60.6587C80.7502 70.0891 164.158 77.3289 194.352 55.0641C195.959 53.8408 197.08 52.0873 197.516 50.1154C198.559 45.6075 197.712 41.2566 186.898 39.0179C192.886 37.1764 204.393 24.2853 188.277 7.24854C189.198 12.3151 180.453 32.1229 162.033 24.7435C139.934 15.5356 94.8282 1.7238 80.0738 15.5356C65.3193 29.3475 72.2449 43.6393 76.8488 44.5601Z" fill="#314F82"/>
<path d="M258.126 258.698C257.169 260.735 256.163 262.739 255.107 264.712C254.984 260.036 254.752 255.364 254.408 250.695C254.007 245.567 253.536 240.431 252.855 235.312C252.174 230.193 251.436 225.087 250.437 219.99C252.154 224.902 253.555 229.919 254.631 235.011C255.725 240.099 256.598 245.232 257.249 250.411C257.62 253.16 257.908 255.927 258.126 258.698Z" fill="#146CD1"/>
<path fill-rule="evenodd" clip-rule="evenodd" d="M180.043 113.456C181.582 111.301 183.663 110.127 185.593 110.599C188.576 111.327 190.067 115.71 188.925 120.388C187.782 125.066 184.437 128.267 181.454 127.539C179.167 126.98 177.757 124.272 177.739 120.93C177.604 119.451 177.612 117.962 177.765 116.482C177.932 114.491 178.362 112.53 179.043 110.652C179.403 109.69 179.865 108.77 180.422 107.907C180.986 107.007 181.716 106.224 182.574 105.598C183.443 104.957 184.477 104.577 185.554 104.503C186.575 104.452 187.592 104.662 188.509 105.114C187.567 105.044 186.621 105.139 185.711 105.393C184.874 105.645 184.109 106.094 183.481 106.702C182.238 107.92 181.435 109.583 180.763 111.293C180.505 112.008 180.265 112.729 180.043 113.456Z" fill="#EBC3BC"/>
<path fill-rule="evenodd" clip-rule="evenodd" d="M84.5546 122.124C84.5894 125.551 83.1694 128.35 80.8394 128.92C77.8567 129.648 74.5121 126.447 73.3692 121.769C72.2263 117.091 73.7178 112.708 76.7005 111.98C78.6259 111.509 80.7019 112.676 82.2393 114.821C82.0182 114.101 81.7792 113.386 81.5226 112.677C80.8549 110.962 80.0476 109.299 78.8082 108.081C78.1778 107.476 77.414 107.028 76.5783 106.772C75.6672 106.52 74.7196 106.425 73.7766 106.493C74.6965 106.046 75.7136 105.836 76.7354 105.882C77.812 105.96 78.8449 106.34 79.7159 106.977C80.5729 107.605 81.303 108.39 81.8674 109.29C82.4234 110.154 82.8856 111.074 83.2463 112.035C84.3848 115.275 84.828 118.712 84.5546 122.124Z" fill="#EBC3BC"/>
<path d="M100.026 14.6323C100.026 14.6323 105.55 -8.06011 129.801 4.19381C154.051 16.4477 173.392 32.4372 187.213 26.62" stroke="#314F82" stroke-width="1.10844" stroke-miterlimit="10"/>
<path d="M88.6663 43.2029C88.6504 45.7115 89.1248 48.199 90.0628 50.5256C91.0044 52.8148 92.4376 54.8692 94.2609 56.5435C96.0744 58.2091 98.1697 59.539 100.449 60.471C102.731 61.4032 105.118 62.0525 107.558 62.4042C112.475 63.0986 117.461 63.1631 122.395 62.5962C124.845 62.3444 127.262 61.8414 129.609 61.095C131.909 60.3598 134.055 59.2091 135.941 57.6999C137.81 56.1634 139.398 54.3131 140.632 52.2319C141.941 50.1416 143.015 47.868 144.368 45.686C145.048 44.5711 145.817 43.5131 146.667 42.5222C147.54 41.521 148.534 40.6326 149.626 39.8776C151.818 38.4166 154.31 37.4653 156.918 37.0934C161.937 36.3297 167.013 36.0128 172.087 36.1465C174.62 36.2289 177.144 36.487 179.641 36.9189C182.145 37.2949 184.586 38.0083 186.898 39.0397C185.727 38.5861 184.518 38.2385 183.285 38.0011C182.059 37.7393 180.819 37.5647 179.576 37.3945C177.088 37.1059 174.583 36.9892 172.078 37.0454C167.079 37.0902 162.092 37.5706 157.176 38.4812C154.805 38.9061 152.55 39.8233 150.556 41.1737C149.587 41.8696 148.708 42.6815 147.937 43.5913C147.167 44.5276 146.471 45.5227 145.856 46.5675C144.603 48.6797 143.503 50.9576 142.164 53.1614C140.835 55.4271 139.12 57.443 137.097 59.1182C135.032 60.7517 132.687 61.9954 130.176 62.7882C127.714 63.5686 125.173 64.0778 122.6 64.3069C117.509 64.8307 112.37 64.653 107.326 63.7788C104.791 63.3328 102.321 62.578 99.9689 61.5314C97.6029 60.4735 95.4486 58.9949 93.6106 57.1675C91.8409 55.3253 90.4844 53.1268 89.6318 50.7187C88.7792 48.3106 88.45 45.7483 88.6663 43.2029Z" fill="#4377A2"/>
<path d="M135.324 275.804C133.288 277.022 130.907 277.723 128.362 277.723C120.856 277.723 114.771 271.626 114.771 264.106C114.771 256.697 120.678 250.67 128.031 250.494V250.49H135.987C143.31 250.49 149.246 256.437 149.246 263.774V286.358H135.324V275.804Z" fill="#FA6142"/>
<circle cx="128.352" cy="264.071" r="8.35759" fill="#D83A21"/>
<path d="M170.848 191.577C166.411 212.451 156.403 249.617 132.664 249.617" stroke="#53647A" stroke-width="2.61836" stroke-linecap="round"/>
<circle cx="132.882" cy="249.399" r="2.18196" stroke="#FA6142" stroke-width="2.18196"/>
<path d="M94.4791 191.358C98.9158 212.233 108.924 249.399 132.664 249.399" stroke="#53647A" stroke-width="2.61836" stroke-linecap="round"/>
</g>
<defs>
<clipPath id="clip0_628_16410">
<rect width="271" height="336.49" fill="white"/>
</clipPath>
</defs>
</svg>
