<svg width="100%" height="304" viewBox="0 0 348 304" fill="none" xmlns="http://www.w3.org/2000/svg">
<path d="M305 135.5C305.02 155.27 300.696 174.804 292.332 192.725C283.968 210.646 271.769 226.519 256.593 239.224C232.154 259.79 201.205 271.048 169.239 271C137.272 271.049 106.321 259.791 81.8807 239.224C66.7056 226.519 54.5068 210.646 46.1441 192.725C37.7813 174.803 33.458 155.27 33.4789 135.5C33.4299 103.804 44.5612 73.1024 64.9214 48.7779C67.7176 45.4355 70.6654 42.2328 73.7649 39.1695C99.1535 14.034 133.479 -0.0485097 169.239 -0.000118207C204.998 -0.0488268 239.322 14.0338 264.709 39.1695C267.812 42.2261 270.76 45.4288 273.552 48.7779C293.916 73.1006 305.05 103.803 305 135.5Z" fill="#CCE3FF"/>
<path d="M235.657 9.09102e-05C235.657 9.09102e-05 236.025 3.96796 236.794 11.0708C240.316 43.6319 252.189 142.072 274.99 226.264C254.172 256.257 223.389 277.926 188.106 287.425C152.85 297.032 115.336 293.859 82.2252 278.47C59.4236 194.279 19.9961 103.301 6.60512 73.413C3.68428 66.893 2 63.2815 2 63.2815L235.657 9.09102e-05Z" fill="white"/>
<path d="M164.514 59.8906L93.6372 79.0863C88.7041 80.4223 85.7857 85.4955 87.1188 90.4176C88.4518 95.3396 93.5315 98.2467 98.4646 96.9107L169.342 77.715C174.275 76.379 177.193 71.3058 175.86 66.3837C174.527 61.4616 169.447 58.5546 164.514 59.8906Z" fill="#84B8FF"/>
<path d="M211.223 78.8258L62.8677 119.005C60.1856 119.731 58.5991 122.49 59.3241 125.167L59.3256 125.173C60.0506 127.85 62.8126 129.431 65.4947 128.705L213.85 88.5255C216.532 87.7991 218.119 85.0401 217.394 82.3632L217.392 82.3576C216.667 79.6807 213.905 78.0994 211.223 78.8258Z" fill="#E1E7F0"/>
<path d="M215.29 93.8402L66.934 134.019C64.2519 134.746 62.6654 137.505 63.3904 140.182L63.3919 140.187C64.1169 142.864 66.8789 144.445 69.5609 143.719L217.916 103.54C220.599 102.813 222.185 100.055 221.46 97.3776L221.459 97.372C220.734 94.6951 217.972 93.1138 215.29 93.8402Z" fill="#E1E7F0"/>
<path d="M219.354 108.849L70.9987 149.028C68.3166 149.754 66.7301 152.513 67.4551 155.19L67.4566 155.196C68.1816 157.873 70.9436 159.454 73.6256 158.727L221.981 118.548C224.663 117.822 226.25 115.063 225.525 112.386L225.523 112.38C224.798 109.703 222.036 108.122 219.354 108.849Z" fill="#E1E7F0"/>
<path d="M189.831 153.37L118.954 172.566C114.021 173.902 111.103 178.975 112.436 183.897C113.769 188.819 118.849 191.726 123.782 190.39L194.659 171.194C199.592 169.858 202.51 164.785 201.177 159.863C199.844 154.941 194.764 152.034 189.831 153.37Z" fill="#84B8FF"/>
<path d="M236.54 172.305L88.1847 212.485C85.5026 213.211 83.9161 215.97 84.6411 218.647L84.6426 218.652C85.3676 221.329 88.1296 222.911 90.8117 222.184L239.167 182.005C241.849 181.279 243.436 178.52 242.711 175.843L242.709 175.837C241.984 173.16 239.222 171.579 236.54 172.305Z" fill="#E1E7F0"/>
<path d="M240.607 187.319L92.251 227.498C89.5689 228.225 87.9824 230.984 88.7074 233.661L88.7089 233.666C89.4339 236.343 92.1959 237.924 94.878 237.198L243.233 197.019C245.916 196.292 247.502 193.534 246.777 190.857L246.776 190.851C246.051 188.174 243.289 186.593 240.607 187.319Z" fill="#E1E7F0"/>
<path d="M244.671 202.328L96.3158 242.507C93.6337 243.234 92.0472 245.993 92.7722 248.67L92.7737 248.675C93.4987 251.352 96.2607 252.933 98.9428 252.207L247.298 212.028C249.98 211.301 251.567 208.542 250.842 205.865L250.84 205.86C250.115 203.183 247.353 201.602 244.671 202.328Z" fill="#E1E7F0"/>
<g clip-path="url(#clip0_114_4251)">
<path d="M261.134 290.026C261.134 290.026 231.409 204.813 222.743 191.207C214.076 177.602 196.185 130.209 196.185 130.209C196.185 130.209 212.358 125.258 217.378 124.154C222.398 123.049 227.682 116.767 227.682 116.767C227.35 117.864 225.978 117.541 223.745 111.766C222.255 107.926 215.894 108.098 215.894 108.098C215.894 108.098 201.485 112.415 188.853 113.453C186.075 115.049 182.873 115.754 179.682 115.471C174.84 114.826 173.548 113.278 175.486 110.363C175.486 110.363 170.999 106.579 181.487 97.4728C181.487 97.4728 172 92.0959 174.855 86.6449C177.71 81.194 185.853 74.6413 185.853 74.6413C185.853 74.6413 185.468 71.0807 186.951 69.8126C188.433 68.5445 196.744 62.7123 201.008 58.1289C205.273 53.5454 207.507 53.3201 216.729 51.0248C225.951 48.7294 236.769 43.9124 241.443 44.9114C245.075 45.6891 247.953 51.2301 247.953 51.2301C251.254 51.5277 252.677 56.5082 253.145 57.7055C255.272 63.0432 266.699 84.5911 270.408 87.9526C274.117 91.3141 277.271 97.9208 277.559 101.697C277.847 105.473 277.481 109.906 277.816 117.573C278.152 125.24 279.376 151.654 278.843 159.471C278.311 167.288 279.914 180.297 282.426 186.226L332.032 256.529" fill="#F9D8D1"/>
<path opacity="0.4" d="M250.392 75.8613C250.392 75.8613 245.048 80.9383 245.568 83.3017C245.568 83.3017 235.811 94.7971 236.773 105.592C236.773 105.592 231.727 113.604 230.958 116.906C230.19 120.208 224.75 125.081 224.75 125.081C222.964 125.301 221.192 125.622 219.443 126.044C216.373 126.249 213.292 126.243 210.223 126.025C213.112 125.195 215.776 124.455 217.326 124.104C221.458 123.195 225.854 118.746 227.238 117.264C226.613 117.402 225.413 116.089 223.745 111.766C222.258 107.936 215.894 108.098 215.894 108.098C215.894 108.098 201.485 112.415 188.855 113.463C186.975 114.532 184.902 115.218 182.756 115.481C182.633 114.696 182.355 113.944 181.939 113.267C181.523 112.591 180.977 112.003 180.332 111.54C180.332 111.54 185.16 106.535 183.047 103.959C182.039 102.727 179.32 102.424 176.735 102.45C178.133 100.609 179.731 98.928 181.5 97.4394C181.5 97.4394 172.013 92.0624 174.868 86.6115C177.723 81.1605 185.863 74.5981 185.863 74.5981C185.863 74.5981 185.482 71.0472 186.961 69.7693C186.961 69.7693 187.165 75.346 194.472 73.2364C201.779 71.1269 211.485 64.3736 211.485 64.3736C211.485 64.3736 231.726 60.5036 235.127 56.5095C235.127 56.5095 240.928 59.6053 244.659 59.5318C248.391 59.4582 250.392 75.8613 250.392 75.8613Z" fill="#ECB6AC"/>
<path opacity="0.4" d="M277.568 101.695C277.844 105.413 277.481 109.906 277.816 117.573C278.152 125.24 279.378 151.664 278.843 159.471C278.309 167.278 279.914 180.297 282.426 186.226L286.596 192.148C278.356 182.944 275.791 169.051 275.472 165.322C275.07 160.752 274.786 143.592 275.847 134.45C276.907 125.309 273.26 107.476 273.125 106.861C272.989 106.245 272.441 111.107 271.971 116.463C271.501 121.819 268.866 137.205 268.866 137.205C268.026 134.318 266.667 116.647 266.676 114.597C266.686 112.547 267.323 98.5943 267.12 94.7889C266.918 90.9835 263.096 87.4829 261.709 84.6653C260.321 81.8478 254.565 69.4652 251.815 60.6401C250.425 55.8004 248.142 51.2636 245.083 47.2642C246.19 48.4675 247.138 49.8072 247.906 51.2508C251.207 51.5484 252.628 56.5191 253.096 57.7164C255.223 63.0541 266.65 84.6019 270.362 87.9732C274.073 91.3445 277.273 97.9307 277.568 101.695Z" fill="#ECB6AC"/>
<path opacity="0.4" d="M255.791 274.911C247.125 250.646 230.322 204.53 223.452 192.382C226.955 195.134 231.245 199.883 235.803 209.846C244.879 229.925 248.265 238.846 250.587 248.513C252.072 254.657 254.487 266.054 255.791 274.911Z" fill="#ECB6AC"/>
<path d="M175.497 110.32C175.497 110.32 178.833 113.241 187.407 109.86C195.98 106.479 204.673 95.2589 204.673 95.2589L210.457 91.1602C210.457 91.1602 218.77 90.273 221.418 88.2057" stroke="#F9D8D1" stroke-linecap="round" stroke-linejoin="round"/>
<path d="M217.027 89.9807C217.027 89.9807 223.567 94.4805 228.099 94.835" stroke="#F9D8D1" stroke-linecap="round" stroke-linejoin="round"/>
<path d="M227.682 116.767C230.776 113.66 234.118 106.136 238.339 104.705" stroke="#F9D8D1" stroke-linecap="round" stroke-linejoin="round"/>
<path d="M225.191 109.124C225.724 102.238 230.142 94.3957 230.142 94.3957C230.634 92.0333 231.396 89.7355 232.414 87.5476C233.394 85.0841 235.268 83.0812 237.661 81.939C237.661 81.939 229.357 68.5814 230.23 65.3379" stroke="#F9D8D1" stroke-linecap="round" stroke-linejoin="round"/>
<path d="M215.893 108.097C215.893 108.097 219.591 105.963 219.917 103.116" stroke="#F9D8D1" stroke-linecap="round" stroke-linejoin="round"/>
<path d="M213.815 102.841C213.815 102.841 214.478 107.016 208.57 109.668" stroke="#F9D8D1" stroke-linecap="round" stroke-linejoin="round"/>
<path d="M210.437 91.1644C210.437 91.1644 213.063 88.4366 213.642 86.1383" stroke="#F9D8D1" stroke-linecap="round" stroke-linejoin="round"/>
<path d="M185.855 74.559C185.855 74.559 185.441 77.9368 190.326 78.1727C195.211 78.4085 207.27 74.3012 211.482 68.9204C211.482 68.9204 211.959 65.0373 211.068 62.8064" stroke="#F9D8D1" stroke-linecap="round" stroke-linejoin="round"/>
<path d="M210.92 69.5766C210.92 69.5766 225.907 65.7466 227.069 65.4909C228.231 65.2352 232.323 61.7751 232.655 58.999" stroke="#F9D8D1" stroke-linecap="round" stroke-linejoin="round"/>
<path d="M237.698 81.9207C237.698 81.9207 241.354 82.3448 243.596 81.3191" stroke="#F9D8D1" stroke-linecap="round" stroke-linejoin="round"/>
<path d="M235.26 106.908C235.26 106.908 233.466 101.313 235.672 92.3497" stroke="#F9D8D1" stroke-linecap="round" stroke-linejoin="round"/>
<path d="M247.904 51.241C251.708 58.7591 260.63 84.278 263.851 88.7709C267.072 93.2638 267.697 94.8975 267.175 99.876C266.652 104.855 266.627 116.605 266.627 116.605" stroke="#F9D8D1" stroke-linecap="round" stroke-linejoin="round"/>
<path d="M282.376 186.186C279.544 181.269 276.979 174.544 276.916 171.189" stroke="#F9D8D1" stroke-linecap="round" stroke-linejoin="round"/>
<path d="M159.75 95.5694C159.75 95.5694 155.648 97.3114 154.712 99.9441C154.712 99.9441 156.402 101.62 161.452 99.956C166.503 98.2919 159.75 95.5694 159.75 95.5694Z" fill="#146CD1"/>
<path d="M173.238 84.134L290.105 39.6315L296.39 60.8464L177.72 99.5715L171.494 98.2688L162.268 100.545C161.233 99.9541 160.436 99.0211 160.015 97.9063C159.594 96.7915 159.575 95.5648 159.962 94.4375L169.072 90.2829L173.238 84.134Z" fill="#2F86EB"/>
<path d="M194.27 80.6939L242.523 62.6639C243.009 62.484 243.526 62.4039 244.044 62.4284C244.562 62.453 245.07 62.5815 245.537 62.8065C246.004 63.0316 246.421 63.3484 246.763 63.7381C247.105 64.1278 247.365 64.5824 247.528 65.0748L247.84 66.0299C248.158 66.9905 248.085 68.0376 247.637 68.9448C247.189 69.852 246.402 70.5463 245.446 70.8776L196.886 87.9308C196.402 88.1012 195.889 88.1729 195.376 88.1415C194.864 88.1102 194.363 87.9765 193.904 87.7483C193.444 87.5201 193.035 87.2021 192.7 86.8131C192.365 86.424 192.112 85.9719 191.955 85.4832C191.65 84.5404 191.721 83.5165 192.152 82.6245C192.583 81.7325 193.342 81.041 194.27 80.6939Z" fill="#146CD1"/>
<path opacity="0.3" d="M296.39 60.8462L177.722 99.5811L171.494 98.2686L162.268 100.544C161.675 100.208 161.157 99.7542 160.745 99.2104L170.439 96.7295L174.822 96.1746L191.396 91.0432L194.299 80.6875C194.299 80.6875 198.515 79.1865 202.961 82.8262C207.407 86.4658 209.216 85.4739 209.216 85.4739L290.406 58.4973L291.168 57.3058C291.168 57.3058 286.146 50.4446 288.131 43.5059C288.629 41.7682 289.459 40.9304 290.438 40.7253L296.39 60.8462Z" fill="black" fill-opacity="0.7"/>
<path d="M173.238 84.134L290.105 39.6315L296.39 60.8464L177.72 99.5715L171.494 98.2688L162.268 100.545C161.233 99.9541 160.436 99.0211 160.015 97.9063C159.594 96.7915 159.575 95.5648 159.962 94.4375L169.072 90.2829L173.238 84.134Z" stroke="#146CD1" stroke-linecap="round" stroke-linejoin="round"/>
<path d="M290.105 39.6314C298.328 37.1258 304.825 58.0895 296.39 60.8463C288.32 63.4923 281.756 42.1748 290.105 39.6314Z" fill="#2F86EB"/>
<path opacity="0.3" d="M296.39 60.8462C294.184 61.5672 292.084 60.4933 290.377 58.5037L291.138 57.3122C291.138 57.3122 286.117 50.451 288.102 43.5123C288.6 41.7746 289.43 40.9369 290.408 40.7317C293.338 40.0871 297.573 45.0941 298.119 48.1789L299.457 48.212C301.153 53.5011 300.632 59.4624 296.39 60.8462Z" fill="black" fill-opacity="0.7"/>
<path d="M290.105 39.6314C298.328 37.1258 304.825 58.0895 296.39 60.8463C288.32 63.4923 281.756 42.1748 290.105 39.6314Z" stroke="#146CD1" stroke-linecap="round" stroke-linejoin="round"/>
<path d="M173.238 84.1339C173.238 84.1339 171.516 87.6663 173.416 93.2281C174.197 95.7191 175.694 97.9252 177.72 99.5715" stroke="#146CD1" stroke-linecap="round" stroke-linejoin="round"/>
<path d="M169.072 90.2827C168.926 91.708 169.065 93.1479 169.481 94.5189C169.897 95.8899 170.581 97.1645 171.494 98.2687" stroke="#146CD1" stroke-linecap="round" stroke-linejoin="round"/>
<path d="M291.203 62.5405C283.131 65.1766 276.971 44.7636 285.079 41.5461" stroke="#146CD1" stroke-linecap="round" stroke-linejoin="round"/>
<path d="M290.567 40.9425C297.062 38.9094 302.552 57.0639 295.886 59.2984C289.509 61.449 283.977 43.0069 290.567 40.9425Z" stroke="#146CD1" stroke-linecap="round" stroke-linejoin="round"/>
<path d="M290.877 42.2568C290.877 42.2568 294.616 42.7755 296.613 48.92C298.61 55.0644 295.49 57.7781 295.49 57.7781" stroke="#146CD1" stroke-linecap="round" stroke-linejoin="round"/>
<path d="M229.248 123.887C229.248 123.887 220.57 126.329 219.482 126.036C218.394 125.743 210.606 116.643 209.675 113.48C208.743 110.316 205.947 100.119 204.245 93.7353C202.544 87.3518 200.374 77.3033 188.724 82.1089C183.538 84.2738 183.754 89.5815 184.486 101.472C185.218 113.362 187.561 116.052 189.501 131.014C191.442 145.977 194.268 151.468 198.99 158.18C203.713 164.892 208.992 183.441 218.765 188.581C228.538 193.721 234.706 206.35 234.706 206.35" fill="#F9D8D1"/>
<path opacity="0.4" d="M199.575 91.6809C197.476 92.7058 189.036 94.9724 189.115 97.9857C189.194 100.999 194.537 101.175 197.198 103.262C197.12 103.279 188.408 105.196 187.389 109.874C186.371 114.552 191.943 122.89 193.047 127.91C194.152 132.93 192.036 143.931 196.504 148.416C200.436 152.322 205.456 162.204 206.23 172.468C203.444 166.835 201.161 161.296 198.991 158.18C194.27 151.478 191.462 145.973 189.501 131.014C187.541 116.056 185.206 113.355 184.484 101.462C183.957 92.9259 183.694 87.7721 185.527 84.7476C188.177 83.5297 191.27 82.6033 193.451 83.5364C198.108 85.4812 201.681 90.644 199.575 91.6809Z" fill="#EBC3BC"/>
<path d="M209.675 113.48C209.675 113.48 208.787 113.399 207.194 108.486C206.711 107.044 205.886 105.741 204.789 104.688C203.693 103.634 202.357 102.862 200.897 102.438" stroke="#F4CBC2" stroke-linecap="round" stroke-linejoin="round"/>
<path d="M189.597 104.924C189.597 104.924 186.173 106.486 185.854 111.83" stroke="#F4CBC2" stroke-linecap="round" stroke-linejoin="round"/>
</g>
<defs>
<clipPath id="clip0_114_4251">
<rect width="153.07" height="244.4" fill="white" transform="translate(147 64.8923) rotate(-12.4088)"/>
</clipPath>
</defs>
</svg>
