<svg width="37" height="30" viewBox="0 0 37 30" fill="none" xmlns="http://www.w3.org/2000/svg">
<path d="M17.8165 7.60513C16.8118 7.74246 16.4215 7.82196 15.7855 8.03157C14.4628 8.46523 13.4075 9.12296 12.3956 10.1276C11.1163 11.3997 10.2996 12.9681 9.96711 14.7895C9.82978 15.5557 9.86592 17.0952 10.0394 17.9408C10.8778 21.9956 14.3399 24.8434 18.4308 24.8506C19.5078 24.8506 20.1004 24.7639 21.069 24.4675C22.7603 23.9471 24.3215 22.8557 25.3767 21.468C26.3669 20.167 26.9379 18.6853 27.0969 17.0085C27.5234 12.5561 24.4226 8.50137 19.992 7.71354C19.515 7.62681 18.1489 7.55453 17.8165 7.60513ZM20.1294 9.71564C20.8594 9.92524 21.2207 10.0626 21.7484 10.3517C23.3746 11.2479 24.5311 12.7296 25.0587 14.5944C25.2322 15.216 25.2683 16.8856 25.1237 17.6084C24.7768 19.3213 23.7288 20.8825 22.3121 21.8222C21.1268 22.61 19.9053 22.9786 18.5031 22.9786C17.4189 22.9786 16.6239 22.8124 15.7132 22.3859C13.8267 21.4969 12.6631 20.1598 12.027 18.1504C11.8319 17.5361 11.8174 17.4277 11.8246 16.2712C11.8246 15.1437 11.8391 14.9919 12.0198 14.4065C12.8004 11.8695 14.7447 10.1059 17.2961 9.61445C18.0044 9.47712 19.4644 9.53494 20.1294 9.71564Z" fill="#2F86EB"/>
<path d="M30.3204 7.6992C29.7205 7.98108 29.3374 8.58822 29.3374 9.2604C29.3374 10.5325 30.6095 11.3275 31.7732 10.7855C33.0525 10.1928 33.0525 8.32802 31.7732 7.73534C31.3178 7.52573 30.7324 7.50405 30.3204 7.6992Z" fill="#2F86EB"/>
<path d="M12.8293 0.0446983C11.7379 0.196481 10.9067 0.760248 10.3502 1.72877C10.1695 2.03956 9.97432 2.74066 9.97432 3.06591V3.28997L6.67123 3.31888C3.07903 3.34779 3.18022 3.33333 2.26229 3.78146C2.00209 3.90433 1.63348 4.18621 1.29377 4.52592C0.852877 4.95958 0.67941 5.19087 0.448122 5.68236C0.289111 6.02206 0.122872 6.49187 0.0795055 6.72316C0.0216833 7.01227 0 10.113 0 16.2638C0 23.7952 0.0216833 25.4575 0.101189 25.8551C0.411983 27.3223 1.56843 28.5221 3.14408 29.0064C3.55606 29.1292 4.21379 29.1365 18.5031 29.1365C32.5394 29.1365 33.4573 29.1292 33.891 29.0064C35.2209 28.645 36.269 27.6403 36.811 26.2309L36.97 25.8117L36.9917 16.4517C37.0134 6.10157 37.0279 6.54969 36.5508 5.59563C36.2545 4.99572 35.3221 4.06334 34.7439 3.78146C33.826 3.33333 33.9272 3.34779 30.3422 3.31888L27.0391 3.28997L26.9957 2.95026C26.8006 1.54807 26.0127 0.608464 24.6539 0.131432C24.3648 0.0302427 23.6565 0.0157872 18.7922 0.00133165C15.7493 -0.00589612 13.0678 0.0157872 12.8293 0.0446983ZM24.3937 1.98897C24.9792 2.2564 25.1526 2.63947 25.1526 3.66581C25.1526 4.47532 25.2466 4.78612 25.5719 5.01018C25.7525 5.13305 26.0561 5.14028 29.5977 5.17642L33.4284 5.21255L33.826 5.40048C34.3319 5.63899 34.7367 6.04375 34.9752 6.54969L35.1631 6.94722V16.1626V25.378L34.9969 25.79C34.7873 26.3176 34.303 26.8091 33.7681 27.0621L33.3562 27.2573H18.5031H3.65002L3.23804 27.0621C2.69596 26.8091 2.21893 26.3104 2.031 25.8045C1.87922 25.4142 1.87922 25.3202 1.87922 16.2349C1.87922 7.18574 1.87922 7.05564 2.02378 6.66534C2.21893 6.14494 2.65982 5.66068 3.16576 5.41493L3.57775 5.21255L7.40846 5.17642C10.2779 5.1475 11.2753 5.11859 11.3982 5.05354C11.7524 4.84394 11.868 4.56928 11.8969 3.78146C11.9186 3.3767 11.9475 2.93581 11.9692 2.80571C12.0126 2.52382 12.3812 2.08293 12.6847 1.95283C12.8582 1.87332 14.0363 1.85887 18.5031 1.85887C23.7866 1.85164 24.1191 1.85887 24.3937 1.98897Z" fill="#2F86EB"/>
<rect x="18.2" y="13.0559" width="1.21332" height="6.36992" rx="0.606659" fill="#2F86EB"/>
<rect x="15.7733" y="16.9993" width="1.21332" height="6.36992" rx="0.606659" transform="rotate(-90 15.7733 16.9993)" fill="#2F86EB"/>
</svg>
