<svg width="40" height="40" viewBox="0 0 40 40" fill="none" xmlns="http://www.w3.org/2000/svg">
<path d="M32.36 0H7.64001C3.44001 0 0 3.42001 0 7.64001V32.36C0 36.58 3.44001 40 7.64001 40H32.36C36.58 40 40 36.58 40 32.36V7.64001C40 3.42001 36.58 0 32.36 0ZM12.3 7.82001C13.98 7.82001 15.34 9.17999 15.34 10.86C15.34 12.54 13.98 13.9 12.3 13.9C10.62 13.9 9.26001 12.54 9.26001 10.86C9.26001 9.17999 10.62 7.82001 12.3 7.82001ZM37 32.36C37 34.92 34.92 37 32.36 37H7.64001C5.08001 37 3 34.92 3 32.36V31.52L9.64001 24.88C10.24 24.26 11.26 24.26 11.88 24.88L13.68 26.7C15.46 28.48 18.38 28.48 20.16 26.7L28.14 18.72C28.74 18.1 29.76 18.1 30.38 18.72L37 25.34V32.36Z" fill="#95A3B8"/>
</svg>
