<svg width="145" height="132" viewBox="0 0 145 132" fill="none" xmlns="http://www.w3.org/2000/svg">
<path fill-rule="evenodd" clip-rule="evenodd" d="M6.65943 10.5988C6.65943 10.5988 19.023 8.32404 20.3383 8.5373C21.6536 8.71502 22.9689 9.03491 24.3969 10.1368C25.7873 11.2741 27.4784 12.8736 28.6434 15.5749C29.2446 16.9966 29.9586 18.4539 30.4472 20.4088C32.4013 20.0178 34.6936 19.5913 34.844 19.6624C35.0319 19.7335 36.3847 20.3022 36.4223 21.8661C36.4223 23.43 36.1592 24.6029 35.9338 24.6385C35.821 24.674 33.0401 25.1716 31.0109 25.5626C31.0109 26.0247 30.9733 26.5223 30.9357 27.0199C30.5223 32.9557 29.5828 35.1238 28.6809 36.8654C27.779 38.5715 27.1402 39.6378 25.4867 40.2776C23.8332 40.9529 14.9269 43.6898 14.9269 43.6898C14.9269 43.6898 10.7932 44.0452 8.5384 42.5168C6.32122 40.9885 1.99959 34.6973 1.02252 28.6549C0.00788194 22.6125 -0.217594 12.6959 6.65943 10.5988Z" fill="#8EB6EA"/>
<path fill-rule="evenodd" clip-rule="evenodd" d="M6.65941 10.5988C6.65941 10.5988 19.023 8.32404 20.3383 8.5373C21.6536 8.71502 22.9689 9.03491 24.3969 10.1368L24.472 10.2078L24.5096 10.2434L24.5472 10.2789L24.5848 10.3145L24.6599 10.35V10.3856L24.7351 10.4211L24.7727 10.4922H24.8102L24.8478 10.5277H24.8854L24.923 10.5988L24.9981 10.6699L25.0733 10.7055L25.1485 10.7765L25.186 10.8476H25.2236L25.2612 10.8832L25.3364 10.9543L25.4115 11.0253L25.4867 11.0964L25.5618 11.1675L25.5994 11.2031L25.637 11.2386L25.6746 11.2741V11.3097L25.7497 11.3452L25.8249 11.4163L25.9 11.4874L25.9752 11.5585L26.0128 11.6296L26.0504 11.6651L26.0879 11.7007L26.1255 11.7362L26.1631 11.7718L26.2007 11.8073L26.2383 11.8428V11.8784L26.3134 11.9139V11.9495L26.3886 12.0206L26.4262 12.0916L26.4637 12.1272L26.5013 12.1627L26.5389 12.1983L26.5765 12.2338L26.614 12.2694L26.6516 12.3405L26.7268 12.4115V12.4471L26.7644 12.4826L26.8019 12.5182L26.8395 12.5893L26.8771 12.6248L26.9147 12.6603L26.9523 12.6959L26.9898 12.7314L27.0274 12.8025V12.8381L27.065 12.8736L27.1026 12.9091L27.1402 12.9802L27.1777 13.0158L27.2153 13.0513L27.2529 13.1224L27.2905 13.158V13.1935L27.3281 13.2646L27.3656 13.3001L27.4032 13.3357L27.4408 13.3712L27.4784 13.4423L27.516 13.4778L27.5535 13.5489V13.5845L27.5911 13.6556L27.6663 13.7622L27.7039 13.7977L27.7414 13.8688L27.8166 13.9399V13.9755L27.8542 14.0465L27.8917 14.0821L27.9293 14.1532V14.1887L28.0045 14.2953L28.0421 14.402L28.1172 14.5086L28.1548 14.6152H28.1924L28.23 14.7219V14.7574L28.3051 14.8285V14.864L28.3427 14.9707L28.4179 15.0773L28.4554 15.2195L28.5306 15.3261L28.5682 15.4327L28.6433 15.5749V15.6105V15.646H28.6809V15.6815V15.7171V15.7526H28.7185V15.7882V15.8237H28.7561V15.8593V15.8948L28.7937 15.9303V15.9659V16.0014H28.8312V16.037V16.0725H28.8688V16.1081V16.1436L28.9064 16.1791V16.2147V16.2502H28.944V16.2858V16.3213H28.9816V16.3569V16.3924L29.0191 16.428V16.4635C29.5452 17.6364 30.0714 18.8449 30.4471 20.4088L30.8605 20.3022C31.0484 22.8258 31.1236 25.065 31.1236 25.065L31.1612 25.5271L31.0108 25.5626C31.0108 26.0247 30.9733 26.5223 30.9357 27.0199C30.5223 32.9557 29.5828 35.1238 28.6809 36.8654C27.779 38.5715 27.1402 39.6378 25.4867 40.2776C25.1485 40.4198 24.472 40.6686 23.6453 40.9174C26.6516 37.6474 30.1465 29.9345 28.1924 22.2215C26.7644 16.6057 23.6453 13.158 21.8039 11.5585C18.6096 11.594 9.74092 13.3001 9.74092 13.3001L6.1333 10.7765C6.28362 10.7055 6.47151 10.6344 6.65941 10.5988Z" fill="#C9DCF5"/>
<path fill-rule="evenodd" clip-rule="evenodd" d="M6.65943 10.5988L6.84733 10.5633C8.1626 10.6699 9.51546 10.9187 10.3422 11.3808C12.2588 12.5182 15.3403 14.5797 17.9708 21.333C20.5638 28.0507 19.3988 35.5859 19.3988 35.5859C19.3988 35.5859 19.2485 40.1354 15.1148 43.6187L14.9269 43.6898C14.9269 43.6898 10.7932 44.0452 8.5384 42.5169C6.32121 40.9885 1.99959 34.6973 1.02252 28.6549C0.007882 22.6125 -0.217594 12.6959 6.65943 10.5988Z" fill="#6885C2"/>
<path fill-rule="evenodd" clip-rule="evenodd" d="M60.9618 1.78386C60.9618 1.78386 55.0619 2.45919 53.0326 4.20081C51.0033 5.9069 48.5231 9.46125 48.5982 15.4681C48.5982 16.1079 48.6358 16.7477 48.711 17.3874L47.9969 17.5296C47.9969 17.5296 48.2224 18.8092 48.0345 19.8755C47.809 20.9062 47.7339 21.8304 47.7339 21.8304C47.7339 21.8304 48.974 22.2213 49.2371 22.2213C49.2746 22.2213 49.3874 22.2213 49.5001 22.1858C50.3644 25.6335 51.7549 28.5836 53.1829 30.112C55.4377 32.6 57.6548 34.235 60.4357 34.3061C63.2542 34.3772 67.0873 32.9555 67.0873 32.9555C67.0873 32.9555 74.2273 30.7518 74.791 30.5741C75.3923 30.3608 76.7452 28.9035 77.384 26.4866C77.9853 24.1052 79.3757 18.4893 77.7598 13.1933C76.1063 7.89734 72.3859 3.34777 71.2586 2.24592C70.1312 1.14408 67.7637 0.646469 66.2981 0.895273C64.8325 1.14408 60.9618 1.78386 60.9618 1.78386Z" fill="#8EB6EA"/>
<path fill-rule="evenodd" clip-rule="evenodd" d="M60.962 1.78386C60.962 1.78386 55.062 2.45918 53.0327 4.20081C52.8824 4.30744 52.6945 4.48516 52.5442 4.62734L56.5652 6.7244C56.5652 6.7244 64.9454 4.44962 69.0791 4.23636C69.1167 4.23636 72.123 5.76473 74.4905 12.6246C76.858 19.52 75.7682 25.9534 74.3402 28.3348C73.739 29.3656 72.9874 30.4319 72.3109 31.3205C73.5511 30.9295 74.6033 30.6451 74.7912 30.5741C75.3924 30.3608 76.7453 28.9035 77.3841 26.4866C77.9854 24.1051 79.3759 18.4893 77.7599 13.1933C76.9332 10.492 75.5428 8.00396 74.2275 6.04907V6.01353L74.1899 5.94244L74.1147 5.87136L74.0772 5.80027L74.002 5.69364L73.9644 5.62255L73.8893 5.55147V5.51592L73.8517 5.44483L73.7765 5.40929V5.37375L73.7014 5.30266V5.23157L73.6638 5.19603L73.5886 5.12494V5.0894L73.5511 5.05386L73.4759 4.98277V4.94723L73.4383 4.87614L73.3632 4.80505L73.3256 4.73397L73.288 4.66288H73.2504L73.2128 4.59179L73.1753 4.52071L73.1001 4.44962L73.0625 4.41407V4.37853L72.9874 4.30744V4.2719L72.9498 4.23636L72.8746 4.16527V4.12973L72.837 4.09418L72.7243 3.95201L72.6867 3.91647V3.88092L72.6491 3.84538L72.574 3.77429L72.5364 3.70321L72.4988 3.66766V3.63212L72.4237 3.59658V3.56103L72.3861 3.52549L72.3485 3.4544H72.3109L72.2734 3.41886L72.2358 3.34777L72.1982 3.31223L72.1606 3.24114L72.123 3.2056L72.0855 3.13451H72.0479L72.0103 3.09897L71.9727 3.06342V3.02788L71.9351 2.99234L71.8976 2.95679L71.86 2.88571H71.8224V2.85016L71.7848 2.81462L71.7472 2.77908L71.7097 2.70799L71.6721 2.67245L71.6345 2.6369C71.4842 2.49473 71.3339 2.35255 71.2587 2.24592C70.1313 1.14408 67.7638 0.646469 66.2982 0.895273C64.8326 1.14408 60.962 1.78386 60.962 1.78386Z" fill="#C9DCF5"/>
<path fill-rule="evenodd" clip-rule="evenodd" d="M55.7007 2.88586C54.6109 3.24129 53.6338 3.66781 53.0326 4.20097C51.0033 5.90705 48.5231 9.4614 48.5982 15.4682C48.5982 16.108 48.6358 16.7478 48.711 17.3876L47.9969 17.5298C47.9969 17.5298 48.2224 18.8093 48.0345 19.8756C47.809 20.9064 47.7339 21.8305 47.7339 21.8305C47.7339 21.8305 48.974 22.2215 49.2371 22.2215C49.2746 22.2215 49.3874 22.2215 49.5001 22.186C50.3644 25.6337 51.7549 28.5838 53.1829 30.1121C55.4377 32.6002 57.6548 34.2352 60.4357 34.3063C61.1121 34.3418 61.8261 34.2707 62.5402 34.1641C67.8013 31.0363 68.365 25.2071 68.365 22.6836C68.365 20.16 68.2146 10.5277 64.5319 6.68901C60.8867 2.85032 56.4899 2.6726 56.5275 2.85032C56.5275 2.88586 56.2268 2.88586 55.7007 2.88586Z" fill="#6885C2"/>
<path fill-rule="evenodd" clip-rule="evenodd" d="M32.7398 19.84C32.7398 19.84 32.5895 16.4279 34.4308 16.5345C36.2347 16.6767 35.7085 16.4279 37.0614 15.7881C38.4518 15.1128 38.9028 15.5393 40.0302 15.2549C41.1951 14.9706 42.097 14.864 42.6983 15.1128C43.2996 15.326 45.3289 14.4019 45.9677 15.0417C46.569 15.6459 47.3581 17.352 47.7339 18.0629C48.0722 18.7737 48.0722 21.475 48.0722 21.475C48.0722 21.475 49.1244 21.7949 49.3123 22.8612C49.5378 23.892 48.5983 25.9535 48.5983 25.9535C48.5983 25.9535 45.3664 29.6145 45.4792 30.5031C45.5543 31.3917 54.0849 50.052 54.0849 50.052L62.5026 48.0615L63.3294 59.4355C63.3294 59.4355 51.4919 62.5633 49.0492 61.7102C46.6441 60.8572 44.4645 56.1299 44.4645 56.1299C44.4645 56.1299 38.7525 37.6118 38.6022 37.2563C38.4518 36.8654 36.2722 30.432 36.1971 30.2543C36.1595 30.0766 34.2805 25.2071 34.2805 25.2071L36.3098 24.8161C36.3098 24.8161 36.9487 22.7546 36.2722 21.6172C35.6334 20.4443 35.5958 18.9159 32.7398 19.84Z" fill="#EDB9A9"/>
<path fill-rule="evenodd" clip-rule="evenodd" d="M32.7773 19.1647C32.8149 18.1695 33.1156 16.4634 34.4308 16.5345C36.2346 16.6767 35.7085 16.4279 37.0614 15.7881C38.4518 15.1128 38.9028 15.5393 40.0302 15.2549C41.1951 14.9706 42.097 14.864 42.6983 15.1128C43.2996 15.326 45.3288 14.4019 45.9677 15.0417C46.569 15.6459 47.3581 17.352 47.7339 18.0629C48.0721 18.7737 48.0721 21.475 48.0721 21.475C48.0721 21.475 49.1244 21.7949 49.3123 22.8612C49.425 23.2878 49.3123 23.892 49.1619 24.4251C48.0346 25.4204 47.4709 24.745 45.5919 25.4204C43.7129 26.1312 42.2849 24.5318 42.2849 24.5318C42.2849 24.5318 42.097 22.8968 42.6231 22.5769C43.1492 22.2925 41.12 21.9016 38.9404 22.1148C37.7378 22.257 36.9862 22.3992 36.5353 22.3281C36.4601 22.0793 36.385 21.8305 36.2722 21.6172C35.671 20.5509 35.5958 19.1647 33.4162 19.6623C33.2659 19.5557 33.1156 19.4846 32.9652 19.378C32.8901 19.3069 32.8149 19.2358 32.7773 19.1647ZM45.7798 29.6856C45.5543 30.041 45.4416 30.3254 45.4792 30.5031C45.5543 31.3917 54.0848 50.052 54.0848 50.052L54.8364 49.8743C54.874 50.514 54.9116 51.0827 54.9492 51.4737C55.1371 53.5708 54.8364 54.6371 53.5587 54.6371C52.2435 54.6371 48.5607 51.8292 47.5836 47.7772C46.569 43.7252 43.1868 36.0834 42.9238 34.2707C42.9238 34.2707 40.7817 32.3513 40.7442 30.2187C40.7066 28.1217 44.1263 26.6644 44.8027 27.4463C45.3288 27.9795 45.2161 28.8681 45.6671 29.7567L45.7798 29.6856Z" fill="#FFE1D7"/>
<path fill-rule="evenodd" clip-rule="evenodd" d="M125.936 67.7525L130.859 74.3281C130.859 74.3281 130.784 75.3944 129.995 76.2119C129.243 77.0294 119.097 90.7136 119.172 90.8202C119.285 90.8913 116.805 92.9884 115.677 93.1661C114.55 93.3438 108.236 95.0499 108.236 95.0499C108.236 95.0499 106.245 95.2631 105.38 96.6493C104.554 98.0711 104.779 99.3862 104.779 99.3862C104.779 99.3862 103.389 100.986 103.426 102.301C103.501 103.651 104.215 107.49 104.215 107.49L110.04 108.876C110.04 108.876 112.821 108.023 113.836 107.277C114.888 106.566 114.7 105.784 114.625 105.606C114.587 105.429 114.174 104.647 114.174 104.647L119.811 98.7819L134.016 88.4743C134.016 88.4743 143.974 79.624 144.35 77.5981C144.726 75.5721 138.676 62.7764 138.676 62.7764L125.936 67.7525Z" fill="#EDB9A9"/>
<path fill-rule="evenodd" clip-rule="evenodd" d="M114.287 104.86L114.174 104.647L119.811 98.7819L134.016 88.4743C134.016 88.4743 143.975 79.624 144.351 77.5981C144.726 75.5721 138.676 62.7764 138.676 62.7764L134.918 64.2337L133.791 65.5133C133.791 65.5133 138.263 72.1954 138.751 75.4299C139.24 78.6644 133.603 83.285 131.799 84.7778C129.995 86.2707 127.365 88.7942 126.087 90.0383C124.809 91.2823 120.3 96.4716 119.511 96.6849C118.721 96.8981 113.836 103.474 112.032 104.682C110.228 105.891 109.965 106.602 110.304 106.815C110.416 106.921 112.145 106.033 114.287 104.86Z" fill="#FFE1D7"/>
<path fill-rule="evenodd" clip-rule="evenodd" d="M87.1171 12.3404C87.1171 12.3404 87.305 15.0061 87.305 15.7881C87.305 16.57 86.2904 25.918 86.3656 28.1927C86.4407 30.5031 87.6432 32.1736 89.4095 32.92C91.1381 33.6664 93.4305 34.0574 93.4305 34.0574L92.491 38.4648L88.5076 39.1401C88.5076 39.1401 83.021 47.0663 93.0923 49.2345C103.126 51.4026 110.041 46.6398 112.821 44.8982C115.64 43.121 116.617 41.1306 116.617 41.1306C116.617 41.1306 109.063 38.1094 108.049 37.3274C107.072 36.581 105.794 33.4176 105.794 32.9911C105.794 32.529 105.832 29.1169 105.832 29.1169C105.832 29.1169 109.702 27.3397 111.018 21.4039C112.295 15.4682 107.823 8.46612 98.3909 7.89743C88.9585 7.29319 87.3426 9.24808 87.1171 12.3404Z" fill="#EDB9A9"/>
<path fill-rule="evenodd" clip-rule="evenodd" d="M87.1171 12.3404C87.1171 12.3404 87.305 15.0062 87.305 15.7881C87.305 16.5701 86.2904 25.918 86.3656 28.1928C86.4407 30.5031 87.6432 32.1737 89.4095 32.9201C89.8604 33.1333 90.3865 33.3111 90.8751 33.4532C90.7623 32.8135 90.7248 31.9249 91.0254 30.9296C91.6642 28.5838 92.9044 28.1928 91.7018 26.9132C90.4617 25.6337 89.184 26.5933 88.6955 26.2024C88.1694 25.7758 88.9209 21.1197 88.8834 19.5202C88.8834 17.9563 89.9732 17.5653 90.1986 17.6009C90.3865 17.6364 91.5515 18.2051 91.7018 18.3828C91.8146 18.5961 91.2133 21.5106 91.2133 21.7239C91.2133 21.9016 91.326 23.821 92.3407 23.9631C93.3177 24.1408 93.3929 22.8968 92.9044 22.3992C92.4158 21.8661 93.3177 18.3473 93.3177 18.3473C93.3177 18.3473 96.4744 16.5701 96.8878 16.5345C97.3387 16.4635 98.8419 15.5393 99.1425 14.4019C99.4056 13.2645 99.1425 10.2434 99.1425 10.2434C99.1425 10.2434 98.2031 8.85716 96.0234 7.79086C88.6579 7.64868 87.305 9.53249 87.1171 12.3404ZM93.3929 34.3774L92.491 38.4649L88.5076 39.1402C88.5076 39.1402 85.0127 44.1518 88.6579 47.2796C92.3782 47.3863 98.2031 47.173 100.27 46.9242C103.314 46.5332 104.855 44.294 104.592 43.6187C104.291 42.9433 102.976 44.2584 98.0527 43.6187C93.1298 42.9433 94.3324 40.3131 94.5954 39.1046C94.8961 37.8962 94.8209 34.0219 94.8209 34.0219L93.3929 34.3774Z" fill="#FFE1D7"/>
<path fill-rule="evenodd" clip-rule="evenodd" d="M61.0747 45.9645C61.0747 45.9645 61.2626 52.54 62.2397 57.4095C63.2543 62.2434 63.6677 62.6343 63.6677 62.6343L74.2651 60.2174L75.7307 60.0041L73.3632 84.1381L70.2441 101.057C70.2441 101.057 78.3988 104.291 83.2465 104.576C88.0943 104.824 94.4828 106.175 102.976 102.905C103.201 102.798 103.389 102.727 103.577 102.656C103.69 101.945 103.953 100.595 104.253 100.275C104.667 99.8128 105.118 97.7513 105.155 97.6091C105.193 97.4314 105.456 95.7253 107.41 95.2277C108.763 94.9078 111.093 94.4102 112.408 94.0903C112.333 89.9673 112.295 83.1429 112.859 81.2591C113.611 78.5223 121.427 65.1224 121.427 65.1224C121.427 65.1224 124.471 68.1436 124.96 69.0322C125.448 69.9208 125.974 70.9515 125.974 70.9515C125.974 70.9515 133.002 68.4635 135.294 67.1839C137.586 65.8688 137.737 66.1887 138.826 64.767C139.916 63.3808 139.803 62.5277 139.803 62.5277L131.498 50.9405C131.498 50.9405 127.741 45.9289 124.96 44.7204C122.179 43.512 116.617 41.1306 116.617 41.1306L113.348 39.7799C113.348 39.7799 112.521 42.339 105.155 45.3958C97.7897 48.417 92.5286 47.5284 90.8376 45.2181C89.1841 42.8722 89.6726 38.9624 89.6726 38.9624C89.6726 38.9624 84.1109 39.1046 79.451 40.9884C74.7912 42.9077 69.6428 44.6849 61.0747 45.9645Z" fill="#73AEF2"/>
<path fill-rule="evenodd" clip-rule="evenodd" d="M61.0747 45.9645C61.0747 45.9645 61.0747 46.782 61.1499 48.026C63.7804 47.7772 68.7785 47.1374 71.86 46.0711C76.1816 44.5427 77.7224 45.609 78.1733 45.2536C78.6243 44.8982 79.3759 43.6541 80.5408 42.8366C81.4051 42.1969 87.0796 41.4149 89.635 41.1306C89.5599 39.8865 89.6726 38.9624 89.6726 38.9624C89.6726 38.9624 84.1109 39.1046 79.451 40.9884C74.7912 42.9077 69.6428 44.6849 61.0747 45.9645ZM133.114 68.2147C134.016 67.8237 134.768 67.4683 135.294 67.1839C137.586 65.8688 137.737 66.1887 138.826 64.767C139.916 63.3808 139.803 62.5277 139.803 62.5277L131.498 50.9405C131.498 50.9405 127.741 45.9289 124.96 44.7204C122.179 43.512 116.617 41.1306 116.617 41.1306L113.348 39.7799C113.348 39.7799 113.009 40.7396 111.093 42.1969C112.859 42.6589 114.851 43.2276 116.128 43.6897C118.985 44.6849 122.254 45.9645 122.63 46.3199C123.006 46.6753 125.523 47.6706 127.327 51.3315C129.131 54.957 135.106 59.6487 135.858 63.0609C136.496 66.1887 133.49 66.7929 133.114 68.2147Z" fill="#FFE1D7"/>
<path fill-rule="evenodd" clip-rule="evenodd" d="M61.9011 55.4545C62.0139 56.1298 62.1266 56.7696 62.2393 57.4094C63.254 62.2433 63.6674 62.6343 63.6674 62.6343L74.2647 60.2173L75.7303 60.0041L73.3628 84.1381L70.2437 101.057C70.2437 101.057 78.3985 104.291 83.2462 104.576C88.0939 104.824 94.4824 106.175 102.975 102.905C103.201 102.798 103.389 102.727 103.577 102.656C103.689 101.945 103.952 100.595 104.253 100.275C104.666 99.8128 105.117 97.7512 105.155 97.6091C105.193 97.4313 105.456 95.7253 107.41 95.2277C108.763 94.9078 111.093 94.4102 112.408 94.0903C112.333 89.9672 112.295 83.1429 112.859 81.2591C113.61 78.5222 121.427 65.1223 121.427 65.1223C121.427 65.1223 121.991 65.691 122.667 66.4019C122.667 66.2242 122.667 66.082 122.667 66.082C122.855 65.9398 117.293 59.6131 117.293 59.6131C117.293 59.6131 115.377 66.5441 114.249 68.6767C113.122 70.7738 110.153 82.7519 105.568 83.0718C100.946 83.3561 92.378 76.4963 92.7538 79.1265C93.1296 81.7567 98.09 88.4033 96.9251 88.7232C95.7225 89.0075 87.3424 84.067 81.0666 77.7758C74.7908 71.4846 75.5049 62.4921 75.5049 62.4921L76.8953 50.3007C76.8953 50.3007 73.8514 53.9972 71.2584 54.3527C69.6425 54.5659 65.1705 55.0991 61.9011 55.4545ZM91.8143 61.7813C91.8143 61.7813 102.562 58.6179 104.103 57.8359C105.681 57.0895 103.051 64.3048 98.9544 64.3048C94.8582 64.3048 86.9666 63.203 86.9666 63.203L91.8143 61.7813ZM78.8494 92.7041C78.8494 92.7041 80.9163 98.5687 83.0959 99.4573C85.2755 100.346 91.213 100.062 91.213 99.8128C91.1754 99.564 97.827 99.2085 97.7894 98.9597C97.7518 98.7109 90.1608 96.6138 86.5532 94.7656C82.908 92.9173 80.5029 90.4648 80.2023 90.4293C79.9016 90.3937 78.6239 91.9221 78.8494 92.7041Z" fill="#F5F7FA"/>
<path fill-rule="evenodd" clip-rule="evenodd" d="M97.113 1.03757C97.113 1.03757 91.6264 2.81474 89.1837 4.76963C86.7035 6.68898 86.2525 8.11071 86.3653 9.85234C86.4404 11.5584 87.1544 12.7669 87.1544 12.7669C87.1544 12.7669 87.6054 10.3144 91.1754 10.2078C94.7079 10.1011 98.9544 10.7054 99.6308 11.3096C100.345 11.8783 101.059 12.5536 101.096 13.5844C101.134 14.6507 100.382 17.3876 101.134 18.596C101.886 19.8401 103.163 22.257 103.314 22.257C103.464 22.257 104.704 20.1244 106.282 20.0178C107.823 19.8756 109.063 20.2666 109.138 22.2215C109.176 24.1764 107.447 25.9891 107.447 25.9891C107.447 25.9891 105.907 27.553 105.756 28.1928C105.606 28.797 106.207 31.4983 106.207 31.4983C106.207 31.4983 108.236 27.553 109.702 26.4867C111.13 25.4559 114.475 21.7949 114.475 20.7642C114.475 19.7334 114.024 14.7929 113.422 12.5536C112.784 10.3144 112.22 7.54202 107.973 7.25767C103.727 6.97332 99.7811 1.89061 98.7289 1.42854C97.6767 0.966479 97.113 1.03757 97.113 1.03757Z" fill="#FACA50"/>
<path fill-rule="evenodd" clip-rule="evenodd" d="M90.9126 10.2078C90.9878 10.2078 91.1005 10.2078 91.1757 10.2078C94.7081 10.1012 98.9546 10.7054 99.631 11.3096C100.345 11.8783 101.059 12.5537 101.097 13.5844C101.134 14.6507 100.383 17.3876 101.134 18.596C101.886 19.8401 103.163 22.257 103.314 22.257C103.464 22.257 104.704 20.1244 106.283 20.0178C107.823 19.8756 109.063 20.2666 109.139 22.2215C109.176 24.1764 107.448 25.9891 107.448 25.9891C107.448 25.9891 105.907 27.553 105.756 28.1928C105.606 28.797 106.207 31.4983 106.207 31.4983C106.207 31.4983 108.237 27.553 109.702 26.4867C111.13 25.4559 114.475 21.795 114.475 20.7642C114.475 20.5154 114.437 20.0178 114.4 19.378C113.573 18.7027 112.746 17.7785 112.558 16.7122C112.183 14.4019 112.183 9.35475 108.988 10.2078C105.794 11.0253 104.441 8.8216 102.863 8.07518C101.247 7.36432 96.2113 8.32399 95.9482 7.54203C95.6852 6.72453 97.7896 4.80519 97.6017 4.69856C97.4138 4.62747 93.9189 4.52084 92.2655 6.01366C91.2132 7.00888 90.9502 8.99931 90.9126 10.2078ZM104.93 15.3616C104.93 15.3616 106.47 14.0109 107.635 14.082C108.8 14.1531 110.792 14.082 110.491 14.5085C110.228 14.9351 108.237 15.3616 108.011 16.0014C107.786 16.6056 110.078 17.5653 110.078 17.5653C110.078 17.5653 106.997 18.596 104.404 17.7075C101.811 16.8189 104.817 16.89 105.268 16.3568C105.756 15.8592 104.554 15.6104 104.93 15.3616Z" fill="#BD9941"/>
<path fill-rule="evenodd" clip-rule="evenodd" d="M66.5612 0.362246C66.5236 0.433333 65.9975 0.539963 65.3587 0.61105C64.2313 0.753224 61.9389 1.1442 60.3982 1.46409C59.9472 1.53518 59.1581 1.67735 58.6695 1.74844C55.325 2.28159 53.5212 2.95692 52.1307 4.23648C50.8906 5.37387 50.1766 6.44018 49.2747 8.46615C48.6734 9.88789 48.1849 12.3759 47.9594 15.3616C47.8843 16.7833 47.8091 16.9255 47.6588 16.6056C47.5085 16.3923 47.3957 16.0369 47.3206 15.7881C47.2454 15.5748 46.9072 15.1483 46.6066 14.864C45.8926 14.2597 45.1785 14.1887 44.1263 14.6152C43.5251 14.8284 43.4123 14.8284 42.7735 14.6152C41.834 14.2597 40.7442 14.2597 40.2932 14.5796C40.0678 14.7218 39.5416 14.8284 39.0155 14.8284C38.527 14.8284 37.8881 14.9351 37.6251 15.0062C36.4226 15.5038 36.0092 15.6815 35.934 15.8236C35.8589 15.9303 35.4079 16.0014 34.8818 16.0014C34.1678 16.0014 33.8672 16.0725 33.4914 16.3923C32.8901 16.9255 32.5143 17.8496 32.4767 18.8448C32.4391 19.5557 32.4016 19.6623 31.9882 19.7334C31.7627 19.769 31.4621 19.8401 31.3493 19.8756C31.0487 19.9822 30.7481 19.6268 30.7481 19.2358C30.7481 19.0226 30.6729 18.8093 30.6353 18.7382C30.5602 18.6316 30.3347 18.134 30.1468 17.6364C29.8462 16.6767 28.7188 14.9706 28.343 14.864C27.8545 14.7218 27.9296 15.3971 28.4557 16.3923C28.9818 17.4231 29.6583 19.2358 30.0341 20.7286C30.5978 22.8613 30.5978 29.6145 30.0716 31.5694C29.9589 31.9604 29.771 32.6002 29.6583 32.9556C28.9818 35.3726 28.606 36.2256 27.3659 38.0383C26.5016 39.2823 26.5016 39.3179 25.2615 39.6733C24.5851 39.8866 23.9086 40.0998 23.7583 40.1709C23.608 40.242 22.8564 40.4908 22.1048 40.7396C21.3157 40.9529 20.5265 41.2372 20.3386 41.3083C18.873 41.877 17.4074 42.3391 17.3322 42.2324C17.2947 42.1969 17.3698 42.0192 17.4826 41.877C18.1966 41.0951 19.1736 38.9624 19.587 37.2564C19.9252 35.9768 20.1131 34.4129 20.1883 32.3158C20.301 30.041 20.2259 29.3302 19.8501 28.8326C19.6246 28.5482 19.5494 28.5482 19.3239 28.7259C19.0609 28.9036 19.0233 29.188 19.136 30.6097C19.2112 32.2803 19.0233 34.946 18.6851 36.3678C18.1966 38.5004 18.1214 38.7492 17.4074 40.0643C16.5431 41.6282 15.4533 42.6945 14.138 43.2277C13.4991 43.512 11.8457 43.5475 11.3571 43.3343C11.2068 43.2277 10.6055 42.9433 10.0418 42.6945C7.56161 41.5571 5.15653 38.4648 3.12724 33.7731C2.97692 33.4888 2.33808 31.5694 1.88712 30.0766C1.43617 28.6548 0.985219 24.9939 0.94764 22.9323C0.94764 20.9064 1.43617 17.5297 1.88712 16.5701C1.96228 16.3923 2.15018 15.8947 2.33808 15.5038C2.78903 14.3308 3.35272 13.5133 4.2922 12.6247C5.53232 11.4518 5.94569 11.3096 7.56161 11.3096C9.06478 11.3096 10.0418 11.594 11.282 12.4826C11.7705 12.8025 11.9208 12.838 12.1087 12.6958C12.259 12.5537 12.3342 12.4115 12.2966 12.3404C12.1087 12.0916 10.3049 10.8476 10.117 10.8476C9.66605 10.8476 10.0043 10.3855 10.4928 10.3144C10.7934 10.2789 11.4699 10.1367 11.9584 10.0301C13.0106 9.8168 14.2132 9.63909 16.3928 9.39028C17.3322 9.28365 18.3093 9.14148 18.6099 9.03485C18.9106 8.92822 19.6997 8.85713 20.301 8.85713C21.8042 8.85713 22.8188 9.35474 24.7354 11.0608C26.0882 12.3048 26.7271 12.6247 26.7271 12.1271C26.7271 11.985 26.464 11.594 26.1634 11.2385C25.8628 10.8831 25.4494 10.3855 25.2615 10.1722C24.773 9.63909 23.6832 8.85713 22.7061 8.35952C22.0672 8.03963 21.6914 7.96855 20.5265 7.96855C19.7373 8.00409 18.6851 8.11072 18.1214 8.21735C17.1819 8.39507 15.4157 8.64387 13.7998 8.82159C13.3488 8.85713 12.8603 8.92822 12.7476 8.99931C12.5972 9.07039 11.9584 9.17702 11.3195 9.3192C10.7183 9.42583 9.81637 9.60354 9.36542 9.67463C7.41129 10.1012 6.99792 10.1722 6.20875 10.35C5.72022 10.4566 5.11895 10.6698 4.81831 10.8831C4.10431 11.3452 2.41323 12.8735 2.41323 13.0513C2.41323 13.1579 2.26292 13.4067 2.07502 13.6555C1.88712 13.9043 1.62407 14.4375 1.43617 14.864C1.28585 15.255 1.09796 15.717 1.0228 15.8947C0.759743 16.5345 0.496687 17.6008 0.271211 18.8448C0.00815577 20.5865 -0.104582 24.7095 0.120894 25.6692C0.196053 26.1313 0.34637 27.0909 0.459108 27.8373C0.647005 29.188 0.872481 30.1832 1.17312 31.214C1.24827 31.5339 1.43617 32.1736 1.58649 32.6357C2.56355 35.8346 4.78073 39.5667 6.92276 41.6282C8.08772 42.73 9.85395 43.9741 10.3425 43.9741C10.4552 43.9741 10.6431 44.0452 10.7559 44.1518C10.9062 44.294 11.6202 44.3295 12.71 44.3295C14.2132 44.3295 14.6641 44.2584 16.3552 43.7253C17.4074 43.4054 18.422 43.0855 18.6099 42.9789C18.7978 42.9078 19.3991 42.6945 19.9252 42.5879C20.4513 42.4102 21.015 42.2324 21.2029 42.1258C21.5411 42.0192 22.9691 41.5216 25.7876 40.633C27.0653 40.2065 27.4787 39.8866 28.3054 38.6781C29.4704 36.9365 30.1092 35.3726 30.936 32.3869C31.2742 31.214 31.65 28.3705 31.65 27.0909V25.7758H32.5895C33.1156 25.7758 33.6041 25.7403 33.6793 25.7047C33.8296 25.6692 34.0926 26.2023 34.7691 27.9084C34.9945 28.406 35.2952 29.1169 35.4831 29.5079C35.671 29.8989 35.8213 30.2898 35.8213 30.3609C35.8213 30.432 36.0092 30.6453 36.1971 30.8585C36.5353 31.214 36.6105 31.214 36.8359 31.0007C37.099 30.7874 37.0614 30.6453 36.7983 29.9344C36.648 29.5079 36.2722 28.6904 36.0092 28.1572C35.22 26.5222 34.7691 25.5981 34.7691 25.527C34.7691 25.2782 35.5206 25.3493 35.8964 25.5981C36.4226 25.9891 37.3996 26.0246 37.3996 25.6692C37.3996 25.527 37.2869 25.4204 37.1741 25.4204C36.8735 25.4204 36.648 24.9939 36.8735 24.8517C36.9487 24.8161 37.0238 24.1053 37.0238 23.3233L37.0614 21.8305L36.2347 20.5154C35.2952 19.1292 35.3703 19.1647 33.9047 19.3425C33.4914 19.378 33.4538 19.3425 33.5289 18.8093C33.5665 18.4894 33.7168 17.9918 33.8672 17.6719C34.0926 17.2098 34.2054 17.1388 34.9194 17.1388C35.7461 17.1388 36.4601 16.89 36.9487 16.3568C37.2493 16.0369 37.5124 16.0014 38.6773 16.0014C39.9174 16.0014 40.1429 15.9303 40.669 15.5748C41.3455 15.0772 41.9091 15.1128 42.4728 15.6815C42.9614 16.1791 44.1263 18.525 44.69 20.1244C44.8779 20.622 45.1034 21.0841 45.141 21.1552C45.2537 21.1907 45.2913 21.404 45.2537 21.5461C45.1785 21.8305 45.0282 21.866 44.0512 21.866C42.9614 21.866 42.9238 21.866 42.8486 21.4395C42.8486 21.2263 42.7359 20.9775 42.6231 20.8708C42.548 20.7997 42.4728 20.622 42.4728 20.4798C42.4728 20.3021 42.2098 19.6623 41.4958 18.2406C41.3454 17.9563 41.0824 17.5297 40.8193 17.2454C40.4811 16.8189 40.3684 16.7833 40.1429 16.961C39.8799 17.1743 39.8799 17.2454 40.1053 17.6719C40.2556 17.9207 40.3684 18.2761 40.3684 18.4183C40.3684 18.5605 40.5187 18.8093 40.7066 18.9515C40.8569 19.0936 41.1576 19.6268 41.3454 20.1244C41.5333 20.622 41.7588 21.1196 41.834 21.1907C42.097 21.5461 41.9091 22.5414 41.4206 23.2878C41.12 23.6788 40.8569 24.1408 40.8193 24.283C40.7442 24.4963 39.5416 25.1005 39.241 25.1005C39.0531 25.1005 39.1658 24.8161 39.5416 24.4607C39.8423 24.1408 39.9174 23.8565 39.8799 22.7902C39.8799 21.7594 39.8047 21.3684 39.4289 20.622C39.1658 20.1244 38.9404 19.6268 38.9028 19.5202C38.9028 19.4135 38.6773 19.1292 38.4894 18.9159C38.2639 18.6671 37.9633 18.3117 37.8506 18.134C37.5875 17.6008 37.099 17.352 36.9111 17.6364C36.6856 17.9563 36.9862 18.7382 37.6627 19.6268C39.2034 21.6883 39.3537 23.0034 38.3767 24.8161C37.8881 25.7403 37.8506 25.918 38.076 25.918C38.2639 25.918 38.4518 25.8469 38.5646 25.7758C38.6397 25.7047 39.1283 25.7047 39.6544 25.7403L40.5939 25.8469L40.2181 26.309C39.9174 26.6289 39.8799 26.8421 39.9926 26.9488C40.1429 27.0909 40.4435 26.8777 41.0824 26.2734C42.0595 25.3848 42.2098 25.3138 42.3977 25.5981C42.4353 25.6692 43.0365 25.7758 43.7129 25.7758C44.3894 25.7758 44.9531 25.6692 45.0282 25.5981C45.0658 25.4915 45.3289 25.4204 45.5919 25.4204C46.2308 25.4204 46.6817 25.0649 46.4938 24.7806C46.3811 24.5673 46.2308 24.5673 45.855 24.674C45.5168 24.8161 45.1034 24.8161 44.5021 24.674C43.4123 24.4607 42.8862 24.2119 42.7359 23.7854C42.548 23.1456 42.7735 23.039 44.8027 22.7902C45.8926 22.6835 46.832 22.5058 46.9448 22.4347C47.1702 22.1859 48.6358 22.257 48.5607 22.4703C48.5231 22.5769 48.6358 22.8257 48.8237 22.9679C49.3874 23.501 48.7486 25.0294 47.2078 26.9843C46.7569 27.5174 46.3435 28.0861 46.2308 28.1928C46.1556 28.3705 45.9677 28.5838 45.855 28.6904C45.5543 29.0103 45.5919 29.7211 45.8926 29.7211C46.0429 29.7211 46.1556 29.6501 46.1556 29.5434C46.1556 29.4368 46.6817 28.8681 47.3581 28.2639C48.0346 27.5885 48.711 26.7355 49.0492 26.1313C49.4626 25.3493 49.6505 25.1716 49.8008 25.2782C49.9135 25.4204 49.9887 25.5626 49.9887 25.6336C49.9887 25.7403 50.4021 26.5578 50.853 27.4819C52.6568 30.9652 54.7237 33.1333 57.5422 34.4484C58.3689 34.8394 58.7071 34.9105 60.2479 34.9105C61.2249 34.9105 62.1644 34.8749 62.2771 34.7683C62.4275 34.6617 62.9912 34.4484 63.5549 34.3062C64.1561 34.1285 64.7574 33.9508 64.9077 33.8442C65.0956 33.7731 65.4338 33.702 65.6593 33.702C65.8848 33.702 66.1478 33.6309 66.1854 33.5243C66.2606 33.4532 66.4485 33.3821 66.6364 33.3821C66.8243 33.3821 67.3128 33.2755 67.7262 33.1333C69.0414 32.7423 70.8828 32.2447 71.9726 31.9604C72.5363 31.7827 73.2127 31.6049 73.4382 31.5339C73.7013 31.4628 74.1146 31.3561 74.4153 31.2851C75.3172 31.1429 76.0312 30.6097 76.6701 29.6501C77.0083 29.1524 77.3089 28.6904 77.3089 28.6548C77.3089 28.6193 77.4968 28.1928 77.7223 27.6952C78.3235 26.4511 78.5114 25.9535 78.6993 25.0294C78.9624 23.7143 79.263 20.9775 79.263 19.6268C79.263 17.352 78.6618 13.5844 77.9853 11.9494C77.9477 11.7717 77.7223 11.203 77.5719 10.7054C76.9707 9.03485 75.242 6.33355 74.7159 6.26246C74.1146 6.19137 74.2274 6.61789 75.3923 8.78605C75.956 9.88789 76.407 10.8476 76.407 10.9897C76.407 11.0964 76.5197 11.5229 76.6701 11.8783C76.8955 12.5537 76.9707 12.9091 77.4592 14.6507C77.6847 15.4327 78.0605 18.525 78.0229 19.6268C78.0229 20.8708 77.6847 23.9631 77.4592 24.8517C76.7828 27.553 75.3172 30.2188 74.4529 30.2188C74.3026 30.2188 74.0019 30.2898 73.8516 30.3609C73.551 30.5386 71.0707 31.2495 69.6803 31.5694C69.3045 31.676 68.8535 31.8182 68.7032 31.8893C68.5153 31.9959 68.2898 32.0315 68.102 32.0315C67.9892 32.0315 67.5007 32.1736 67.0497 32.3158C66.5988 32.458 66.0727 32.5291 65.8848 32.4935C65.509 32.458 65.5466 32.458 65.9975 31.9604C66.486 31.3561 67.8389 28.6904 67.8389 28.2283C67.8389 28.0861 67.9141 27.9084 68.0268 27.8373C68.102 27.8018 68.2147 27.5174 68.2523 27.1976C68.2898 26.9132 68.4402 26.2023 68.5529 25.5981C68.8535 24.1764 68.8535 18.5605 68.5529 17.1388C68.4402 16.5701 68.2898 15.7881 68.2523 15.4327C68.1395 14.7218 67.651 14.3664 67.2752 14.7573C67.0873 14.9351 67.0497 15.1128 67.1625 15.4327C67.651 16.9255 67.7637 18.0984 67.7637 21.5461C67.7637 25.3493 67.7262 25.5981 66.8242 28.0861C66.1478 30.041 65.2835 31.3206 64.0434 32.3869C62.7281 33.4888 61.037 34.1641 60.0224 33.9864C58.7071 33.7376 58.4065 33.6309 57.3918 33.1689C56.3396 32.7068 54.874 31.4983 53.7842 30.2188C54.8364 28.4416 59.2332 20.7286 59.5714 19.4846C59.7218 19.1647 59.7969 18.8804 59.7969 18.7382C59.7969 18.2051 59.1956 16.9966 58.7447 16.5345C58.0683 15.8236 57.4294 15.6459 56.0014 15.717C55.2498 15.7526 54.2727 15.8947 53.7842 15.9658C53.2957 16.0725 52.4689 16.2146 51.9428 16.3213C49.3874 16.7833 49.2747 16.7833 49.1995 16.5345C49.0492 16.2502 49.2371 13.1934 49.4626 12.0205C49.5378 11.5229 49.7256 10.7054 49.9135 10.2078C50.0263 9.71018 50.2142 9.10594 50.2893 8.89268C50.4397 8.35952 51.0785 7.25768 51.8677 6.12029C52.5065 5.16061 53.3708 4.4142 54.3479 3.98768C54.7237 3.8455 55.1371 3.63224 55.2874 3.56116C55.9638 3.24127 57.7676 3.41898 59.2708 3.91659C60.323 4.27203 60.8116 4.34311 60.9243 4.23648C61.1498 4.02322 60.3982 3.38344 59.4587 2.95692L58.8574 2.70811L59.5339 2.56594C59.9096 2.49485 60.8116 2.38822 61.4504 2.28159C62.1644 2.17496 62.8408 2.03279 63.0287 1.9617C64.0058 1.7129 68.3274 1.21529 68.8911 1.35746C69.1166 1.42855 69.793 1.78398 70.3943 2.17496C71.935 3.24127 72.3108 2.95692 71.0707 1.67735C69.9058 0.504419 69.4172 0.255615 67.9892 0.255615C67.2752 0.255615 66.6364 0.326702 66.5612 0.362246ZM51.0033 21.4395L48.9741 21.4751C48.8613 21.4751 48.7862 21.4395 48.6734 21.4395C48.3352 21.4395 48.26 21.3684 48.26 21.0485C48.26 20.8353 48.3352 20.5865 48.4479 20.5509C48.6734 20.4088 48.6734 18.8804 48.4104 18.4894C48.2976 18.3117 48.2225 18.0629 48.2976 17.9207C48.4104 17.7075 49.5753 17.3876 51.1537 17.2098C51.5295 17.1743 52.018 17.0677 52.2059 16.9966C53.0326 16.6411 56.8281 16.5701 57.5797 16.89C58.2186 17.2098 58.5944 17.8141 58.5944 18.6316C58.5944 19.0936 58.4441 19.3425 58.0307 19.769C57.3918 20.2666 57.2791 20.3377 54.9868 20.7286C54.2352 20.8708 53.2205 21.0485 52.732 21.1552C52.2435 21.2263 51.5295 21.3684 51.1912 21.404C51.1161 21.404 51.0785 21.4395 51.0033 21.4395ZM93.919 35.5503C94.2948 35.4081 94.896 35.1593 95.6852 34.7328C97.6769 33.6665 98.7667 32.2092 98.5788 32.1026C98.4285 32.0315 97.4138 32.2447 97.0005 32.3514H96.9629L96.9253 32.3869H96.8877H96.8502C96.6998 32.4224 96.5119 32.4935 96.324 32.5291C95.7228 32.7423 95.0088 32.9556 94.7081 33.0267C93.4304 33.4532 90.875 33.0622 89.447 32.2803C88.3948 31.7116 87.4929 30.7519 87.1923 29.8989C87.0044 29.4013 86.9292 28.5482 86.9292 27.2686C86.9292 25.4204 87.0419 24.3185 87.5681 20.5154C87.6808 19.5202 87.7935 18.3117 87.7935 17.8141C87.7935 16.7122 88.0566 16.6411 89.2967 17.3876C90.0483 17.8496 90.3489 17.9563 90.4241 17.7785C90.6496 17.4586 89.9356 16.6767 88.7706 15.9303C87.9814 15.4327 87.7935 15.2194 87.7935 14.8284C87.7935 14.2597 87.4177 13.9398 87.1171 14.2242C87.0044 14.3308 86.9292 14.9351 86.9292 15.717C86.8916 16.4634 86.854 17.6364 86.7413 18.3117C85.5388 27.0198 85.426 29.1169 86.2152 30.823C86.9292 32.4224 89.0712 33.8086 91.4012 34.2352L92.491 34.4129L92.4158 36.0123C92.3782 36.8654 92.3031 37.6829 92.2655 37.7895C92.1903 37.9317 91.8145 38.0028 91.0254 38.0028C90.4241 38.0028 89.5598 38.0739 89.1464 38.1805C88.3948 38.3227 86.4783 38.6426 85.3133 38.7847C84.9375 38.8203 84.5993 38.9269 84.5617 38.998C84.4865 39.1046 84.2987 39.1757 84.1108 39.1757C83.7725 39.1757 82.2694 39.5311 81.5929 39.8155C81.405 39.9221 80.6535 40.1709 79.9394 40.4197C79.2254 40.6685 78.4739 40.9173 78.2484 40.9884C76.8955 41.486 74.4153 42.3391 73.551 42.5879C72.9497 42.73 72.0478 42.9789 71.5217 43.121C69.1917 43.8319 66.486 44.365 63.4797 44.6849C62.3523 44.7916 61.2249 45.0048 60.9243 45.147C60.4358 45.3603 60.3982 45.4314 60.3606 46.6398C60.323 48.026 60.323 48.026 59.0078 48.2748C58.632 48.3459 58.0307 48.4881 57.6925 48.5947C57.3543 48.6658 56.6402 48.8791 56.1141 48.9857C55.588 49.1279 54.9868 49.3056 54.7989 49.3411C54.4606 49.4478 54.3855 49.3767 54.3855 49.0923C54.3855 48.9146 54.3103 48.6303 54.2352 48.4525C54.1224 48.3104 53.7842 47.5995 53.4084 46.8531C53.0326 46.1422 52.5441 45.2536 52.281 44.8627C51.8301 44.1873 49.8384 40.4197 49.8384 40.242C49.8384 40.2065 49.6505 39.7444 49.3874 39.2468C49.162 38.7492 48.9365 38.3227 48.9365 38.2871C48.9365 38.216 48.7862 37.7895 48.5983 37.363C48.1097 36.3678 47.997 36.119 47.6588 35.1237C47.3206 34.2352 47.2078 33.9508 46.7945 32.9911C46.6441 32.6712 46.4938 32.2803 46.4938 32.1736C46.4938 32.0315 46.4187 31.8538 46.3435 31.7827C46.2308 31.7471 46.1556 31.5339 46.1556 31.3206C46.1556 30.8585 45.5543 30.1477 45.2913 30.3254C45.0658 30.432 45.141 30.8941 45.5919 32.2803C45.855 33.1333 46.0804 33.7376 46.3435 34.2352C46.4187 34.4129 46.4938 34.5906 46.4938 34.6972C46.4938 34.8749 47.5836 37.6473 48.0346 38.6781C48.1849 38.998 48.3728 39.389 48.4479 39.5667C49.0492 41.0595 49.5378 42.0192 50.5148 43.7964C52.8447 48.0971 53.6715 49.7677 53.6715 50.1586C53.6715 50.3008 53.7466 50.5496 53.8218 50.7273C53.9345 50.8695 54.1224 51.4382 54.3103 51.9358C54.611 53.0021 54.7613 53.1798 55.0995 52.7888C55.2874 52.6111 55.2874 52.4334 55.0995 52.0069C54.9868 51.7225 54.9116 51.2249 54.9116 50.905C54.9116 50.3363 54.9116 50.3363 56.0766 50.052C56.753 49.8743 57.3918 49.661 57.5797 49.5899C57.73 49.4833 58.0307 49.4122 58.2186 49.4122C58.4065 49.4122 58.5944 49.3411 58.632 49.27C58.7447 49.1279 59.5714 48.9502 60.06 48.9146C60.323 48.9146 60.4733 49.8032 60.6612 52.3268C60.8867 54.9925 61.3001 57.445 61.8262 58.9734C61.9389 59.3644 61.751 59.4355 60.1351 59.6843C59.6466 59.7554 58.8199 59.8975 58.3313 60.0042C57.8428 60.0753 56.6402 60.253 55.7008 60.4307C54.7237 60.5729 53.5587 60.7861 53.0702 60.8928C52.5817 60.9638 51.4167 61.0705 50.4772 61.1416C48.8237 61.2126 48.7486 61.1771 48.1473 60.7506C47.1327 60.0042 45.5168 57.2673 44.3894 54.2817C44.2015 53.7485 43.976 53.1798 43.8633 52.9666C43.6002 52.3268 43.1868 51.0472 43.1868 50.7629C43.1868 50.5852 43.1117 50.4074 43.0365 50.3363C42.9238 50.3008 42.8486 50.052 42.7735 49.8032C42.6607 49.2345 42.2098 47.564 41.9843 46.782C41.5709 45.4314 41.4582 45.0048 41.2703 44.294C41.12 43.8674 41.0072 43.4054 40.8945 43.2277C40.8193 43.0499 40.6314 42.4457 40.4811 41.877C40.0302 40.4553 39.8047 39.7799 39.692 39.4245C39.6168 39.2468 39.1283 37.8606 38.6397 36.3678C38.1136 34.8394 37.6627 33.4532 37.5875 33.2755C37.5124 33.0978 37.3996 32.8134 37.3245 32.6712C37.2117 32.2803 36.5353 32.2803 36.5353 32.6357C36.5353 32.9201 36.9862 34.5551 37.2117 35.1237C37.2869 35.3015 37.4372 35.6924 37.5124 36.0123C38.2264 38.2516 38.6773 39.6022 38.8276 39.851C38.9028 40.0287 38.978 40.242 38.978 40.4197C38.978 40.5264 39.1658 41.1661 39.3913 41.8415C39.6168 42.5168 39.955 43.5475 40.1053 44.1162C40.2932 44.7205 40.4811 45.3958 40.5563 45.6091C40.7066 46.0356 41.0824 47.4218 41.4582 48.6658C41.5709 49.0568 41.7212 49.5188 41.7964 49.7677C41.834 49.9809 42.0595 50.6207 42.2098 51.1538C42.548 52.2912 42.6231 52.5045 43.262 54.2106C43.9008 55.9522 43.9008 55.9167 44.9906 58.0493C45.5168 59.1156 46.0804 60.0753 46.2308 60.1819C46.3811 60.2885 46.4938 60.4662 46.4938 60.5729C46.4938 60.8928 47.3957 61.6036 48.3352 61.9946C49.0868 62.3145 49.3874 62.35 50.7027 62.2789C51.4919 62.2079 52.6193 62.1012 53.1454 62.0301C53.6715 61.9235 54.5358 61.7813 55.0619 61.6747C55.588 61.6036 56.7906 61.3904 57.6925 61.2482C60.1351 60.8928 60.8867 60.7506 61.5256 60.5373C62.1644 60.3596 62.202 60.3951 62.6529 61.888C62.9912 63.1675 63.4421 63.3453 65.3211 62.8121C66.1102 62.5988 67.9141 62.1723 68.5529 62.0657C68.7784 62.0301 69.1542 61.9235 69.3421 61.8524C69.53 61.7813 70.3191 61.5681 71.0707 61.4259C71.8599 61.2837 72.6115 61.0705 72.7994 60.9994C72.9497 60.8928 73.2879 60.8572 73.5134 60.8572C73.7764 60.8572 74.0019 60.7506 74.0771 60.6795C74.1146 60.5729 74.4153 60.5018 74.7159 60.5018H75.242L75.1293 61.6036C75.0541 62.2434 74.9414 63.3097 74.8662 63.985C74.6783 65.3001 74.265 69.4587 73.9643 72.5155C73.8516 73.5107 73.7013 75.0035 73.6261 75.821C73.551 76.6385 73.4006 78.2735 73.2879 79.4464C73.1 81.7568 72.837 83.7472 72.5739 84.6713C72.4987 84.9912 72.386 85.4533 72.3484 85.7376C72.1605 86.7684 71.6344 89.4697 71.2586 91.2113C71.221 91.4601 71.0331 92.3843 70.8828 93.2018C70.7325 94.0193 70.5446 94.9078 70.4695 95.1922C70.3567 95.4765 70.3191 95.9742 70.3191 96.294C70.3191 96.6139 70.244 97.076 70.1312 97.3603C70.0561 97.6091 69.9058 98.4266 69.8682 99.1375C69.7554 100.204 69.6803 100.453 69.4172 100.524C69.2293 100.559 69.079 100.737 69.079 100.95C69.079 101.235 69.2669 101.412 69.8306 101.661L70.5822 101.981L70.5446 103.545C70.5446 104.398 70.4319 106.85 70.3191 109.019C70.2064 111.151 70.0561 116.625 69.9809 121.174C69.9058 125.724 69.793 129.527 69.7554 129.634C69.6427 129.74 69.7554 129.989 69.9433 130.202C70.1688 130.487 70.4695 130.593 71.0331 130.629C71.4465 130.629 72.4236 130.736 73.1752 130.878C76.7452 131.411 87.7935 130.878 95.6852 129.776C97.4514 129.527 98.8794 129.314 100.044 129.101C100.758 128.994 101.623 128.852 101.886 128.781C102.9 128.639 105.982 127.963 106.884 127.714C107.184 127.643 108.162 127.359 108.988 127.146C110.755 126.648 113.084 125.76 113.385 125.44C113.535 125.262 113.535 125.12 113.385 124.871C113.272 124.693 113.16 123.982 113.16 123.272C113.16 122.596 113.084 121.174 113.009 120.179C112.897 119.184 112.746 117.016 112.633 115.381C112.295 110.156 112.22 109.09 112.07 108.876C111.995 108.734 112.22 108.557 112.784 108.308C113.235 108.094 113.986 107.668 114.437 107.313C115.114 106.744 115.264 106.566 115.264 106.104C115.264 105.784 115.189 105.393 115.076 105.215C114.888 104.967 114.926 104.789 115.264 104.362C115.715 103.758 117.218 102.017 117.819 101.448C118.007 101.27 118.609 100.63 119.135 100.097C119.811 99.3508 120.412 98.8887 121.277 98.4622C121.953 98.1778 122.855 97.6447 123.306 97.3248C127.102 94.588 128.191 93.7704 129.168 92.9174C129.582 92.5975 130.07 92.171 130.333 91.9933C137.173 86.6262 143.373 80.6194 144.689 78.0602C145.064 77.3849 145.064 77.2427 144.877 76.212C144.576 74.6481 142.471 69.3876 140.968 66.5086C139.803 64.2694 139.766 64.1272 140.029 63.7718C140.179 63.5941 140.292 63.2031 140.292 62.9543C140.292 62.4211 139.653 61.1771 139.277 61.0705C139.165 60.9994 138.751 60.4307 138.3 59.8265C137.924 59.1867 137.473 58.4758 137.323 58.2625C137.173 58.0493 136.421 56.983 135.67 55.8456C134.091 53.4997 130.521 48.7014 129.131 47.0663C128.642 46.4621 127.966 45.7868 127.628 45.5735C126.951 45.0759 125.147 44.1873 123.832 43.6542C121.653 42.7656 120.638 42.3391 117.895 41.024C116.316 40.2775 114.851 39.6733 114.663 39.6733C114.475 39.6378 114.099 39.5311 113.874 39.4245C113.611 39.2823 113.16 39.1757 112.859 39.1757C112.408 39.1757 112.295 39.2468 112.295 39.4956C112.295 39.7799 113.047 40.4908 113.385 40.4908C113.46 40.4908 113.874 40.633 114.249 40.8107C114.663 40.9884 115.114 41.1661 115.264 41.1661C115.414 41.1661 115.978 41.3794 116.504 41.6637C117.444 42.1258 121.164 43.8674 121.84 44.1518C122.028 44.2229 122.63 44.4717 123.193 44.6849C123.719 44.9337 124.208 45.147 124.208 45.1825C124.208 45.2181 123.682 45.5024 123.005 45.7868C120.488 46.9597 118.383 48.5592 118.12 49.5544C117.97 50.1942 118.195 50.1586 119.097 49.4122C119.924 48.6658 120.488 48.3459 122.63 47.3507C124.696 46.391 125.072 46.2133 125.786 46.2133C126.463 46.2133 126.575 46.2844 127.289 47.0308C127.74 47.4929 128.266 48.1327 128.492 48.417C128.717 48.7369 129.356 49.6255 129.958 50.4074C130.559 51.1894 131.31 52.2201 131.649 52.7178C134.467 56.592 137.135 60.1108 138.3 61.3904C139.165 62.3145 139.202 62.9187 138.526 64.0917C138.225 64.6248 137.812 65.2646 137.661 65.4779C137.248 66.011 137.135 66.6508 137.436 66.7574C137.549 66.793 137.962 66.4375 138.338 65.9755L139.014 65.158L139.766 66.6863C140.179 67.5394 140.78 68.8545 141.081 69.7075C141.682 71.2359 142.622 73.6173 142.922 74.1505C143.636 75.6433 143.824 77.3494 143.336 78.0602C142.246 79.5886 138.488 83.3562 134.768 86.5907C129.093 91.5668 123.644 95.9031 121.465 97.1826C120.037 98.0001 117.143 100.595 115.339 102.621C113.16 105.144 111.018 106.85 110.078 106.85C109.777 106.85 109.665 106.922 109.702 107.099C109.777 107.561 110.266 107.775 110.755 107.561C112.596 106.779 113.047 106.495 113.686 105.962C114.287 105.393 114.4 105.393 114.4 106.033C114.4 106.353 114.325 106.531 114.137 106.531C114.024 106.531 113.798 106.637 113.686 106.779C113.385 107.099 112.145 107.668 111.769 107.668C111.581 107.668 111.393 107.739 111.356 107.81C111.168 108.13 109.364 108.201 108.763 107.952C108.462 107.81 107.898 107.632 107.56 107.526C106.884 107.277 106.17 106.708 106.17 106.424C106.17 106.104 105.606 105.713 105.042 105.642C104.554 105.606 104.516 105.571 104.404 104.789C104.366 104.327 104.216 103.794 104.103 103.58C103.802 103.047 103.84 101.59 104.178 101.057C104.366 100.773 105.306 99.8128 106.283 98.9243C107.56 97.7513 108.011 97.2182 107.861 97.1115C107.56 96.7916 107.448 96.8627 106.433 97.7869C105.907 98.2489 105.418 98.5688 105.381 98.5333C105.23 98.4267 105.569 97.4314 105.982 96.6139C106.17 96.1874 106.47 95.9742 107.147 95.7609C107.635 95.5832 108.199 95.441 108.387 95.441C108.612 95.441 108.838 95.3344 108.876 95.2633C108.951 95.1566 109.214 95.0856 109.477 95.0856C109.777 95.0856 110.041 95.05 110.078 94.9434C110.153 94.8723 110.567 94.7657 111.018 94.6946C111.882 94.588 112.859 94.3391 113.385 94.0903C113.573 94.0193 113.836 93.9482 113.986 93.9482C114.174 93.9482 114.625 93.8415 115.001 93.6994C115.414 93.5572 115.79 93.5216 115.903 93.6283C116.016 93.6994 116.241 93.6638 116.467 93.5217C116.767 93.3084 116.842 93.2018 116.654 93.024C116.316 92.6331 114.888 92.7752 113.573 93.3439C113.272 93.4506 113.084 93.4506 112.972 93.3439C112.784 93.1307 113.084 83.3207 113.31 82.361C113.723 80.8682 114.137 79.6952 114.588 78.8067C114.813 78.238 115.226 77.4205 115.452 76.9939C115.94 75.9276 117.406 73.1197 118.12 71.9468C118.421 71.4492 118.797 70.7738 118.947 70.525C119.21 70.063 120.563 67.7171 121.239 66.5797C121.389 66.2954 121.577 66.0466 121.69 66.0466C121.953 65.9399 125.072 69.8853 125.072 70.3473C125.072 70.4895 125.223 70.7738 125.448 70.9871C125.711 71.3425 125.937 71.4492 126.463 71.4492C126.838 71.4492 127.214 71.3425 127.252 71.2714C127.552 70.8094 128.041 71.2004 129.206 72.6932C129.882 73.6173 130.484 74.3993 130.559 74.5059C130.596 74.6125 130.409 74.9324 130.108 75.2523C128.868 76.4963 123.832 83.3207 122.893 85.0623C122.705 85.3822 122.479 85.6665 122.404 85.6665C122.329 85.6665 122.254 85.7376 122.254 85.8443C122.254 85.9509 121.991 86.413 121.653 86.8395C121.314 87.3015 121.051 87.6925 121.051 87.7636C121.051 87.7992 120.826 88.119 120.563 88.4389C120.3 88.7944 119.999 89.1498 119.924 89.292C119.811 89.3986 119.135 90.145 118.383 90.8914C117.03 92.2421 116.88 92.4553 117.143 92.6686C117.256 92.8108 119.811 90.5005 119.811 90.2517C119.811 90.2161 119.961 89.9673 120.149 89.754C120.45 89.4342 121.314 88.4389 122.367 87.2305C122.592 86.9106 122.78 86.6262 122.78 86.5196C122.78 86.413 122.855 86.3419 122.968 86.3063C123.005 86.2708 123.456 85.7021 123.87 85.0978C124.584 84.0315 127.139 80.5483 127.477 80.1218C127.552 80.0151 128.116 79.2687 128.755 78.4512C129.356 77.6337 130.07 76.7451 130.296 76.4608C130.559 76.1764 130.897 75.7855 131.085 75.5722C131.423 75.1812 131.461 74.8969 131.16 74.6125C131.01 74.4704 130.972 74.3282 131.123 74.1149C131.273 73.9017 131.123 73.5462 130.221 72.2667C129.619 71.4136 129.168 70.6317 129.206 70.5606C129.244 70.525 129.995 70.1341 130.897 69.7075C134.016 68.2147 134.88 67.6816 134.88 67.1129C134.88 66.7574 134.655 66.7219 134.204 66.9351C134.054 67.0418 133.64 67.2195 133.302 67.3617C132.964 67.4683 132.062 67.8593 131.31 68.1792C130.559 68.5346 129.92 68.7834 129.882 68.7834C129.845 68.7834 129.281 68.9967 128.68 69.281C128.041 69.5654 127.252 69.8852 126.914 70.0274L126.275 70.2762L125.937 69.5298C125.749 69.1033 125.41 68.5701 125.223 68.2858C124.997 68.037 124.584 67.5394 124.283 67.1839C123.982 66.8641 123.419 66.1887 123.005 65.7267C122.592 65.3001 122.254 64.8025 122.254 64.6959C122.254 64.4116 121.84 63.985 121.577 63.985C121.465 63.985 120.863 63.3453 120.225 62.5633C118.458 60.4307 117.481 59.471 117.105 59.6132C117.03 59.6487 116.993 59.6843 116.918 59.7198C116.88 59.7909 116.842 59.8265 116.842 59.8975C116.842 59.9331 116.88 60.0042 116.918 60.0753C116.88 61.8169 116.767 69.3876 116.654 71.8401C114.813 75.1457 112.633 79.3043 112.633 79.6952C112.633 79.8019 112.558 80.0151 112.483 80.1573C111.656 81.6501 111.318 87.3726 111.769 91.6734C112.032 93.6283 111.919 93.9482 111.13 93.9482C110.905 93.9482 110.567 94.0193 110.416 94.0903C109.89 94.3391 108.913 94.588 108.049 94.6946C107.598 94.7657 107.184 94.8723 107.109 94.9434C107.072 95.05 106.884 95.0856 106.658 95.0856C106.17 95.0856 105.343 95.6898 105.08 96.223C104.93 96.5428 104.592 96.7561 103.99 96.9338C102.863 97.2537 102.487 97.3959 102.111 97.5736C101.961 97.6802 101.548 97.7869 101.209 97.8224C100.834 97.8935 100.533 98.0001 100.458 98.1068C100.42 98.1778 100.195 98.2489 100.007 98.2489C99.8189 98.2489 99.4056 98.32 99.1049 98.3911C97.8272 98.7465 96.3616 98.9953 92.8667 99.4219C91.2133 99.6351 85.9521 99.6707 83.998 99.493C81.9687 99.2797 82.4197 99.9195 84.5617 100.275C85.9521 100.488 91.5139 100.488 93.3929 100.275C95.4973 100.026 97.226 99.7418 98.0151 99.564C100.721 98.8887 101.698 98.6044 102.6 98.2134C104.667 97.3603 105.042 97.2893 104.629 97.929C104.516 98.1068 104.404 98.5688 104.404 98.9598C104.404 99.493 104.328 99.7773 103.99 100.062C103.727 100.275 103.539 100.382 103.539 100.31C103.539 100.239 103.464 100.239 103.351 100.346C103.201 100.488 102.938 100.559 102.75 100.559C102.525 100.559 102.299 100.63 102.224 100.737C102.186 100.808 101.999 100.879 101.848 100.879C101.698 100.879 101.322 101.021 100.984 101.128C100.646 101.27 100.12 101.519 99.8189 101.626C99.4807 101.768 99.1425 101.874 99.1049 101.874C99.0298 101.874 98.4285 102.123 97.7145 102.443C96.5119 102.976 95.9483 103.154 94.2196 103.545C93.8062 103.652 93.2425 103.794 92.9419 103.9C92.1152 104.185 87.8687 104.256 86.14 104.043C85.2757 103.936 84.2235 103.794 83.7725 103.758C83.3216 103.723 82.8331 103.616 82.6452 103.545C82.4573 103.474 81.9687 103.367 81.5929 103.296C80.9165 103.225 79.0751 102.87 77.5719 102.55C77.1962 102.479 76.5197 102.336 76.0688 102.23C75.6554 102.159 74.8287 101.945 74.2274 101.803C73.6637 101.626 72.9873 101.483 72.6866 101.448C72.4236 101.377 72.1605 101.306 72.1229 101.199C72.0854 101.128 71.8599 101.057 71.6344 101.057C71.2586 101.057 70.7325 100.701 70.9204 100.559C70.9956 100.453 71.4465 98.1778 71.8599 95.6898C71.935 95.1211 72.1605 94.0193 72.3108 93.2018C72.4987 92.3843 72.6866 91.389 72.7618 90.9625C73.3631 87.657 73.4758 86.9817 73.5885 86.2708C73.6261 85.8443 73.7389 85.4533 73.814 85.4177C73.8892 85.3466 73.9643 85.0268 73.9643 84.6713C73.9643 83.6406 74.4153 83.8183 74.5656 84.8846C74.8287 86.6973 74.9038 86.9817 75.0541 87.0883C75.1293 87.1238 75.2044 87.3726 75.2044 87.5504C75.2044 88.6877 76.5197 91.6378 76.9331 91.389C77.0834 91.2824 77.0083 90.5715 76.7828 90.0384C76.7076 89.8607 76.5573 89.2564 76.407 88.6522C76.3318 88.048 76.1439 87.2305 76.0688 86.8395C75.8433 85.8443 75.5802 84.4225 75.3923 82.7875C75.1669 81.0459 75.1669 73.1553 75.3923 70.9516C75.7306 67.4683 75.9185 65.8688 76.0688 64.4826C76.1815 63.7007 76.2943 62.3856 76.407 61.5325C76.4821 60.6795 76.67 59.8975 76.7828 59.7554C76.9707 59.5421 76.9707 59.4355 76.8204 59.1867C76.67 58.9734 76.6325 58.7601 76.6701 58.6891C76.8579 58.4758 77.1586 54.7793 77.2337 52.0424C77.3089 50.0165 77.2713 49.8032 77.0083 49.6966C76.7076 49.5544 76.407 49.8387 76.2943 50.2653C76.2567 50.3008 75.5051 51.7936 74.0395 54.7793C73.0624 56.8408 70.9204 59.3288 69.6427 60.715C68.8535 60.8572 67.9892 61.0349 67.0497 61.2482C63.8555 61.9591 63.7803 61.9591 63.5924 60.8928C63.3294 59.3644 63.1415 58.4758 62.9536 57.9782C62.5026 56.5565 62.0893 53.713 61.9014 50.5141C61.7886 48.9502 61.6759 47.3507 61.6383 46.9242C61.488 46 61.4128 46.0356 64.0058 45.7868C66.7491 45.5024 68.3274 45.2536 70.4695 44.7205C71.1083 44.5428 71.8223 44.4006 72.0854 44.3295C72.3484 44.294 72.6115 44.1873 72.6866 44.1162C72.7242 44.0452 72.9121 43.9741 73.0624 43.9741C73.3631 43.9741 75.7681 43.2632 76.5197 42.9789C76.9331 42.8367 77.9102 42.4457 79.0375 42.0547C79.4509 41.9125 79.8267 41.8415 79.9019 41.877C79.9395 41.9125 79.8267 42.1614 79.6388 42.4102C78.9248 43.4054 78.6993 43.7253 78.6993 44.1162C78.6993 44.4006 78.7745 44.4717 78.9624 44.4006C79.1503 44.3295 79.3006 44.294 79.3382 44.294C79.3758 44.294 79.4133 44.1873 79.4133 44.0452C79.4133 43.9385 80.1273 43.1566 81.0293 42.3391C82.7203 40.8462 83.0961 40.633 85.0127 40.1709C85.426 40.0643 86.0273 39.9221 86.3279 39.8155C86.591 39.7444 87.4177 39.6022 88.1318 39.5667L89.4094 39.46L89.184 39.8155C88.9585 40.2065 89.0337 42.659 89.3343 43.7253C90.2362 47.173 92.9419 48.4525 98.0903 47.9549C99.8941 47.7772 101.097 47.564 101.961 47.2441C102.111 47.173 102.637 46.9953 103.126 46.8531C104.704 46.2844 108.65 44.294 110.454 43.121C110.642 43.0144 111.055 42.73 111.393 42.5523C111.694 42.3746 111.957 42.1258 111.957 42.0192C111.957 41.7704 111.581 41.6637 111.243 41.8415C111.093 41.877 110.679 42.0903 110.266 42.2324C109.439 42.5879 108.913 42.8367 106.433 44.0096C101.585 46.3199 99.2928 46.8886 95.5725 46.7109C93.5056 46.6398 92.7164 46.391 91.7018 45.4314C90.7623 44.5783 90.2362 43.0144 90.2362 41.1306C90.2362 39.46 90.3489 39.1757 90.7999 39.1757C91.0254 39.1757 91.4763 39.0691 91.8897 38.9624C92.4534 38.7847 92.6037 38.7847 92.6788 38.9624C92.754 39.2823 93.205 39.2112 93.3177 38.8203C93.3929 38.607 93.468 38.1449 93.468 37.754C93.5056 37.363 93.6183 36.9009 93.7311 36.7232C93.8062 36.581 93.8814 36.0834 93.919 35.5503ZM34.6939 64.5893C34.4308 65.2646 34.6187 65.6911 35.934 66.9351C37.2493 68.2503 38.076 68.7834 38.7901 68.7834C39.0155 68.7834 39.1658 68.6768 39.1658 68.5346C39.1658 68.3924 39.0907 68.2858 39.0155 68.2858C38.527 68.2858 35.8213 65.1935 35.8213 64.5893C35.8213 64.2338 34.8442 64.2338 34.6939 64.5893ZM38.1136 61.106C37.6627 61.6036 38.4894 62.8476 40.2932 64.5893C41.3455 65.5845 42.5856 66.5442 43.262 66.8996C45.141 67.8948 45.3289 67.9659 46.1556 67.9659C46.7193 67.9659 47.0199 67.8948 46.9448 67.7882C46.9072 67.6816 46.7193 67.6105 46.569 67.6105C46.2308 67.6105 44.9155 67.0773 44.9155 66.9351C44.9155 66.8641 44.8403 66.793 44.7276 66.793C44.2391 66.793 39.8423 62.9898 39.8423 62.5633C39.8423 62.4567 39.8047 62.35 39.692 62.3145C39.6168 62.2789 39.3913 61.9591 39.241 61.6036C38.8652 60.8927 38.4518 60.6795 38.1136 61.106ZM91.0254 50.1586C90.875 50.5496 91.1005 50.6562 92.5661 51.0828C94.4827 51.6159 98.0903 51.3671 99.7813 50.5496C100.533 50.2297 100.27 50.0165 99.0673 50.052C96.5119 50.1586 92.8668 50.1231 92.04 50.0165C91.2508 49.9098 91.1005 49.9098 91.0254 50.1586ZM90.1235 26.2734C89.898 26.4867 90.1235 26.9132 90.4993 26.9132C90.7623 26.9132 90.6496 27.6952 90.4241 27.8373C90.0859 28.0151 90.2362 29.1524 90.6496 29.6145C90.9878 30.041 91.1757 30.1121 91.5139 30.0055C92.4534 29.7922 92.9795 28.797 92.754 27.7663C92.5285 26.7355 90.6871 25.7047 90.1235 26.2734ZM105.569 22.3636C104.742 23.1811 103.802 24.8161 103.99 25.0649C104.178 25.3848 104.516 25.2782 104.742 24.8517C105.005 24.3185 105.381 24.1764 105.756 24.4252C106.17 24.7806 106.433 24.4252 106.132 23.8565C105.944 23.4299 105.944 23.3589 106.583 22.8613C107.372 22.2215 107.448 21.6172 106.734 21.6172C106.433 21.6172 106.057 21.8305 105.569 22.3636ZM95.347 19.4135C94.896 19.9467 94.8585 20.4088 95.2342 20.9419C95.5725 21.3684 96.2113 21.404 96.5871 20.9775C97.0005 20.5865 97.0005 19.5913 96.5871 19.2714C96.1362 18.8448 95.7604 18.9159 95.347 19.4135ZM88.5075 19.3069C88.2069 19.5913 88.1317 19.769 88.2445 20.1955C88.47 21.1907 88.9961 21.404 89.447 20.7286C89.8228 20.1955 89.7477 19.4846 89.2591 19.2003C88.9209 18.987 88.8458 18.987 88.5075 19.3069ZM91.4387 18.4183C91.4012 18.6671 91.1757 19.4491 90.9502 20.1244C90.4992 21.6883 90.4992 22.648 90.9502 23.3589C91.4011 24.0697 92.0776 24.3896 92.4534 24.1053C92.6788 23.892 92.6788 23.8565 92.3031 23.501C91.8145 23.0034 91.7018 21.6172 92.0024 20.231C92.3406 18.596 92.3406 18.0629 91.8897 18.0273C91.5891 17.9918 91.4763 18.0629 91.4387 18.4183ZM96.5119 15.9658C95.7979 16.1791 95.2718 16.499 94.6706 17.0321C94.0317 17.6008 94.0693 17.8852 94.7457 17.6008C96.1362 17.1032 97.0005 16.8189 97.2635 16.8189C97.4138 16.8189 97.6769 16.7122 97.8648 16.6056C98.1279 16.3923 98.1654 16.3213 97.9775 16.108C97.7145 15.8237 97.2635 15.7881 96.5119 15.9658ZM96.8126 0.753224C96.6247 0.824311 95.9858 1.03757 95.4221 1.21529C94.8209 1.35746 94.2196 1.53518 94.1069 1.64181C93.9566 1.7129 93.5056 1.89061 93.1298 2.03279C90.1986 3.24127 87.0044 5.80039 86.1025 7.61311C85.7267 8.46615 85.6515 8.71496 85.7643 9.78126C85.9146 11.7006 87.0795 14.1887 87.4553 13.4778C87.5305 13.3712 87.6056 13.0157 87.6808 12.6603C87.8311 12.0205 88.3948 11.4163 89.3719 10.9187C89.898 10.6698 90.3865 10.5988 92.4534 10.5988C95.6476 10.5988 98.9546 11.2385 99.9317 12.0205C100.646 12.5892 100.984 14.1176 100.608 15.0772C100.495 15.4327 100.345 16.3568 100.345 17.0677C100.345 18.5605 100.683 19.4135 101.698 20.4798C102.074 20.8353 102.337 21.3684 102.487 21.9371C102.713 22.7546 103.163 23.43 103.539 23.43C103.614 23.43 103.765 23.2522 103.878 22.9679C104.291 21.866 106.132 20.4798 107.184 20.4798C107.41 20.4798 107.823 20.6931 108.124 20.9419C108.575 21.3684 108.612 21.5461 108.612 22.4347C108.612 23.1101 108.5 23.6432 108.274 24.1053C107.898 24.8161 106.358 26.309 105.681 26.6289L105.193 26.8421L105.155 30.3609C105.08 34.6617 105.193 35.2304 106.658 36.7232C107.184 37.2564 107.861 37.7895 108.124 37.9317C108.612 38.1805 109.327 38.2516 109.327 38.0739C109.327 38.0028 108.838 37.4696 108.237 36.8654C106.583 35.1948 106.095 33.9508 106.546 32.5646C107.448 29.8278 108.913 27.8018 112.37 24.6029C113.31 23.7143 114.249 22.6835 114.512 22.257C114.888 21.5106 114.926 21.2973 114.926 18.9515C114.888 15.1839 114.249 12.3759 113.385 12.5537C113.16 12.5892 113.084 12.7669 113.122 13.3356C113.122 13.7266 113.272 14.2953 113.347 14.5441C113.498 14.864 113.573 16.1435 113.573 18.2051L113.611 21.404L113.122 21.9727C112.859 22.2926 112.37 22.8257 112.032 23.1101C110.642 24.3541 107.147 28.1928 106.809 28.8681C106.621 29.2235 106.395 29.5079 106.32 29.4723C106.245 29.4012 106.17 29.0103 106.17 28.5482C106.17 27.8373 106.245 27.6596 106.658 27.2686C106.959 27.0198 107.523 26.5222 107.974 26.1313C109.139 25.0649 109.665 23.892 109.665 22.3992C109.665 20.5509 108.951 19.5557 107.448 19.3425C106.47 19.2358 105.005 19.9111 104.178 20.7997C103.539 21.5106 103.502 21.5106 103.314 20.7286C103.239 20.4798 102.788 19.9111 102.337 19.4846C101.285 18.525 101.059 17.6364 101.397 15.9303C101.51 15.2905 101.585 14.6152 101.51 14.4375C101.435 14.1176 101.548 13.9398 102.036 13.5844C102.637 13.1223 104.103 12.5181 104.667 12.5181C104.817 12.5181 104.93 12.4115 104.93 12.2693C104.93 12.0916 104.779 12.0205 104.404 12.0205C103.84 12.0205 102.149 12.4826 101.886 12.6958C101.548 13.0157 101.322 12.838 101.059 12.1627C100.721 11.1319 99.8941 10.7409 96.5495 10.1012C92.04 9.24811 89.4094 9.46137 87.7184 10.8476C87.3802 11.1675 87.0419 11.3452 86.9668 11.3096C86.9292 11.2385 86.854 10.5988 86.7789 9.88789C86.7037 8.28844 86.9668 7.71974 88.5451 6.22692C90.6496 4.12985 93.9941 2.35268 96.775 1.74844C98.0151 1.49964 98.5788 1.74844 100.345 3.27681C103.389 5.94257 107.898 8.21735 109.214 7.71974C109.853 7.47094 109.777 7.25768 109.063 7.25768C107.711 7.25768 103.727 4.94735 101.134 2.67257C98.9546 0.788767 97.94 0.326702 96.8126 0.753224ZM46.3059 16.0369C46.4562 16.3568 46.6441 16.7833 46.7945 17.0677C46.9072 17.352 47.1327 17.8496 47.283 18.2051L47.6212 18.8804L46.8696 19.4491C46.4562 19.769 46.1556 20.0889 46.1556 20.16C46.1556 20.3732 46.9448 20.3021 47.1702 20.0889C47.546 19.769 47.7339 20.16 47.5085 20.8353C47.3581 21.2618 47.1702 21.4395 46.8696 21.5106C46.6066 21.5461 46.3059 21.6172 46.1556 21.6528C46.0053 21.6883 45.8926 21.5817 45.855 21.3684C45.6671 20.4443 45.1034 18.8093 44.7276 18.0984C44.6524 17.9563 44.5773 17.743 44.5773 17.6008C44.5773 17.4942 44.3894 17.0321 44.1639 16.6056L43.7129 15.8236L44.1263 15.6815C44.3142 15.6104 44.69 15.4682 44.9155 15.3971C45.5168 15.1483 46.0429 15.3971 46.3059 16.0369ZM35.5206 21.2618C35.8964 21.9371 36.1971 22.6835 36.1971 22.8613C36.1971 23.43 35.7461 24.283 35.4831 24.283C35.3703 24.283 34.9945 24.3185 34.6939 24.4252C34.4308 24.4963 33.7168 24.674 33.1907 24.7806C32.6646 24.8517 32.1009 24.9939 31.9506 25.0294C31.65 25.1005 31.65 24.9939 31.65 24.2119C31.65 23.7143 31.5748 22.9323 31.4621 22.5058C31.0487 20.4798 31.0487 20.622 31.8003 20.622C32.1761 20.622 32.5519 20.5509 32.5895 20.4798C32.6646 20.3732 33.0404 20.3021 33.4162 20.3021C33.8296 20.3021 34.2805 20.231 34.4308 20.1244C34.5812 20.0533 34.7315 19.9822 34.7691 19.9822C34.8442 19.9822 35.1824 20.5509 35.5206 21.2618Z" fill="black"/>
<path fill-rule="evenodd" clip-rule="evenodd" d="M87.8682 115.416C87.9057 115.843 88.0561 116.696 88.1312 117.265C88.244 117.869 88.4319 119.326 88.5822 120.499C88.958 123.662 89.4089 126.186 89.5968 126.506C89.672 126.613 89.7096 126.79 89.6344 126.861C89.4841 127.11 89.0707 126.897 88.8828 126.399C88.507 125.582 87.8682 122.241 87.3421 118.438C86.8911 115.061 86.8535 114.812 87.1166 114.528C87.4172 114.172 87.7554 114.528 87.8682 115.416Z" fill="white"/>
<path fill-rule="evenodd" clip-rule="evenodd" d="M7.3733 20.7286C7.3733 20.7286 11.3567 19.0225 13.0854 26.9843C14.814 34.9105 10.793 35.4436 7.97457 32.7779C5.1937 30.1476 4.51727 20.0888 7.3733 20.7286Z" fill="black"/>
</svg>
