<svg width="155" height="155" viewBox="0 0 155 155" fill="none" xmlns="http://www.w3.org/2000/svg">
<path d="M114.26 120.627C114.734 121.041 115.336 121.279 115.965 121.3C116.594 121.321 117.211 121.124 117.712 120.742L126.821 113.789C127.354 113.383 127.719 112.795 127.846 112.138C127.974 111.481 127.856 110.799 127.514 110.224C127.04 109.809 126.438 109.57 125.809 109.549C125.179 109.528 124.562 109.725 124.062 110.107L114.953 117.062C114.42 117.468 114.055 118.055 113.927 118.713C113.8 119.37 113.918 120.051 114.26 120.627Z" fill="#C4C4C4"/>
<path d="M99.1412 103.771C106.386 106.522 112.22 106.621 116.932 104.935C126.255 101.606 131.127 91.295 133.657 80.8185C133.658 80.8114 133.658 80.804 133.657 80.7969C135.132 73.2019 136.021 65.5046 136.313 57.7732H136.338C136.803 57.6585 143.44 55.8822 145.199 48.0996C147.021 40.0396 148.929 35.7229 148.929 35.7229C150.634 32.8755 151.232 30.6838 151.099 29.078C150.835 25.6572 147.29 24.893 144.085 26.1237C140.162 27.635 133.545 33.1127 131.426 34.9076C131.001 35.2718 130.757 35.4857 130.757 35.4857C130.375 31.1953 125.521 34.455 125.521 34.455C116.786 41.8299 117.27 50.9578 117.27 50.9578L116.622 65.5495C111.954 83.1699 78.6316 66.3493 78.6316 66.3493L99.6186 82.9343L99.1412 103.771Z" fill="#FFA792"/>
<path d="M99.6262 82.9343L99.141 103.773C106.386 106.522 112.22 106.621 116.932 104.935C118.32 102.121 119.989 99.4556 121.915 96.9789C124.451 93.7518 124.626 89.0739 122.331 85.6639L120.686 78.2239C117.008 72.7679 109.061 72.5431 105.076 77.7821C103.729 79.5724 101.765 81.6478 99.6262 82.9343Z" fill="#FF9177"/>
<path d="M92.1941 95.015L89.5901 84.0379C88.7624 84.5138 88.1687 85.3957 88.1687 86.9519C88.1641 86.955 86.8915 92.2514 92.1941 95.015Z" fill="#FF9177"/>
<path d="M140.841 36.115C146.69 27.7822 150.916 29.371 150.916 29.371L151.106 29.0734C150.843 25.6525 147.298 24.8884 144.093 26.1191C140.17 27.6303 133.553 33.108 131.434 34.9029C130.931 35.8996 130.361 36.8612 129.729 37.7813C125.992 43.0993 131.677 49.1722 140.841 36.115Z" fill="#FF9177"/>
<path d="M31.6989 58.435C39.2423 66.8391 46.7856 75.2416 54.3289 83.6426C54.6777 84.0301 55.0404 84.4269 55.5224 84.6269C56.0556 84.8485 56.6617 84.7912 57.2367 84.7292C65.5892 83.8405 73.9411 82.9498 82.2925 82.057C82.1654 79.687 82.4289 76.8645 81.8585 74.5643C81.3222 72.4098 79.8559 70.1592 78.805 68.217C76.3633 63.7095 73.469 59.4623 70.1668 55.5411C69.8243 55.135 69.4492 54.7026 69.3624 54.1802C69.3395 54.0565 69.3275 53.931 69.3267 53.8051C69.351 53.5264 69.4088 53.2517 69.4988 52.9867C69.708 52.1621 69.9111 51.3329 70.0924 50.499C70.1014 50.4721 70.1117 50.4457 70.1234 50.4199C70.5585 48.3915 70.9046 46.3476 71.1619 44.2881C71.1634 44.282 71.1634 44.2757 71.1619 44.2695C71.1619 44.2416 71.1697 44.2122 71.1728 44.1843C71.7928 39.0119 68.9423 34.1945 68.296 29.0206C68.2805 28.878 68.265 28.723 68.2495 28.5758C68.2495 28.4998 68.5424 28.2394 68.9547 28.2394C69.6662 27.9868 70.7186 27.731 71.1247 27.5466C71.2332 27.4985 71.2968 27.4644 71.2937 27.4288C71.3851 27.3172 71.475 27.2102 71.5572 27.0955C71.7139 26.8965 71.8603 26.6896 71.9958 26.4755C72.6585 25.4301 73.1308 24.2757 73.3908 23.0655C73.4358 22.8656 73.473 22.6625 73.5055 22.4595C73.5381 22.2564 73.566 22.0472 73.5846 21.8395C73.6334 21.3534 73.6505 20.8646 73.6357 20.3763C73.6357 20.088 73.6109 19.7981 73.5784 19.5129C73.566 19.3858 73.5675 19.2618 73.5505 19.1347C73.4993 18.7596 73.6078 18.3861 73.3552 18.0172C72.8499 16.5447 72.3167 15.1512 71.3402 13.9779C69.3918 11.6172 66.0469 10.1664 63.1748 11.2266C62.9626 11.3022 62.7555 11.3912 62.5548 11.4932C61.9503 11.802 61.3838 12.1802 60.8668 12.6201C60.1879 13.1781 59.5524 13.8105 58.9107 14.4103C57.8582 15.3999 56.7408 16.318 55.5658 17.1585C55.3969 17.2794 55.2295 17.3972 55.0574 17.5103C52.7789 19.0464 50.2741 20.2135 47.5833 20.7064C47.4624 20.7281 47.3415 20.7514 47.2191 20.77C45.3854 21.0939 43.3162 21.4148 41.8592 22.6036C40.5395 23.6814 39.5819 25.1378 39.1155 26.7765C38.649 28.4153 38.6962 30.1577 39.2505 31.7688C39.4563 32.366 39.7249 32.9396 40.0519 33.48C40.2642 33.7683 40.4766 34.0395 40.6905 34.3278C40.7478 34.4038 40.8052 34.5448 40.8594 34.5448L41.0315 34.7975C41.5057 35.4436 41.9424 36.1164 42.3397 36.8125C42.6877 37.4206 42.9718 38.0632 43.1875 38.7298C44.4058 42.563 42.7458 46.7898 40.2425 49.9348C37.7393 53.0797 34.4657 55.521 31.6989 58.435Z" fill="#FFA792"/>
<path d="M63.8817 55.7178L65.968 58.9C66.9578 58.0263 67.7917 56.9906 68.4341 55.8372C69.8415 53.3169 70.4491 50.4122 70.7715 47.5695C71.0737 44.8864 71.4116 41.8547 70.8629 39.1902C70.1282 35.6252 68.6108 32.2276 68.2465 28.5758C68.2465 28.5029 68.5379 28.3851 68.9517 28.2488C68.93 28.1434 68.9037 28.0426 68.882 27.9388C68.7844 27.5001 71.1512 27.2568 71.0241 26.8274C71.0241 26.8274 71.4023 26.7096 71.996 26.4585C73.1451 24.6314 73.7181 22.5008 73.6405 20.3438L58.6489 21.2738L61.5024 26.5205C61.5024 26.5205 67.0561 36.8342 68.1674 42.0716C69.2788 47.3091 63.7252 48.8916 63.7252 48.8916C63.7252 48.8916 65.1729 52.9697 63.0106 52.4566C57.4058 51.136 55.552 48.6483 55.0762 50.7114C54.6003 52.7744 63.8817 55.7178 63.8817 55.7178Z" fill="#FF9F87"/>
<path d="M54.9584 58.4024C56.4061 59.9772 58.8055 62.9594 58.8055 65.3976C58.8055 68.8882 62.138 74.9177 67.2158 74.9177C70.3793 74.9177 72.3726 74.8572 73.0422 75.3083C73.4483 75.5811 73.3662 76.0445 72.7694 76.8226C71.8239 78.0488 71.3208 79.5586 71.3419 81.1068L82.2678 81.6586L83.8767 81.7408L82.6708 76.3421L81.7563 72.2393L81.8834 74.5643C78.3866 66.8329 74.1722 59.7633 69.1347 54.4794C69.1192 54.5104 69.099 54.546 69.0835 54.5817C67.2235 58.1544 64.387 61.3629 60.1819 60.4469C58.3372 60.0669 56.5708 59.3755 54.9584 58.4024Z" fill="#FF9F87"/>
<path d="M19.4231 107.294C19.5207 107.83 19.6323 108.379 19.947 108.83C20.0043 108.909 20.067 108.984 20.1345 109.055C20.5499 109.49 21.1405 109.74 21.7016 109.976L48.5507 121.089L52.2102 122.605C55.2823 123.878 58.3668 125.153 61.5722 126.041C64.6722 126.905 67.8621 127.399 71.0427 127.892L94.6601 131.553C95.6691 131.708 96.7169 131.863 97.6996 131.584C98.5304 131.349 99.2496 130.826 99.9053 130.27C107.458 123.904 107.934 113.336 105.271 104.47C103.053 97.092 97.6035 89.28 98.1631 81.375C98.2514 80.0994 98.6048 78.8516 98.6389 77.5729C98.7087 74.7488 97.2145 72.1169 95.4785 69.8864C94.5948 68.753 93.6396 67.6772 92.6187 66.6655C86.4187 60.4872 77.9728 56.6851 69.3889 54.6499C71.4674 55.1413 73.2763 65.7169 73.5615 67.4514C74.1551 71.0691 74.2125 75.6431 70.8288 77.0614C70.5989 77.159 70.3621 77.2398 70.1205 77.3032C69.1021 77.5791 68.0063 77.5884 66.9399 77.5667C64.325 77.5155 61.6699 77.2939 59.2224 76.3825C54.1198 74.4884 50.5781 69.9314 47.1154 65.7293C43.6527 61.5273 39.5777 57.2431 34.2178 56.2945C27.0522 62.1938 22.2255 70.6645 19.9268 79.6576C17.6282 88.6507 17.7677 98.1599 19.4231 107.294Z" fill="#73AEF2"/>
<path d="M47.74 94.395L48.5367 120.57C48.5413 120.724 48.5905 120.874 48.6782 121C48.766 121.127 48.8886 121.226 49.0312 121.284C50.0914 121.726 51.1516 122.165 52.2118 122.602C55.2839 123.874 58.3684 125.136 61.5738 126.024C63.8647 126.663 64.3731 137.776 65.7588 143.834H65.8642C81.9563 143.84 97.5384 135.833 108.655 123.845C108.316 116.6 106.625 108.977 105.268 104.47C103.05 97.092 97.6004 89.2878 98.16 81.375C98.2483 80.0994 98.6017 78.8532 98.6358 77.5744C98.7056 74.7503 97.2114 72.12 95.4754 69.8895C94.6909 68.8836 93.8505 67.9227 92.9582 67.0112C92.855 66.9073 92.7254 66.8335 92.5834 66.7977C92.4414 66.762 92.2923 66.7656 92.1522 66.8081C85.4081 68.8681 77.6969 71.9231 76.9312 75.2913C75.547 81.3812 79.5879 82.2136 77.049 87.6076C74.5101 93.0016 82.1268 103.793 67.8451 105.698C57.7918 107.037 51.8661 98.9164 49.2451 93.9905C49.16 93.8309 49.0234 93.7049 48.8575 93.633C48.6917 93.5611 48.5063 93.5474 48.3317 93.5944C48.1571 93.6413 48.0036 93.746 47.8961 93.8914C47.7887 94.0368 47.7336 94.2143 47.74 94.395Z" fill="#6D7B8F"/>
<path d="M91.0645 69.7588L86.8269 72.9694C86.2906 73.3758 85.9376 73.9787 85.8457 74.6453C85.7538 75.3119 85.9304 75.9878 86.3368 76.5242L111.014 109.094C111.421 109.631 112.024 109.984 112.691 110.076C113.358 110.168 114.034 109.991 114.571 109.584L118.808 106.374C119.345 105.967 119.698 105.365 119.79 104.698C119.882 104.031 119.705 103.355 119.298 102.819L94.6204 70.2479C94.2136 69.7117 93.6105 69.3589 92.9437 69.2672C92.2769 69.1755 91.601 69.3523 91.0645 69.7588Z" fill="#969696"/>
<path d="M101.68 114.977C101.77 115.942 102.128 116.862 102.714 117.634L104.341 119.786C104.753 120.331 105.268 120.789 105.858 121.135C106.447 121.48 107.099 121.706 107.776 121.799C108.452 121.893 109.141 121.851 109.802 121.678C110.463 121.504 111.083 121.202 111.626 120.788L129.017 107.613C129.562 107.201 130.02 106.686 130.365 106.096C130.711 105.507 130.936 104.855 131.029 104.179C131.122 103.502 131.081 102.814 130.908 102.153C130.735 101.492 130.433 100.872 130.02 100.328L129.151 99.1767L128.393 98.177C127.98 97.6325 127.465 97.1746 126.876 96.8295C126.286 96.4844 125.635 96.2588 124.958 96.1657C124.282 96.0725 123.593 96.1137 122.933 96.2867C122.272 96.4597 121.652 96.7613 121.108 97.1741L120.323 97.7678L103.717 110.36C103.013 110.893 102.457 111.597 102.1 112.405C101.744 113.213 101.599 114.098 101.68 114.977Z" fill="#D6D6D6"/>
<path d="M101.657 114.505C101.657 114.584 101.657 114.66 101.657 114.74C101.657 114.821 101.666 114.895 101.672 114.982L102.43 115.979C102.842 116.524 103.357 116.982 103.947 117.328C104.536 117.674 105.188 117.899 105.865 117.993C106.541 118.086 107.23 118.044 107.891 117.871C108.552 117.697 109.172 117.395 109.715 116.982L110.543 116.354L127.106 103.799C127.811 103.265 128.368 102.56 128.724 101.751C129.081 100.942 129.225 100.056 129.143 99.1752L128.385 98.1755C127.973 97.631 127.457 97.1731 126.868 96.828C126.279 96.4829 125.627 96.2573 124.95 96.1642C124.274 96.071 123.586 96.1121 122.925 96.2852C122.264 96.4582 121.644 96.7598 121.1 97.1726L120.316 97.7663L103.717 110.36C103.076 110.844 102.556 111.471 102.199 112.19C101.841 112.909 101.656 113.702 101.657 114.505Z" fill="#C4C4C4"/>
<path d="M76.8459 79.7026C76.9457 79.8722 77.0554 80.0357 77.1745 80.1924L78.7648 82.288C79.167 82.8189 79.6699 83.2654 80.2447 83.6019C80.8196 83.9384 81.4551 84.1582 82.115 84.2489C82.7749 84.3396 83.4462 84.2993 84.0905 84.1304C84.7348 83.9615 85.3395 83.6672 85.87 83.2645L102.824 70.4134C103.355 70.0116 103.801 69.5092 104.137 68.9349C104.474 68.3606 104.694 67.7257 104.785 67.0663C104.876 66.407 104.837 65.7361 104.668 65.0921C104.5 64.4481 104.207 63.8435 103.805 63.3129L102.215 61.2173C102.011 60.9467 101.78 60.6979 101.525 60.4748C100.648 59.7009 99.5308 59.2543 98.3622 59.2108C97.1936 59.1673 96.046 59.5295 95.1142 60.2361L78.1556 73.0903C77.1646 73.8402 76.4837 74.928 76.2422 76.1471C76.0008 77.3662 76.2156 78.6315 76.8459 79.7026Z" fill="#B3B3B3"/>
<path d="M77.559 76.1856C78.2931 76.8318 79.228 77.2044 80.2054 77.2402C81.1828 77.2761 82.1425 76.9731 82.922 76.3825L97.1107 65.6301C97.9397 65.0027 98.5094 64.0925 98.7114 63.0727C98.9134 62.0528 98.7338 60.9943 98.2065 60.0982C97.4731 59.451 96.5382 59.0775 95.5607 59.041C94.5832 59.0046 93.6232 59.3074 92.8435 59.8982L78.6549 70.6537C77.8258 71.2811 77.2562 72.1912 77.0542 73.2111C76.8521 74.231 77.0318 75.2895 77.559 76.1856Z" fill="#C4C4C4"/>
<path d="M79.3336 71.097C79.8061 71.513 80.4078 71.7528 81.0369 71.776C81.666 71.7992 82.2837 71.6042 82.7855 71.2241L91.915 64.3033C92.4497 63.8993 92.8171 63.3127 92.9471 62.6553C93.0772 61.9978 92.9608 61.3155 92.6202 60.7383C92.1482 60.3216 91.5465 60.0811 90.9173 60.0576C90.288 60.0342 89.6701 60.2292 89.1684 60.6097L80.0358 67.532C79.5016 67.9364 79.1348 68.5233 79.0053 69.1807C78.8758 69.8381 78.9927 70.5202 79.3336 71.097Z" fill="#D6D6D6"/>
<path d="M101.68 114.981C101.771 115.944 102.129 116.863 102.714 117.634L104.341 119.786C104.86 120.469 105.539 121.013 106.319 121.37C107.098 121.727 107.954 121.885 108.81 121.83C109.397 119.815 109.982 117.991 110.552 116.346L109.725 116.974C109.181 117.387 108.561 117.69 107.9 117.863C107.239 118.037 106.551 118.078 105.874 117.985C105.197 117.892 104.545 117.666 103.956 117.32C103.367 116.975 102.851 116.516 102.44 115.971L101.68 114.981Z" fill="#C4C4C4"/>
<path d="M101.657 114.505C101.657 114.584 101.657 114.66 101.657 114.74C101.657 114.821 101.666 114.895 101.672 114.982L102.43 115.979C102.842 116.524 103.357 116.982 103.947 117.328C104.536 117.674 105.188 117.899 105.865 117.993C106.541 118.086 107.23 118.044 107.891 117.871C108.551 117.697 109.171 117.395 109.715 116.982L110.543 116.354C115.038 103.447 118.899 101.486 120.178 98.1817C120.206 98.115 120.232 98.0422 120.254 97.9724L120.32 97.7725L103.717 110.36C103.076 110.844 102.556 111.471 102.199 112.19C101.841 112.909 101.656 113.702 101.657 114.505Z" fill="#B3B3B3"/>
<path d="M39.2646 31.7595C39.4653 32.3593 39.7293 32.936 40.052 33.48C40.6875 34.5526 41.447 35.5647 42.146 36.5955C42.2033 36.701 42.2945 36.784 42.4049 36.8311C42.58 36.4808 42.611 36.0359 42.8063 35.6655C43.0272 35.2406 43.3246 34.8601 43.6836 34.5433C44.3858 33.9357 45.3204 33.7404 46.0303 34.4503C46.3489 34.7779 46.7011 35.0709 47.0812 35.3245C48.8963 36.5025 49.7379 35.092 49.6015 33.3374C49.4465 31.2743 52.2985 26.4213 59.2813 28.3262C61.7442 28.9989 65.3774 29.7414 68.2945 29.0144C69.3479 28.7794 70.3228 28.2765 71.1248 27.5543C71.2775 27.4079 71.4213 27.2526 71.5557 27.0893C71.7161 26.9001 71.8627 26.6997 71.9944 26.4895C72.6646 25.4357 73.1373 24.2686 73.3894 23.0454C73.4343 22.8454 73.4715 22.6424 73.5041 22.4393C73.5366 22.2363 73.5645 22.027 73.5831 21.8193C73.6319 21.3332 73.649 20.8445 73.6343 20.3561C73.6343 20.0678 73.6095 19.778 73.5769 19.4928C73.5645 19.3657 73.5087 19.2417 73.4932 19.1146C73.439 18.7395 73.5583 18.3659 73.2406 17.9939C72.9208 16.5139 72.2512 15.132 71.2876 13.9639C69.3423 11.625 66.03 10.1602 63.1547 11.2204C62.9498 11.2965 62.7495 11.3845 62.5549 11.4839C61.9528 11.7928 61.3889 12.171 60.8747 12.6108C60.1958 13.1719 59.5634 13.8043 58.9217 14.4041C57.8721 15.3954 56.755 16.3127 55.5783 17.1492C55.4094 17.2701 55.242 17.3879 55.0715 17.501C52.793 19.0371 50.2897 20.2042 47.5974 20.6971C47.4765 20.7188 47.3556 20.7421 47.2331 20.7607C45.3995 21.0846 43.3302 21.4055 41.8732 22.5943C40.5536 23.6721 39.596 25.1285 39.1295 26.7672C38.6631 28.406 38.7102 30.1483 39.2646 31.7595Z" fill="#3E2924"/>
<path d="M19.9951 109.339L19.9285 109.404C23.881 118.673 29.7229 127.255 37.5334 133.61C45.3438 139.965 55.2034 144.032 65.2784 144.093C74.2451 144.15 83.0429 141.083 90.6751 136.381C96.7201 132.661 102.271 127.722 105.196 121.258C107.496 116.174 108.071 110.385 110.797 105.515C112.183 103.046 114.08 100.905 115.57 98.4947C117.468 95.4428 118.05 92.6047 117.447 89.1017C116.865 85.7754 116.111 82.3685 114.207 79.5181C112.06 76.3034 108.055 73.9985 104.331 75.0324C98.8002 76.5684 96.3063 84.3897 90.5806 84.7679C88.6927 84.8935 86.7381 84.1278 84.9432 84.7276C82.7019 85.4763 81.603 88.2353 82.1052 90.5432C82.6074 92.8512 84.3341 94.7127 86.2499 96.0969C80.425 100.53 80.6854 109.977 75.0743 114.677C70.6104 118.415 63.7222 117.788 58.68 114.877C51.705 110.847 47.2503 102.796 47.5495 94.7453C45.6042 97.6112 41.7633 98.2715 38.4044 99.1225C31.4897 100.883 25.1479 104.403 19.9951 109.339Z" fill="#FFA792"/>
<path d="M19.9283 109.275C19.9283 109.287 19.9376 109.297 19.9407 109.311C20.0461 109.621 20.153 109.917 20.2615 110.216C20.5849 111.123 20.9151 112.007 21.2519 112.866C21.2845 112.936 21.3186 113.003 21.3543 113.069C22.7028 115.814 24.5147 118.102 26.7204 121.526C36.8124 137.194 53.8764 146.416 72.309 143.477C72.8933 143.386 73.4808 143.581 74.0667 143.077C76.6815 142.572 78.8841 141.828 80.5224 141.304C80.5767 141.269 80.6309 141.281 80.6774 141.245C85.5599 138.085 86.4899 131.683 72.6097 133.21C35.3291 137.307 32.2011 115.63 32.2259 109.101C32.2507 102.573 41.8995 98.549 41.8995 98.549C37.3131 99.307 31.6292 100.907 26.305 104.216C23.3181 106.386 21.097 108.26 20.2754 108.968C20.0491 109.162 19.9283 109.275 19.9283 109.275Z" fill="#FF9177"/>
<path d="M89.5079 93.2449C89.0429 93.5704 87.3766 95.0708 86.969 95.466C85.1353 97.247 82.2508 91.2965 82.0849 90.0674C83.0645 89.9434 84.3433 91.0113 85.2888 91.3787C86.4962 91.8437 87.6882 91.9584 88.8724 91.3415C91.9677 89.7279 91.605 91.7894 89.5079 93.2449Z" fill="#FF9177"/>
<path d="M148.381 35.3323C147.847 35.0641 146.914 34.968 146.263 35.3075C145.374 35.7725 145.067 36.7707 144.756 37.6495C144.395 38.6791 143.97 39.6854 143.485 40.6627C142.316 42.997 140.678 45.3034 138.415 46.6845C138.026 46.9378 137.605 47.138 137.162 47.2797C136.586 47.4347 136.339 46.545 136.914 46.3822C138.17 46.0288 139.469 44.7966 140.36 43.7689C141.62 42.3135 142.574 40.593 143.316 38.8244C143.982 37.2248 144.305 35.0393 146.149 34.3418C146.589 34.1894 147.055 34.1274 147.519 34.1594C147.983 34.1913 148.436 34.3166 148.851 34.5278C149.386 34.796 148.916 35.5989 148.386 35.3307L148.381 35.3323Z" fill="#FF9177"/>
<path d="M112.775 72.2099C114.353 71.3123 115.612 69.9446 116.375 68.2977C116.754 67.4728 117.01 66.5971 117.135 65.6983C117.256 64.8334 117.352 63.9809 117.445 63.1191C117.619 61.4002 117.755 59.6781 117.836 57.9545C117.916 56.2309 117.964 54.5058 117.991 52.7822C117.992 52.7631 117.992 52.7439 117.991 52.7248V52.6752C117.958 52.3838 117.933 52.0351 117.927 51.7065C117.921 51.3779 117.927 51.0384 117.927 50.7021C117.927 50.3657 117.966 50.0309 117.983 49.6946L118.094 48.6917C118.468 46.0201 119.351 43.445 120.695 41.106C121.06 40.5403 121.382 39.9451 121.808 39.4196L122.413 38.6074C122.631 38.3501 122.861 38.1021 123.085 37.8479C123.31 37.5937 123.527 37.3349 123.769 37.0962C124.011 36.8575 124.246 36.6095 124.499 36.3847C124.989 35.9225 125.507 35.4903 126.049 35.0905C126.568 34.704 127.128 34.377 127.72 34.1155C128 33.9963 128.293 33.9079 128.593 33.852C128.854 33.8099 129.122 33.8193 129.38 33.8799C129.602 33.9414 129.794 34.0833 129.918 34.2783C130.057 34.5078 130.141 34.766 130.164 35.0331C130.201 35.6661 130.104 36.2997 129.881 36.8931C129.453 38.1409 128.686 39.2941 127.813 40.3388C127.752 40.4076 127.721 40.4977 127.727 40.5893C127.733 40.6809 127.775 40.7664 127.844 40.827C127.913 40.8877 128.003 40.9185 128.094 40.9126C128.186 40.9068 128.272 40.8649 128.332 40.796C129.301 39.7498 130.183 38.5826 130.738 37.2047C131.037 36.494 131.182 35.728 131.164 34.9572C131.143 34.5246 131.02 34.103 130.806 33.7265C130.562 33.3179 130.182 33.0088 129.732 32.8538C129.316 32.7229 128.878 32.6832 128.445 32.7376C128.055 32.7939 127.671 32.8938 127.303 33.0352C126.608 33.3093 125.947 33.6619 125.333 34.0861C124.736 34.4971 124.164 34.9438 123.62 35.4237C123.343 35.6547 123.089 35.9073 122.825 36.1507C122.562 36.394 122.326 36.6699 122.075 36.9257C121.824 37.1814 121.577 37.448 121.337 37.7177L120.664 38.5687C120.199 39.1205 119.827 39.7482 119.424 40.3481C118.661 41.5838 118.037 42.9006 117.564 44.2742C117.094 45.647 116.77 47.0652 116.596 48.5057L116.501 49.5907C116.49 49.9534 116.464 50.3146 116.465 50.6757C116.467 51.0369 116.465 51.4027 116.489 51.7607C116.512 52.1188 116.535 52.4799 116.591 52.8814L116.583 52.7744C116.602 54.4794 116.596 56.1922 116.552 57.9003C116.509 59.6084 116.448 61.3103 116.329 63.0153C116.27 63.8647 116.202 64.7203 116.114 65.5604C116.026 66.3678 115.828 67.1594 115.526 67.9133C114.894 69.4334 113.813 70.724 112.426 71.6116C112.354 71.6617 112.304 71.7374 112.286 71.8232C112.267 71.9091 112.282 71.9986 112.328 72.0738C112.373 72.1489 112.445 72.2039 112.53 72.2278C112.614 72.2516 112.705 72.2424 112.783 72.2021L112.775 72.2099Z" fill="#233940"/>
<path d="M70.4739 34.6859C70.1465 34.3018 69.7684 33.964 69.3501 33.6815C69.2345 33.6049 69.112 33.539 68.9843 33.4847C68.8485 33.4222 68.706 33.3754 68.5596 33.3452C68.2439 33.2836 67.9174 33.3077 67.6141 33.4149C67.3525 33.5161 67.1054 33.6516 66.8794 33.8179C66.6717 33.9621 66.4904 34.1016 66.3183 34.2085L66.2501 34.2535L66.1463 34.3263C65.9404 34.4811 65.7688 34.6769 65.6425 34.9014C65.4721 35.2076 65.3926 35.556 65.4131 35.9058C65.4238 36.0813 65.4588 36.2545 65.517 36.4204L65.6332 36.7536L65.8642 37.4139L66.3292 38.7345L66.7942 40.052L67.0298 40.7108C67.1134 40.9172 67.1863 41.1277 67.2483 41.3416C67.2731 41.4377 67.3057 41.5292 67.3258 41.6284L67.3847 41.9291C67.4062 42.0289 67.4223 42.1298 67.4328 42.2313C67.4501 42.3339 67.4615 42.4374 67.4669 42.5413C67.496 42.9496 67.4846 43.3598 67.4328 43.7658C67.3216 44.5919 67.0202 45.3808 66.5524 46.0707C66.3154 46.4193 66.0387 46.7392 65.7278 47.0239C65.6522 47.0982 65.572 47.1676 65.4875 47.2316C65.4023 47.2983 65.3325 47.3649 65.2349 47.4362L64.6722 47.8563C63.921 48.4153 63.1749 48.9836 62.434 49.5613C62.365 49.6153 62.3189 49.6935 62.3051 49.7801C62.2913 49.8668 62.3108 49.9554 62.3597 50.0282C62.4086 50.101 62.4832 50.1527 62.5686 50.1727C62.654 50.1928 62.7438 50.1798 62.82 50.1363C63.6322 49.6682 64.4387 49.1919 65.2395 48.7072L65.841 48.3461C66.0553 48.2127 66.2623 48.0679 66.461 47.9121C66.8677 47.5943 67.236 47.2302 67.5583 46.8271C68.8634 45.2213 69.3641 42.9273 68.7022 40.8906C68.6247 40.6147 68.5333 40.4256 68.448 40.2008L68.1799 39.5498L67.6436 38.2478L67.1011 36.9489L66.8283 36.2995L66.6935 35.9771C66.6712 35.922 66.6566 35.8641 66.65 35.805C66.6298 35.6856 66.6443 35.563 66.6919 35.4516C66.7169 35.3956 66.7498 35.3434 66.7895 35.2966C66.8096 35.2719 66.8313 35.2486 66.8546 35.2269L66.8918 35.1943L66.9662 35.137C67.3832 34.8161 67.6947 34.4937 67.9861 34.362C68.1203 34.2979 68.2686 34.2691 68.417 34.2783C68.5015 34.2858 68.5848 34.3035 68.665 34.331C68.7567 34.3577 68.8455 34.3935 68.9301 34.4379C69.3102 34.6454 69.6654 34.8955 69.9887 35.1835L69.9996 35.1928C70.0668 35.2486 70.1527 35.277 70.24 35.272C70.3273 35.2671 70.4094 35.2293 70.4699 35.1662C70.5304 35.1032 70.5648 35.0195 70.5661 34.9321C70.5674 34.8447 70.5356 34.7601 70.477 34.6952L70.4739 34.6859Z" fill="#233940"/>
<path d="M86.3226 95.6552C85.6335 95.2977 84.9981 94.8453 84.4347 94.3113C83.8793 93.7794 83.4208 93.1547 83.08 92.4653C82.7445 91.7736 82.5271 91.0307 82.4367 90.2674C82.3892 89.8854 82.371 89.5004 82.3825 89.1157C82.3908 88.7392 82.4328 88.3641 82.508 87.9951C82.514 87.967 82.5171 87.9385 82.5173 87.9098C82.5041 87.3571 82.6164 86.8086 82.8459 86.3056C82.9628 86.0729 83.1202 85.8629 83.3109 85.6856C83.4039 85.5957 83.5171 85.5306 83.6209 85.4469C83.7321 85.3766 83.8469 85.3125 83.965 85.2547C84.4772 85.0369 85.0283 84.9257 85.5848 84.9276C86.1666 84.921 86.7475 84.9761 87.3177 85.0919C87.606 85.1446 87.8927 85.2159 88.1717 85.295L88.3841 85.3601C88.4709 85.3849 88.5561 85.4066 88.6352 85.4252C88.7984 85.4624 88.9627 85.4923 89.1281 85.5151C89.7861 85.5953 90.453 85.5618 91.0997 85.4159C92.3831 85.1369 93.5301 84.5231 94.5701 83.8194L94.6352 83.7651C94.6066 83.7961 94.5725 83.8213 94.5345 83.8395L94.5918 83.8054C96.3511 82.5809 97.8468 81.0557 99.1643 79.4112L99.4108 79.1012C99.4914 78.9989 99.5658 78.9059 99.6433 78.8098C99.8003 78.6196 99.9641 78.4357 100.135 78.258C101.337 77.0144 102.87 76.1403 104.553 75.7385C106.236 75.3368 107.998 75.4241 109.633 75.9903C111.503 76.6281 113.11 77.8662 114.204 79.5119L114.119 79.3027L115.746 86.7659C115.761 86.8339 115.788 86.8986 115.827 86.9566C116.562 88.0662 117.039 89.3269 117.222 90.6456L117.245 90.7448C117.227 90.6951 117.218 90.6426 117.219 90.5898V90.6735C117.36 91.6675 117.338 92.678 117.154 93.665C117.11 93.9176 117.036 94.1532 116.98 94.3981C116.952 94.5212 116.918 94.6427 116.878 94.7624L116.82 94.9437L116.763 95.0987C116.668 95.3622 116.582 95.5746 116.475 95.8071C116.368 96.0396 116.258 96.2566 116.135 96.4736C115.885 96.9087 115.601 97.3233 115.286 97.7136C114.962 98.1476 114.619 98.5676 114.312 99.0125C114.006 99.4573 113.682 99.8913 113.392 100.349L112.947 101.026C112.801 101.254 112.663 101.491 112.522 101.716C110.264 105.403 108.531 109.371 107.082 113.409C106.716 114.418 106.373 115.435 106.042 116.453C105.71 117.471 105.411 118.51 105.056 119.468C104.326 121.417 103.373 123.275 102.215 125.004C99.9083 128.481 96.8827 131.465 93.5006 133.934C90.1185 136.403 86.3706 138.382 82.4553 139.926C80.5027 140.705 78.5059 141.369 76.4754 141.913C75.4617 142.177 74.4403 142.42 73.408 142.597C72.3757 142.774 71.3449 142.957 70.308 143.062C66.137 143.504 61.9223 143.281 57.8212 142.402C53.7098 141.554 49.7299 140.161 45.9869 138.26C38.4466 134.439 31.9734 128.805 27.1482 121.864C24.755 118.399 22.8469 114.623 21.4768 110.641C20.1291 106.642 19.2851 102.491 18.9642 98.284C18.6374 94.0695 18.7788 89.8317 19.3858 85.6484C20.0099 81.4637 21.0659 77.3549 22.537 73.3879L22.8113 72.6454L22.9477 72.275C22.971 72.213 22.9911 72.1479 23.0159 72.0967L23.095 71.92C23.3016 71.4375 23.5233 70.9595 23.7599 70.4863C24.2249 69.5392 24.724 68.6108 25.2557 67.6963C26.3277 65.8739 27.5219 64.1261 28.83 62.465C29.4841 61.6311 30.1552 60.8205 30.8729 60.0486C31.5905 59.2767 32.3376 58.5249 33.1002 57.784C34.6239 56.3038 36.2002 54.8468 37.6433 53.2518C37.704 53.1838 37.7354 53.0946 37.7306 53.0036C37.7259 52.9126 37.6854 52.8272 37.6179 52.7659C37.5505 52.7046 37.4616 52.6724 37.3705 52.6763C37.2795 52.6802 37.1937 52.7199 37.1318 52.7868C35.6965 54.3368 34.1217 55.7659 32.5732 57.2384C31.7982 57.9762 31.031 58.7264 30.2916 59.5092C29.5523 60.2919 28.8501 61.1165 28.1805 61.9535C26.8325 63.6311 25.5995 65.398 24.49 67.2421C23.9361 68.1659 23.4194 69.1109 22.94 70.0771C22.6992 70.5596 22.4688 71.0474 22.2487 71.5403L22.165 71.7247C22.1324 71.7929 22.1123 71.8565 22.0875 71.9185L21.9449 72.2967L21.6597 73.0515C20.1328 77.0751 19.0274 81.2463 18.3613 85.498C17.7074 89.7559 17.5275 94.0732 17.825 98.3708C18.1222 102.679 18.9553 106.934 20.305 111.036C21.6826 115.139 23.6148 119.035 26.0477 122.614C30.9163 129.761 37.6278 135.608 45.3173 139.567C49.1697 141.561 53.2779 143.015 57.5267 143.89C61.7818 144.8 66.1544 145.03 70.4816 144.572C71.5666 144.46 72.6361 144.285 73.7009 144.086C74.7658 143.888 75.8275 143.651 76.88 143.375C78.9689 142.815 81.0231 142.132 83.0319 141.331C87.0671 139.751 90.8808 137.656 94.3779 135.098C97.8561 132.525 100.986 129.413 103.385 125.762C104.589 123.938 105.578 121.98 106.33 119.928C106.708 118.883 106.986 117.867 107.316 116.859C107.646 115.852 107.971 114.844 108.326 113.846C109.732 109.855 111.412 105.956 113.596 102.354C113.733 102.13 113.866 101.903 114.007 101.68L114.436 101.018C114.715 100.573 115.024 100.149 115.323 99.7162C115.622 99.2837 115.943 98.873 116.253 98.4514C116.603 98.0117 116.917 97.5453 117.194 97.0564C117.332 96.8084 117.46 96.5552 117.577 96.2969C117.691 96.0442 117.803 95.7606 117.887 95.5219L117.966 95.3018L118.028 95.1018C118.071 94.9696 118.108 94.8342 118.139 94.6957C118.201 94.4214 118.284 94.1455 118.329 93.8727C118.531 92.7584 118.549 91.6185 118.383 90.4983V90.582C118.382 90.5111 118.371 90.4406 118.35 90.3728L118.373 90.472C118.156 88.9833 117.607 87.5626 116.766 86.3149L116.85 86.5102L115.19 79.0965V79.0717C115.175 79.0064 115.148 78.9444 115.111 78.8888C114.495 77.9796 113.737 77.1757 112.865 76.508C111.991 75.8426 111.014 75.3257 109.972 74.9782C107.882 74.2755 105.62 74.2674 103.524 74.9549C101.959 75.4692 100.546 76.3634 99.4108 77.5574C99.2227 77.7547 99.0429 77.9614 98.8714 78.1774C98.7877 78.2812 98.6993 78.3944 98.6218 78.4967L98.3909 78.7974C97.1338 80.3985 95.7032 81.8788 94.0617 83.0444L94.1191 83.0103C94.0682 83.0367 94.0213 83.0701 93.9796 83.1095L94.0447 83.0552C93.0744 83.7279 92.0219 84.2952 90.909 84.5448C90.3616 84.6747 89.7958 84.7093 89.2366 84.6471C89.0991 84.6295 88.9627 84.6057 88.8274 84.5758C88.7576 84.5603 88.6956 84.5448 88.6336 84.5277L88.4058 84.4611C88.0958 84.3758 87.7858 84.3061 87.4758 84.2487C86.845 84.1294 86.2033 84.0774 85.5615 84.0937C84.8911 84.1001 84.2291 84.2436 83.6163 84.5153C83.4604 84.5925 83.3092 84.6789 83.1637 84.7742C83.0204 84.8767 82.8827 84.9869 82.7514 85.1043C82.4959 85.3496 82.286 85.6382 82.1314 85.9568C81.8527 86.5714 81.718 87.2415 81.7377 87.916L81.7485 87.8246C81.6632 88.2482 81.6175 88.6789 81.6121 89.1111C81.6047 89.5303 81.629 89.9495 81.685 90.365C81.7933 91.21 82.0422 92.0309 82.4212 92.7939C82.8052 93.5546 83.3187 94.2428 83.9387 94.8275C84.5551 95.4015 85.249 95.8862 86.0002 96.2674C86.0808 96.3047 86.1727 96.3095 86.2567 96.2808C86.3408 96.2522 86.4106 96.1922 86.4516 96.1135C86.4927 96.0347 86.5019 95.9432 86.4773 95.8579C86.4527 95.7725 86.3962 95.7 86.3195 95.6552H86.3226Z" fill="#233940"/>
<path d="M90.3866 91.4624C88.6231 92.9682 86.985 94.6151 85.4886 96.3867C83.973 98.1506 82.5975 100.03 81.3749 102.009C81.2199 102.258 81.0649 102.506 80.9254 102.759L80.5069 103.534C80.2341 104.05 79.9722 104.571 79.7319 105.104C79.2398 106.165 78.8052 107.251 78.4299 108.359C77.6583 110.564 77.1845 112.862 77.021 115.193C77.0171 115.28 77.0462 115.365 77.1024 115.432C77.1586 115.499 77.2378 115.542 77.3243 115.553C77.4108 115.564 77.4983 115.542 77.5693 115.491C77.6404 115.441 77.6897 115.365 77.7076 115.28C77.9084 114.17 78.1671 113.071 78.4826 111.987C78.8046 110.91 79.1812 109.849 79.611 108.81C80.4635 106.728 81.5516 104.755 82.6862 102.813C83.8257 100.862 85.0814 98.9809 86.4465 97.1803C87.1254 96.2731 87.8338 95.3875 88.5716 94.5236C89.2985 93.6541 90.0642 92.8031 90.8423 91.994L90.8516 91.9847C90.9055 91.9203 90.9341 91.8385 90.932 91.7545C90.93 91.6706 90.8974 91.5903 90.8405 91.5286C90.7835 91.4669 90.706 91.428 90.6225 91.4192C90.539 91.4105 90.4552 91.4324 90.3866 91.481V91.4624Z" fill="#233940"/>
<path d="M69.3331 76.9683L68.6418 77.1373L68.2977 77.2225L67.949 77.2861C67.7165 77.3279 67.484 77.3775 67.2546 77.4132L66.5555 77.4984C65.6271 77.5894 64.6914 77.5775 63.7655 77.4628C61.9257 77.2272 60.1897 76.5018 58.5482 75.5764C57.7298 75.1114 56.9145 74.6092 56.1178 74.0869C55.3488 73.5731 54.6267 72.9921 53.9602 72.3509C52.6102 71.0675 51.4694 69.5531 50.327 68.0109C49.1847 66.4686 48.0609 64.8768 46.762 63.3872C45.4583 61.8936 43.9958 60.5465 42.4003 59.3696C41.6027 58.7823 40.7716 58.242 39.911 57.7514L39.2554 57.4011L38.9268 57.2275L38.5904 57.0725L37.9162 56.7625L37.2264 56.4851C35.3873 55.7519 33.4418 55.3207 31.4651 55.2079C31.4198 55.2037 31.3741 55.2085 31.3307 55.222C31.2872 55.2354 31.2469 55.2574 31.2119 55.2864C31.1769 55.3155 31.148 55.3512 31.1268 55.3914C31.1057 55.4317 31.0926 55.4757 31.0884 55.521C31.0843 55.5663 31.089 55.6119 31.1025 55.6554C31.116 55.6988 31.1379 55.7392 31.167 55.7742C31.196 55.8091 31.2317 55.838 31.272 55.8592C31.3122 55.8804 31.3562 55.8935 31.4015 55.8976C35.1727 56.3471 38.6989 58.0211 41.6315 60.3756C43.104 61.5528 44.4499 62.88 45.6476 64.3358C46.2459 65.0643 46.8132 65.8285 47.3851 66.5957C47.9571 67.363 48.5151 68.1457 49.1041 68.9207C49.6931 69.6957 50.2898 70.4707 50.9377 71.2209C51.5818 71.9826 52.274 72.7022 53.0101 73.3754C53.7547 74.0545 54.5582 74.666 55.411 75.2029C56.2465 75.7144 57.0866 76.2119 57.967 76.6645C59.72 77.5635 61.6451 78.2858 63.6617 78.461C64.6626 78.5361 65.6687 78.4977 66.6609 78.3463C67.6384 78.1897 68.6004 77.9486 69.5362 77.6255C69.5797 77.6132 69.6204 77.5924 69.656 77.5644C69.6915 77.5364 69.7212 77.5016 69.7433 77.4621C69.7654 77.4226 69.7795 77.3791 69.7847 77.3341C69.79 77.2892 69.7864 77.2436 69.7741 77.2001C69.7618 77.1565 69.741 77.1158 69.713 77.0803C69.6849 77.0447 69.6502 77.0151 69.6106 76.993C69.5711 76.9709 69.5277 76.9568 69.4827 76.9515C69.4378 76.9462 69.3922 76.9498 69.3486 76.9621L69.3331 76.9683Z" fill="#233940"/>
<path d="M47.4408 51.0678C47.5569 51.7973 47.7524 52.512 48.0236 53.1991C48.2901 53.8901 48.6234 54.5536 49.0187 55.18C49.8141 56.4281 50.794 57.5485 51.925 58.5032C52.4928 58.9806 53.0936 59.4172 53.723 59.8098C54.3587 60.1992 55.0224 60.5412 55.7085 60.8328C56.4027 61.1225 57.1204 61.3522 57.8537 61.5195C58.5945 61.6941 59.3525 61.7856 60.1136 61.7923C61.6629 61.8277 63.1954 61.4659 64.5652 60.7414C65.905 60.0017 67.0573 58.9645 67.9334 57.7096C68.7829 56.501 69.4523 55.1753 69.9205 53.7741C70.1592 53.0875 70.3684 52.3931 70.5405 51.6987L71.0349 49.6093C71.0473 49.5656 71.051 49.5199 71.0458 49.4748C71.0406 49.4298 71.0265 49.3861 71.0044 49.3465C70.9823 49.3068 70.9526 49.2719 70.917 49.2437C70.8814 49.2156 70.8406 49.1947 70.797 49.1823C70.7533 49.1698 70.7076 49.1661 70.6626 49.1714C70.6175 49.1766 70.5738 49.1907 70.5342 49.2128C70.4945 49.2349 70.4596 49.2646 70.4315 49.3001C70.4033 49.3357 70.3824 49.3765 70.37 49.4202V49.4326L69.7128 51.4476C69.4834 52.1141 69.2478 52.7697 68.9734 53.4083C68.4555 54.6753 67.7683 55.8662 66.9305 56.9485C66.0873 57.9932 65.0705 58.886 63.9049 59.4425C63.3154 59.7125 62.6993 59.9203 62.0666 60.0625L61.5892 60.1539L61.1041 60.2113C60.9491 60.2376 60.7786 60.2361 60.6174 60.25C60.4545 60.2632 60.2909 60.2674 60.1276 60.2624C57.4926 60.2624 54.8576 59.1914 52.7031 57.5391C51.614 56.7141 50.6561 55.729 49.8619 54.6173C49.0535 53.5121 48.4638 52.2626 48.1244 50.9361C48.1011 50.8516 48.0466 50.7791 47.9719 50.7332C47.8972 50.6874 47.8079 50.6716 47.722 50.6892C47.6361 50.7067 47.5601 50.7562 47.5093 50.8276C47.4586 50.8991 47.4368 50.9872 47.4486 51.074L47.4408 51.0678Z" fill="#233940"/>
<path d="M61.5909 35.061C61.4383 34.833 61.2582 34.6248 61.0546 34.441C60.8516 34.2556 60.6298 34.0919 60.3927 33.9527C59.8871 33.6538 59.3137 33.4884 58.7265 33.4722C58.1264 33.4884 57.5474 33.6976 57.0757 34.069L56.9021 34.1914C56.8479 34.2364 56.7998 34.2875 56.7471 34.334C56.6464 34.4301 56.5518 34.5293 56.4573 34.627C56.291 34.8346 56.1387 35.0531 56.0016 35.2811C55.9604 35.3455 55.9416 35.4216 55.9479 35.4978C55.9543 35.574 55.9855 35.646 56.0367 35.7027C56.088 35.7594 56.1564 35.7977 56.2316 35.8117C56.3067 35.8257 56.3844 35.8146 56.4526 35.7802L56.51 35.7507C56.7208 35.6438 56.9099 35.5213 57.1036 35.4206C57.2028 35.3772 57.302 35.3353 57.395 35.2888C57.4431 35.2671 57.488 35.2423 57.5361 35.2237L57.6818 35.1803C58.0584 35.0253 58.4273 35.0501 58.7668 35.0098C59.1452 34.9657 59.5284 34.9931 59.8967 35.0904C60.3114 35.2019 60.7138 35.3545 61.098 35.5461L61.1429 35.5678C61.2121 35.6011 61.2903 35.6107 61.3655 35.5952C61.4407 35.5797 61.5087 35.5399 61.5591 35.4819C61.6095 35.424 61.6394 35.3511 61.6443 35.2745C61.6492 35.1979 61.6288 35.1218 61.5862 35.0579L61.5909 35.061Z" fill="#233940"/>
<path d="M47.5307 85.9103C47.159 86.9002 46.9857 87.9535 47.0207 89.0103C47.0344 89.5297 47.0836 90.0476 47.1679 90.5603C47.2368 91.0219 47.2566 91.4895 47.2268 91.9553C47.167 92.8779 46.9095 93.7769 46.4717 94.5912C46.0339 95.4056 45.4261 96.1162 44.6895 96.675C43.9592 97.2193 43.1227 97.6042 42.2343 97.805C41.8127 97.8933 41.281 97.96 40.7866 98.0545C40.2921 98.1491 39.7868 98.2359 39.2893 98.3382C37.2903 98.7394 35.322 99.2812 33.3993 99.9595C32.9172 100.127 32.4429 100.313 31.9671 100.496C31.4912 100.679 31.0247 100.886 30.5612 101.102C29.6312 101.513 28.7214 101.99 27.8286 102.484C27.3868 102.742 26.9405 102.988 26.5096 103.259C26.0787 103.531 25.6431 103.797 25.2199 104.086C24.3721 104.656 23.5537 105.27 22.7632 105.913C19.5955 108.485 16.9428 111.633 14.945 115.191C14.8975 115.27 14.8833 115.364 14.9053 115.454C14.9274 115.543 14.9841 115.62 15.0628 115.667C15.1415 115.715 15.2359 115.729 15.3251 115.707C15.4144 115.685 15.4912 115.628 15.5386 115.549C17.6823 112.223 20.3918 109.297 23.5444 106.905C25.1154 105.722 26.7811 104.671 28.5246 103.762C30.2721 102.861 32.0741 102.07 33.9201 101.393C35.7712 100.715 37.6621 100.15 39.5822 99.7022C40.0627 99.5906 40.5464 99.4867 41.0299 99.3922C41.5135 99.2976 41.9801 99.2217 42.5365 99.0915C44.132 98.6927 45.5525 97.7816 46.5803 96.4979C47.6081 95.2142 48.1865 93.6287 48.2266 91.9847C48.2372 91.4483 48.1884 90.9123 48.0809 90.3867C47.9784 89.9157 47.9085 89.4382 47.8716 88.9576C47.7971 88.0046 47.9023 87.0461 48.1816 86.1319C48.2037 86.0478 48.1933 85.9583 48.1524 85.8815C48.1114 85.8048 48.043 85.7462 47.9608 85.7176C47.8786 85.6891 47.7887 85.6926 47.7089 85.7274C47.6292 85.7623 47.5655 85.8259 47.5307 85.9056V85.9103Z" fill="#233940"/>
<path d="M130.335 59.0752C131.779 59.2782 133.248 59.2258 134.675 58.9202C135.034 58.852 135.383 58.7404 135.737 58.6443C136.082 58.5234 136.434 58.4164 136.769 58.2707C137.45 57.9981 138.107 57.67 138.734 57.2896C141.247 55.7706 143.277 53.5355 144.71 50.995C145.43 49.7172 145.976 48.3481 146.331 46.9247C146.422 46.5698 146.497 46.2102 146.565 45.849C146.633 45.4879 146.681 45.1112 146.731 44.7811C146.78 44.4509 146.827 44.0991 146.886 43.7612L147.073 42.7459C147.347 41.3955 147.717 40.0663 148.18 38.7686C148.405 38.1176 148.678 37.4852 148.955 36.8575C149.235 36.2373 149.557 35.637 149.919 35.061L149.932 35.0409C149.983 34.9662 150.003 34.8744 149.987 34.7852C149.971 34.696 149.921 34.6165 149.847 34.5639C149.774 34.5113 149.682 34.4897 149.593 34.5039C149.503 34.518 149.423 34.5667 149.369 34.6394C148.926 35.215 148.528 35.8245 148.18 36.4622C147.831 37.0894 147.514 37.734 147.23 38.3935C146.655 39.7092 146.189 41.0695 145.835 42.4607L145.584 43.507C145.502 43.8557 145.441 44.2091 145.371 44.561C145.302 44.9128 145.241 45.2383 145.17 45.5685C145.099 45.8986 145.015 46.2195 144.913 46.5403C144.718 47.1835 144.49 47.8162 144.231 48.436C144.099 48.746 143.964 49.056 143.814 49.3551C143.663 49.6543 143.518 49.9596 143.36 50.2572C142.081 52.6225 140.295 54.7522 138.06 56.2511C135.809 57.7882 133.115 58.541 130.394 58.3932C130.306 58.3903 130.22 58.421 130.154 58.479C130.088 58.5369 130.047 58.6178 130.038 58.7053C130.03 58.7927 130.055 58.8801 130.109 58.9496C130.162 59.0192 130.24 59.0658 130.327 59.0798L130.335 59.0752Z" fill="#233940"/>
<path d="M135.974 54.0656C136.011 55.9721 135.949 57.8941 135.876 59.8114C135.803 61.7288 135.675 63.6415 135.516 65.5464C135.358 67.4514 135.148 69.3579 134.879 71.2504C134.611 73.143 134.284 75.0262 133.873 76.8893C133.463 78.7524 133.012 80.6093 132.441 82.4213C132.313 82.8863 132.15 83.328 132.006 83.7806L131.783 84.458L131.541 85.1291C131.376 85.5709 131.22 86.0312 131.048 86.459C130.876 86.8868 130.685 87.3146 130.484 87.7378C130.079 88.5825 129.626 89.4149 129.16 90.2534L127.757 92.7877C127.504 93.2461 127.29 93.7252 127.117 94.2199C127.029 94.4861 126.962 94.7586 126.916 95.0352L126.886 95.2491L126.872 95.4816C126.864 95.6366 126.867 95.7921 126.883 95.9466C126.952 96.5141 127.121 97.0647 127.384 97.5725C127.61 98.0375 127.849 98.4529 128.022 98.8466C128.199 99.1957 128.305 99.5768 128.332 99.9673C128.357 100.369 128.32 100.772 128.222 101.162C128.001 101.988 127.608 102.758 127.067 103.421C126.5 104.13 125.861 104.779 125.161 105.358C124.444 105.958 123.694 106.517 122.915 107.032C121.382 108.083 119.66 108.892 117.947 109.849C117.076 110.323 116.237 110.857 115.438 111.445C114.61 112.05 113.875 112.773 113.255 113.59C112.605 114.438 112.184 115.439 112.031 116.496C111.954 117.034 111.962 117.581 112.056 118.116C112.149 118.666 112.348 119.193 112.643 119.666C112.945 120.158 113.365 120.566 113.865 120.854C113.994 120.926 114.129 120.988 114.268 121.04C114.405 121.091 114.54 121.119 114.677 121.157C114.745 121.174 114.813 121.196 114.881 121.207L115.087 121.233C115.223 121.255 115.361 121.267 115.498 121.269C116.029 121.278 116.559 121.214 117.073 121.08C117.565 120.949 118.046 120.779 118.511 120.573C119.413 120.164 120.279 119.68 121.1 119.125C121.915 118.583 122.698 118.015 123.467 117.42C125.004 116.227 126.441 114.911 127.763 113.483C127.828 113.416 127.863 113.325 127.862 113.232C127.86 113.139 127.821 113.05 127.753 112.985C127.686 112.92 127.595 112.885 127.502 112.887C127.409 112.889 127.32 112.928 127.255 112.995C125.918 114.351 124.473 115.595 122.934 116.715C121.384 117.822 119.81 118.928 118.108 119.641C117.69 119.816 117.259 119.958 116.819 120.066C116.398 120.167 115.966 120.21 115.534 120.195C115.43 120.191 115.326 120.18 115.224 120.161L115.069 120.141C115.019 120.131 114.973 120.113 114.925 120.1C114.832 120.071 114.728 120.049 114.643 120.015C114.556 119.981 114.473 119.94 114.393 119.893C114.06 119.688 113.784 119.404 113.589 119.066C113.18 118.338 113.04 117.488 113.193 116.667C113.337 115.815 113.698 115.014 114.241 114.342C115.326 112.936 116.935 111.943 118.581 111.044C120.227 110.145 122.028 109.339 123.696 108.254C125.333 107.183 126.959 105.994 128.252 104.365C128.939 103.534 129.44 102.566 129.723 101.525C129.855 100.981 129.903 100.419 129.864 99.8603C129.858 99.7131 129.841 99.5665 129.814 99.4217C129.789 99.2744 129.749 99.1334 129.713 98.9923C129.632 98.7274 129.533 98.4685 129.416 98.2173C129.194 97.7337 128.951 97.3106 128.754 96.9153C128.568 96.5693 128.444 96.193 128.39 95.804C128.381 95.7185 128.378 95.6325 128.382 95.5467V95.418L128.4 95.2754C128.431 95.0775 128.477 94.8821 128.537 94.6911C128.677 94.2751 128.853 93.8717 129.061 93.4852L130.42 90.9509C130.877 90.1015 131.333 89.2366 131.747 88.3407C131.955 87.8928 132.15 87.4371 132.33 86.9705C132.509 86.504 132.657 86.0498 132.821 85.5879L133.06 84.8982L133.278 84.2022C133.421 83.7372 133.579 83.2722 133.705 82.8072C134.258 80.9472 134.701 79.05 135.079 77.1466C135.458 75.2432 135.754 73.3259 135.986 71.4116C136.219 69.4974 136.4 67.563 136.515 65.6332C136.629 63.7035 136.71 61.7629 136.727 59.83C136.744 57.8972 136.755 55.9736 136.663 54.033C136.655 53.9452 136.614 53.8638 136.548 53.8054C136.482 53.747 136.396 53.716 136.308 53.7188C136.22 53.7216 136.137 53.7579 136.074 53.8203C136.012 53.8828 135.976 53.9666 135.974 54.0547V54.0656Z" fill="#233940"/>
<path d="M48.825 38.9996C48.7681 38.0233 48.5675 37.0607 48.2297 36.1429C48.0547 35.6606 47.8243 35.2003 47.5431 34.7712C47.2373 34.2924 46.8318 33.8853 46.3543 33.5777C45.8176 33.2514 45.1841 33.1221 44.5625 33.2119L44.3331 33.2537L44.2199 33.277C44.209 33.277 44.1595 33.2925 44.1362 33.3002L44.082 33.3204C43.9481 33.3698 43.8172 33.4267 43.6898 33.4909C43.4394 33.6165 43.2038 33.7699 42.9877 33.9481C42.5313 34.2912 42.1994 34.7738 42.0425 35.3227C41.8855 35.8716 41.9121 36.4568 42.1181 36.9892C42.1459 37.0682 42.2011 37.1345 42.2737 37.1761C42.3464 37.2177 42.4315 37.2317 42.5136 37.2158C42.5958 37.1998 42.6695 37.1548 42.7212 37.089C42.7729 37.0233 42.7993 36.9411 42.7954 36.8575V36.8373C42.7619 36.4511 42.8292 36.0628 42.9907 35.7105C43.1579 35.3987 43.4128 35.1427 43.7239 34.9742C43.8859 34.8823 44.0567 34.807 44.2339 34.7495C44.3192 34.7207 44.4062 34.6969 44.4943 34.6782H44.5237H44.5826H44.6989C45.0078 34.6837 45.3107 34.7651 45.5808 34.9153C45.8997 35.094 46.1804 35.3336 46.407 35.6206C46.6732 35.9441 46.9064 36.2936 47.1029 36.6637C47.5213 37.4519 47.8703 38.2749 48.1461 39.1236V39.1422C48.1715 39.2233 48.226 39.2921 48.2991 39.3356C48.3721 39.3791 48.4587 39.3941 48.5421 39.3778C48.6255 39.3615 48.7 39.315 48.7513 39.2472C48.8027 39.1795 48.8272 39.0952 48.8203 39.0104L48.825 38.9996Z" fill="#233940"/>
<path d="M61.6545 29.3927C62.5084 29.6183 63.3819 29.7615 64.2631 29.8205C65.1485 29.8901 66.0388 29.8688 66.9198 29.7569C67.8197 29.6421 68.6992 29.4026 69.5331 29.0455C71.2607 28.2952 72.6394 26.9176 73.3911 25.1906C73.7541 24.3503 74.0144 23.4692 74.1661 22.5665C74.3063 21.6797 74.3721 20.7827 74.3629 19.885C74.3647 18.9804 74.2759 18.0779 74.0979 17.1911C73.9094 16.287 73.6046 15.4112 73.1911 14.5855C72.7602 13.7492 72.1881 12.9936 71.5001 12.352C70.8118 11.7089 70.0139 11.1945 69.1441 10.833C68.2841 10.4765 67.3703 10.2669 66.4409 10.213C62.7503 9.97116 59.1171 12.0978 57.5485 15.328C57.5272 15.3681 57.5139 15.412 57.5095 15.4572C57.5051 15.5024 57.5096 15.5481 57.5229 15.5915C57.5361 15.635 57.5578 15.6754 57.5867 15.7105C57.6155 15.7456 57.651 15.7747 57.6911 15.7961C57.7312 15.8174 57.7751 15.8307 57.8204 15.8351C57.8656 15.8395 57.9112 15.8349 57.9547 15.8217C57.9982 15.8085 58.0386 15.7868 58.0737 15.7579C58.1088 15.7291 58.1379 15.6936 58.1592 15.6535C58.9961 14.2441 60.2185 13.1034 61.6824 12.3659C63.1178 11.6292 64.7339 11.3184 66.3401 11.47C67.9039 11.6134 69.3696 12.2943 70.4879 13.3967C71.0306 13.949 71.4835 14.5829 71.8302 15.2753C72.002 15.6267 72.1501 15.9891 72.2735 16.3603C72.4047 16.7348 72.5154 17.1161 72.6052 17.5026C72.9247 19.0966 72.9854 20.7316 72.785 22.3448C72.6761 23.1354 72.4732 23.9102 72.1805 24.6528C71.8866 25.3765 71.4668 26.0425 70.9405 26.6197C70.4068 27.1959 69.7716 27.6687 69.0666 28.0147C68.3386 28.3648 67.5655 28.612 66.7695 28.7494C65.1343 29.0313 63.4619 29.0187 61.8312 28.7122H61.8095C61.7203 28.6917 61.6266 28.7074 61.5489 28.7559C61.4713 28.8045 61.4162 28.8819 61.3956 28.9711C61.3751 29.0603 61.3908 29.154 61.4393 29.2316C61.4879 29.3092 61.5653 29.3644 61.6545 29.3849V29.3927Z" fill="#233940"/>
<path d="M63.4787 53.3092C63.3439 53.2937 63.1594 53.2596 62.9998 53.2255C62.8401 53.1914 62.6665 53.1511 62.4991 53.1077C62.1659 53.0193 61.8342 52.9139 61.5071 52.7977C60.8499 52.5745 60.202 52.3079 59.5665 52.0227C58.931 51.7375 58.3033 51.4197 57.6833 51.0927L56.7533 50.5874L55.8434 50.0557C55.7293 49.9917 55.6005 49.9584 55.4697 49.9589C55.3388 49.9595 55.2104 49.9939 55.0968 50.0588C54.9831 50.1237 54.8883 50.2169 54.8214 50.3294C54.7545 50.4418 54.7178 50.5697 54.715 50.7005V50.7191C54.715 50.9578 54.7259 51.1469 54.7429 51.3562C54.76 51.5654 54.7863 51.7623 54.8189 51.9622C54.8806 52.3658 54.9723 52.7642 55.0932 53.1542C55.3298 53.9542 55.6964 54.7098 56.1782 55.3908C56.6607 56.0884 57.3219 56.6435 58.0925 56.998C58.8631 57.3525 59.7148 57.4934 60.5585 57.4058C60.6436 57.399 60.7233 57.361 60.7822 57.2992C60.8411 57.2374 60.8751 57.156 60.8778 57.0706C60.8805 56.9853 60.8516 56.9019 60.7967 56.8365C60.7418 56.7711 60.6648 56.7282 60.5802 56.7161H60.5585C60.2082 56.6826 59.8619 56.6151 59.5247 56.5146C59.3573 56.4712 59.2023 56.3983 59.0442 56.341C58.8883 56.2732 58.7366 56.1961 58.59 56.11C58.0269 55.7566 57.5599 55.2694 57.2307 54.6918C56.8973 54.0919 56.6555 53.4457 56.513 52.7744C56.4402 52.4334 56.3766 52.0893 56.3301 51.7406C56.3053 51.567 56.2914 51.3918 56.2712 51.2182C56.2511 51.0446 56.2418 50.8602 56.2356 50.7207L55.0963 51.3856L56.0728 51.8847L57.0664 52.3497C57.7406 52.6396 58.4149 52.9263 59.1139 53.1588C59.8099 53.4044 60.5207 53.6058 61.2421 53.7618C61.6048 53.8362 61.9706 53.8982 62.3426 53.9431C62.724 53.9961 63.1095 54.0137 63.4942 53.9958C63.5818 53.9931 63.6651 53.957 63.7271 53.895C63.789 53.8329 63.8249 53.7496 63.8275 53.662C63.8301 53.5743 63.7991 53.489 63.7409 53.4235C63.6827 53.3579 63.6017 53.317 63.5144 53.3092H63.4787Z" fill="#233940"/>
<path d="M108.429 87.9579C107.534 86.676 106.623 85.4097 105.718 84.1356L102.973 80.3396L102.283 79.3926L101.937 78.9276L101.53 78.4254C100.95 77.7747 100.25 77.2425 99.4682 76.8583C97.8796 76.0765 96.0492 75.9431 94.3641 76.4863C94.1533 76.5499 93.9533 76.6413 93.7441 76.7204C93.5348 76.7994 93.3504 76.9141 93.1535 77.0133C92.7879 77.2288 92.4369 77.468 92.1026 77.7294C91.4671 78.2099 90.8626 78.7137 90.2643 79.2066C89.0615 80.1908 87.8634 81.1518 86.5846 81.9408C85.9552 82.3325 85.2891 82.6621 84.596 82.925C83.9222 83.1858 83.2099 83.333 82.488 83.3606C81.769 83.3791 81.0536 83.2547 80.3831 82.9948C79.6965 82.7146 79.0556 82.3338 78.4812 81.8648C78.4119 81.8046 78.3216 81.7743 78.23 81.7807C78.1385 81.7871 78.0532 81.8296 77.993 81.8989C77.9327 81.9682 77.9025 82.0585 77.9089 82.1501C77.9153 82.2417 77.9578 82.3269 78.0271 82.3872C78.6212 82.9585 79.3011 83.4334 80.0421 83.7946C80.8089 84.1546 81.6412 84.354 82.488 84.3805C83.3295 84.4034 84.1686 84.2802 84.968 84.0162C85.7488 83.7626 86.5031 83.4335 87.2201 83.0335C88.6415 82.2585 89.9218 81.296 91.1711 80.352L93.0311 78.957C93.3138 78.7409 93.6105 78.5436 93.9192 78.3665C94.0742 78.2921 94.2168 78.1975 94.3749 78.134C94.533 78.0704 94.6849 77.996 94.8508 77.9464C95.8359 77.6134 96.8954 77.5677 97.9055 77.8147C98.9157 78.0618 99.8345 78.5913 100.555 79.3414L100.9 79.7351L101.263 80.2001L101.99 81.0914L104.92 84.7463C105.905 85.9568 106.885 87.1736 107.883 88.3764C107.941 88.4431 108.021 88.4854 108.109 88.4946C108.197 88.5037 108.285 88.4791 108.355 88.4256C108.425 88.3722 108.472 88.294 108.486 88.2071C108.5 88.1201 108.481 88.031 108.432 87.9579H108.429Z" fill="#233940"/>
<path d="M97.7074 64.5684C95.7777 65.9866 93.8619 67.4235 91.9414 68.8526L86.2064 73.1693L83.3451 75.3393C82.8724 75.6881 82.3702 76.1143 81.978 76.3174C81.5373 76.5446 81.0508 76.6691 80.5551 76.6816C79.5616 76.7157 78.5525 76.3003 77.9713 75.5532C77.9062 75.454 77.8318 75.3626 77.7698 75.2634C77.7078 75.1642 77.6551 75.0541 77.607 74.9534C77.5208 74.7494 77.466 74.5336 77.4443 74.3132C77.4192 74.0842 77.4239 73.8529 77.4582 73.625C77.4991 73.3931 77.5672 73.1667 77.6613 72.9508C77.8351 72.527 78.126 72.1614 78.4998 71.8968C78.6704 71.7753 78.8601 71.6831 79.0609 71.624C79.1648 71.6116 79.2562 71.579 79.3709 71.5728C79.4855 71.5638 79.6005 71.5638 79.715 71.5728C80.194 71.5945 80.7396 71.7526 81.3642 71.8828C81.695 71.9536 82.0309 71.9987 82.3686 72.0177C82.726 72.0329 83.0839 72.0064 83.435 71.9386C84.0973 71.7982 84.7326 71.5523 85.3167 71.2101C85.8601 70.8944 86.3825 70.5439 86.8807 70.1608C87.8525 69.4369 88.7934 68.6712 89.7125 67.8823C90.6317 67.0933 91.509 66.2579 92.3708 65.41L93.0109 64.7668C93.2373 64.5427 93.451 64.3062 93.6511 64.0584C93.8792 63.7802 94.0594 63.4659 94.1843 63.1284C94.3196 62.7545 94.347 62.35 94.2633 61.9613C94.1767 61.5918 94.0047 61.2478 93.7611 60.9569C93.5313 60.681 93.2536 60.4489 92.9412 60.2718C92.6469 60.1113 92.3347 59.9859 92.0112 59.8982C91.0627 59.6378 90.0603 59.648 89.1173 59.9277C88.4749 60.1126 87.8944 60.4677 87.4371 60.9553C87.3732 61.0211 87.338 61.1096 87.3393 61.2013C87.3406 61.293 87.3783 61.3804 87.4441 61.4444C87.5099 61.5083 87.5984 61.5435 87.6901 61.5421C87.7818 61.5408 87.8692 61.5031 87.9331 61.4374L87.9424 61.4281C88.3313 61.0568 88.8133 60.7976 89.3374 60.6779C89.8697 60.5474 90.4218 60.5179 90.9649 60.5911C91.2344 60.6266 91.5 60.6868 91.7585 60.7709C91.8887 60.8065 92.0096 60.8639 92.1336 60.9104C92.2576 60.9569 92.377 61.0251 92.4746 61.0871C92.8854 61.3413 93.2124 61.7582 93.2791 62.1721C93.3457 62.5859 93.169 62.9734 92.8141 63.3733C92.6285 63.5831 92.4325 63.7833 92.2266 63.9732L91.5818 64.5839C90.7138 65.3888 89.82 66.1638 88.9003 66.9089C87.9807 67.6539 87.0383 68.3674 86.0731 69.0494C85.123 69.7268 84.1511 70.3313 83.1715 70.4971C82.6731 70.5714 82.1646 70.5402 81.6789 70.4057C81.1348 70.2817 80.5241 70.0957 79.8049 70.0445C79.6207 70.0307 79.4358 70.0307 79.2516 70.0445C79.0572 70.064 78.8641 70.0951 78.6734 70.1375C78.2972 70.2402 77.9413 70.4064 77.621 70.6289C77.0126 71.0613 76.54 71.6581 76.2585 72.3494C75.9664 73.0236 75.8594 73.7636 75.9485 74.493C75.9946 74.8687 76.0992 75.2348 76.2585 75.578C76.3391 75.7439 76.4321 75.8973 76.5205 76.0554C76.6088 76.2135 76.7328 76.3499 76.8398 76.4956C77.3026 77.0491 77.896 77.4785 78.5665 77.7449C79.22 78.0077 79.923 78.1246 80.6264 78.0875C81.3323 78.0539 82.0213 77.8604 82.6414 77.5217C82.7982 77.4394 82.948 77.3446 83.0894 77.2381C83.2444 77.1311 83.3513 77.0428 83.4707 76.9482L84.1728 76.3902L86.9551 74.1474L92.5521 69.6524C94.4121 68.1427 96.2721 66.6407 98.1228 65.1186C98.1872 65.06 98.2271 64.9793 98.2346 64.8926C98.242 64.8058 98.2165 64.7195 98.163 64.6508C98.1096 64.5821 98.0322 64.536 97.9463 64.5219C97.8604 64.5078 97.7723 64.5266 97.6997 64.5746L97.7074 64.5684Z" fill="#233940"/>
<circle cx="60.5" cy="39.5" r="1.5" fill="#233940"/>
</svg>
